<?xml version="1.0" encoding="UTF-8"?>
<svg id="Capa_2" data-name="Capa 2" xmlns="http://www.w3.org/2000/svg" viewBox="0 0 1433.39 1413.77">
  <defs>
    <style>
      .cls-1 {
        fill: #ffde9c;
      }

      .cls-2 {
        fill: #e2719a;
      }

      .cls-3 {
        fill: none;
        stroke: #000;
        stroke-miterlimit: 10;
      }

      .cls-4 {
        fill: #ffc5de;
      }

      .cls-5 {
        fill: #f9d482;
      }

      .cls-6 {
        fill: #f9ebd4;
      }

      .cls-7 {
        fill: #f5a1c5;
      }

      .cls-8 {
        fill: #b0d1e4;
      }

      .cls-9 {
        fill: #92bfd6;
      }

      .cls-10 {
        fill: #f4becf;
      }

      .cls-11 {
        fill: #81d2cc;
      }

      .cls-12 {
        fill: #d8648c;
      }

      .cls-13 {
        fill: #479bb5;
      }

      .cls-14 {
        fill: #85858b;
      }

      .cls-15 {
        fill: #ffd7ee;
      }

      .cls-16 {
        fill: #fdb0d6;
      }

      .cls-17 {
        fill: #e5ae4c;
      }

      .cls-18 {
        fill: #58b7ae;
      }

      .cls-19 {
        fill: #eca2b6;
      }

      .cls-20 {
        fill: #fab5d0;
      }

      .cls-21 {
        fill: #ef9cb3;
      }

      .cls-22 {
        fill: #9adcdd;
      }

      .cls-23 {
        fill: #6fadc6;
      }

      .cls-24 {
        fill: #949497;
      }

      .cls-25 {
        fill: #e582a0;
      }

      .cls-26 {
        fill: #717180;
      }

      .cls-27 {
        fill: #ededef;
      }

      .cls-28 {
        fill: #60bfb6;
      }

      .cls-29 {
        fill: #d4f4ef;
      }

      .cls-30 {
        fill: #2f8e82;
      }

      .cls-31 {
        fill: #f7cd79;
      }
    </style>
  </defs>
  <g id="Capa_1-2" data-name="Capa 1">
    <g>
      <g>
        <path class="cls-14" d="M1262.04,471.29c-.46-.4-1.16-.95-2.01-1.73-1.73-1.51-4.15-3.79-7-6.72-2.85-2.93-6.1-6.56-9.71-10.61-3.62-4.05-7.61-8.53-12.18-12.95-4.59-4.41-9.36-8.25-14.07-11.23-4.71-2.97-9.32-5.1-13.38-6.29-1.2-.36-2.34-.64-3.42-.88-.49-.14-1-.28-1.53-.41-.83-.21-1.7-.41-2.61-.59.11-.02.22-.04.33-.07,9.94-2.19,20.63-5.82,31.15-11.13,10.48-5.38,19.75-11.83,27.43-18.53,3.87-3.32,7.28-6.76,10.4-10.03,3.06-3.34,5.79-6.55,8.11-9.61,4.66-6.11,7.93-11.41,9.94-15.2,2.02-3.78,2.91-5.99,2.7-6.1-.25-.13-1.56,1.83-3.93,5.35-2.37,3.52-5.92,8.51-10.76,14.31-2.41,2.9-5.2,5.95-8.29,9.12-3.15,3.12-6.56,6.39-10.4,9.56-7.62,6.39-16.7,12.58-26.9,17.82-10.24,5.16-20.56,8.92-30.2,11.39-3.01.8-5.95,1.43-8.8,1.98-.21-.01-.41-.03-.62-.04-4.71-.25-9.89-.09-15.25.26-5.13.33-9.98.79-14.39,1.09-1.01.07-1.99.13-2.95.18-1.03-.34-2.34-.65-3.91-.69-1.59-.04-3.46.2-5.39.98l-3.3,1.34,3.64.54c3.41.5,7.5.82,12.01.83,2.93.01,6.04-.1,9.25-.26,1.19.01,2.4.02,3.68,0,3.83-.04,8.03-.32,12.53-.78.11-.01.23-.03.34-.04,1.24-.02,2.45-.03,3.64-.02,4.56.04,8.64.38,12.03.91.9.14,1.74.29,2.54.44.67.23,1.35.48,2.06.76,3.73,1.44,7.97,3.69,12.36,6.67,4.39,2.99,8.91,6.76,13.37,11.04,4.46,4.31,8.6,8.6,12.48,12.43,3.88,3.83,7.51,7.19,10.72,9.82,3.21,2.63,5.95,4.58,7.9,5.82.96.64,1.75,1.07,2.27,1.4.52.31.8.47.8.47,0,0-.25-.2-.71-.6Z"/>
        <path class="cls-22" d="M1413.23,290.83c7.15-9.42,13.45-19.48,20.16-29.22-23.61,8.85-49.48,11.68-74.43,7.96-10.54-1.58-21.05-4.29-31.69-3.71-22.9,1.26-43.02,18.44-51.85,39.61-8.09,19.42-7.73,41.48-2.53,61.95,54.61-4.65,107.13-32.86,140.33-76.59Z"/>
        <path class="cls-22" d="M1369.35,555.12c-6.26-4.9-10.18-13.08-13.68-20.55-11.68-24.94-26.41-49.2-47.95-66.37-20.43-16.28-47.91-25.3-73.19-19.41-.24,1.66-.48,3.32-.69,4.97-3.9,30.32,2.67,61.89,18.33,88.14,5.31,8.91,11.84,17.4,20.67,22.85,16.66,10.29,38.14,7.89,56.94,2.4,13.21-3.86,26.21-9.09,39.57-12.04Z"/>
        <g>
          <path class="cls-24" d="M1318.28,507.61c-28.53-8.01-54.46-23.35-75.32-44.38-1.18-1.19-2.8.86-1.63,2.04,21.2,21.38,47.56,36.78,76.54,44.92,1.61.45,2.01-2.13.41-2.58h0Z"/>
          <path class="cls-24" d="M1274.42,490.53c11.29-1.02,22.57-1.39,33.02,3.7,1.51.74,2.56-1.65,1.06-2.38-10.84-5.28-22.63-4.97-34.37-3.91-1.67.15-1.38,2.74.29,2.59h0Z"/>
          <path class="cls-24" d="M1261.51,482.93c8.31,12.36,15.78,25.16,21.64,38.87.66,1.54,3.08.58,2.42-.97-5.95-13.92-13.54-26.91-21.97-39.46-.94-1.39-3.03.17-2.09,1.56h0Z"/>
          <path class="cls-24" d="M1244.31,468.01c10-2.28,19.99-2.39,30.04-.31,1.65.34,2.05-2.24.41-2.58-10.25-2.12-20.53-2.03-30.74.29-1.62.37-1.35,2.96.29,2.59h0Z"/>
          <path class="cls-24" d="M1242.22,467.01c3.64,13.68,8.33,27.01,14.05,39.96.68,1.53,3.1.57,2.42-.97-5.73-12.95-10.41-26.28-14.05-39.96-.43-1.62-2.85-.64-2.42.97h0Z"/>
          <path class="cls-24" d="M1367.34,302.18c-33.25,10.15-64,27.21-90.22,50.03-1.26,1.1.29,3.2,1.56,2.09,26.07-22.7,56.57-39.61,89.63-49.7,1.6-.49.63-2.91-.97-2.42h0Z"/>
          <path class="cls-24" d="M1315.21,328.05c12.04-4.75,24.67-6.61,37.56-5.47,1.67.15,2.08-2.43.41-2.58-13.35-1.18-26.47.7-38.94,5.62-1.56.61-.6,3.04.97,2.42h0Z"/>
          <path class="cls-24" d="M1309.7,331.61c2.45-1.67,3.44-4.27,4.66-6.89,1.94-4.15,3.64-8.42,5.6-12.56,3.75-7.91,8.5-15.15,16.26-19.59,1.45-.83-.11-2.92-1.56-2.09-6.01,3.43-10.4,8.54-13.87,14.46-2.1,3.58-3.81,7.37-5.48,11.17-1.74,3.95-3.45,10.88-7.18,13.41-1.39.94.17,3.04,1.56,2.09h0Z"/>
          <path class="cls-24" d="M1292.81,343.31c12.39-4.45,25.6.68,38.31-1.76,1.64-.32,1.36-2.91-.29-2.59-12.98,2.5-26.27-2.64-38.99,1.93-1.58.57-.61,2.99.97,2.42h0Z"/>
          <path class="cls-24" d="M1281.99,350.59c2.96-5.94,4.1-12.1,5.48-18.54,1.91-8.94,6.11-14.82,12.63-21.03,1.2-1.14-.34-3.25-1.56-2.09-5.37,5.12-10.06,10.14-12.3,17.38-2.41,7.81-2.94,15.79-6.63,23.23-.75,1.51,1.64,2.56,2.38,1.06h0Z"/>
        </g>
      </g>
      <g>
        <path class="cls-26" d="M913.09,440.3h0c-4.82-1.73-12.15-4.17-19.95-6.71-11.81-3.84-22.43-7.62-30.34-10.35-.02,0-.04-.02-.05-.02-14.36-6.85-31.04-15.9-48.56-27.47-5.58-3.67-11.24-7.64-16.94-11.83-.89-1.15-1.86-2.4-2.91-3.73-2.84-3.67-6.19-8.03-9.54-13.06-3.34-5.03-6.71-10.73-9.25-17.09-1.34-3.15-2.27-6.34-3.14-9.43-.72-3.12-1.32-6.16-1.63-9.16-.68-5.98-.91-11.58-1.48-16.29-.51-4.71-1.34-8.5-2.1-11.03-.37-1.27-.71-2.24-.98-2.88-.25-.65-.38-.99-.38-.99,0,0,.05.36.14,1.05.11.68.22,1.69.33,2.99.22,2.6.31,6.34.1,10.97-.16,4.64-.66,10.18-.5,16.53.05,3.18.47,6.56,1.1,10.02.78,3.42,1.72,6.96,3.17,10.38,2.76,6.91,6.51,12.89,10.24,17.98.56.76,1.12,1.46,1.68,2.19-7.29-5.8-14.62-11.92-21.96-18.35-18.23-16.02-34.83-32.16-49.28-47.45-14.49-15.26-26.85-29.65-36.97-41.94-10.09-12.33-17.96-22.56-23.37-29.66-5.43-7.08-8.48-10.98-8.83-10.74-.31.21,2.12,4.53,7,12.04,4.86,7.52,12.27,18.17,22,30.9,9.77,12.69,21.9,27.46,36.28,43.04,14.35,15.61,30.97,32,49.36,48.16,6.16,5.4,12.35,10.56,18.55,15.47-3.18-1.36-6.6-2.88-10.23-4.57-7.85-3.63-15.4-6.43-21.06-7.85-2.82-.72-5.15-1.15-6.76-1.38-1.61-.2-2.51-.32-2.51-.32,0,0,.8.42,2.23,1.18,1.42.76,3.46,1.86,5.98,3.21,5.02,2.71,11.73,6.72,19.71,10.41,7.94,3.71,15.81,6.28,21.48,7.26.69.14,1.35.27,1.98.39,8.69,6.47,17.33,12.41,25.82,17.69,13.27,8.28,26.07,15.06,37.79,20.55,3.66,3.07,20.49,11.68,42,18.68,7.91,2.58,15.51,4.49,20.59,5.45l1.22-4.21s-.04-.01-.07-.02Z"/>
        <path class="cls-18" d="M737.45,268.72c-.54,13.58,6.76,26.13,14.23,37.48,7.46,11.32,15.36,22.35,23.66,33.08,27.22-4.39,51.34-25.15,63.22-50.59,13.95-29.88,13.45-64.72,6.64-96.99-5.58-26.48-15.12-51.89-23.8-77.54-2.32,40.05-25.69,77.8-54.16,107.04-13.37,13.73-29.03,28.37-29.79,47.52Z"/>
        <path class="cls-18" d="M693.37,132.14c-12.65-54.2-62.4-89.52-99.07-132.14,11.33,43.42,13.5,89.21,6.22,133.49-2.09,12.69-4.95,25.47-3.84,38.29,2.73,31.72,28.42,55.78,55.16,73.85,33.6-25.85,51.22-71.97,41.53-113.49Z"/>
        <path class="cls-18" d="M689.33,423.95c25.64-6.54,45.3-26.9,61.33-47.96,2.23-2.93,4.49-5.94,6.92-8.75-18.51-17.29-43.32-27.65-68.5-31.88-30.15-5.06-61.05-2.17-91.32,2.14-17.61,2.5-35.36,5.43-53.08,5.23,14.94,14.49,28.87,30.35,44.17,44.45,27.36,25.22,64.42,45.95,100.48,36.76Z"/>
        <g>
          <path class="cls-30" d="M657.13,226.93c-14.23-25.77-24.58-53.15-31.07-81.85-.74-3.26-5.67-1.64-4.94,1.59,6.6,29.15,17.23,56.94,31.68,83.1,1.61,2.92,5.94.06,4.34-2.85h0Z"/>
          <path class="cls-30" d="M813.7,213.73c6.12,38.65-14.52,72.72-34.32,104.07-1.78,2.82,2.88,5.11,4.65,2.31,20.25-32.08,41.11-67.16,34.85-106.65-.52-3.27-5.7-3.02-5.18.27h0Z"/>
          <path class="cls-30" d="M611.89,377.82c40.85,8.12,82.8,5.74,122.47-6.94,3.19-1.02,1.59-5.96-1.59-4.94-38.86,12.42-79.81,14.75-119.82,6.8-3.28-.65-4.33,4.43-1.05,5.08h0Z"/>
        </g>
      </g>
      <g>
        <path class="cls-26" d="M409.02,1028.5c4.6-1.83,11.47-4.29,20.08-8.05,17.34-7.22,42.19-18.47,71.54-34.94,7.31-4.16,15.02-8.45,22.83-13.28,3.91-2.4,7.98-4.73,11.99-7.33,4.02-2.57,8.12-5.19,12.29-7.85,15.3-10.06,31.37-21.11,47.72-33.38-.27.35-.53.67-.8,1.03-3.87,5.17-7.91,11.02-11.81,17.36-3.88,6.37-7.17,12.67-9.9,18.52-2.69,5.87-4.86,11.26-6.48,15.86-1.63,4.59-2.8,8.35-3.51,10.98-.71,2.62-1.11,4.08-1.11,4.08,0,0,.68-1.34,1.92-3.76,1.2-2.43,3.01-5.91,5.25-10.18,2.23-4.28,4.99-9.3,8.1-14.83,3.15-5.51,6.67-11.52,10.47-17.76,7.87-12.95,15.89-24,21.62-31.82,32.48-25.28,66.22-54.64,99.27-87.61,0,0,.02-.02.03-.03-.41,1.39-.81,2.82-1.14,4.33-1.11,5.14-1.75,10.95-1.41,17.05.28,6.12,1.66,11.77,3.14,16.69,1.52,4.93,3.17,9.2,4.54,12.79,1.38,3.58,2.49,6.48,3.22,8.51.73,2.03,1.14,3.16,1.14,3.16,0,0-.06-1.2-.29-3.35-.22-2.16-.67-5.27-1.39-9.07-.71-3.8-1.69-8.27-2.66-13.17-.95-4.91-1.9-10.24-2.14-15.83-.31-5.6.12-10.97.89-15.79.78-4.68,1.89-8.83,3.03-12.31,15.56-15.93,30.2-32.09,43.59-48.46,7.67-9.4,15.01-18.8,21.81-28.3,3.47-4.7,6.69-9.5,9.94-14.2,1.62-2.36,3.13-4.76,4.69-7.12,1.54-2.37,3.1-4.7,4.54-7.09,11.27-18.1,20.93-36.03,28.67-53.49.03.17.05.34.08.52.74,4.08,2.27,8.77,4.41,13.67,2.12,4.91,4.81,10.07,7.4,15.44,5.23,10.63,8.5,20.87,10.36,28.52.94,3.82,1.54,6.98,1.93,9.17.38,2.2.59,3.42.59,3.42,0,0,.15-1.23.28-3.47.13-2.24.23-5.5-.04-9.54-.49-8.02-2.59-19.33-8.09-30.51-2.68-5.55-5.47-10.58-7.76-15.19-2.31-4.61-4.09-8.82-5.24-12.46-.63-1.95-1.08-3.73-1.41-5.3,7.26-17.02,12.9-33.42,17.08-48.72,3.33-12.15,5.75-23.6,7.51-34.15,1.64-5.95,3.31-12.35,4.87-19.2,2.9-13.1,5.41-27.93,4.6-43.72-.08-1.23-.15-2.46-.23-3.67-.13-1.21-.26-2.4-.39-3.57-.07-.6-.14-1.18-.2-1.77-.1-.64-.23-1.32-.45-2.03-.11-.36-.25-.72-.42-1.09-.16-.36-.47-.89-.77-1.27-.62-.83-1.47-1.42-2.37-1.79-1.57-.62-3.39-.39-4.77.57-.66.44-1.39,1.21-1.67,1.66-.38.52-.65,1.03-.9,1.54-.48,1.02-.78,2.02-.98,3.06-.1.51-.17,1.06-.2,1.58l-.07,1.27c-.2,3.39-.33,6.71-.43,9.96-.17,6.5-.21,12.71-.28,18.59-.1,11.76-.51,22.18-1.48,30.83-.95,8.66-2.68,24.22-3.05,25.44-.2.61-.19,1.93-.14,3.08-2.53,10.92-4.25,19.04-4.93,23.32-4.23,13.23-9.49,27.15-15.95,41.51-8,17.94-18.08,36.39-29.88,55.07-1.44,2.36-3,4.65-4.54,6.99-1.55,2.32-3.06,4.7-4.68,7.02-3.24,4.64-6.45,9.37-9.92,14.01-5.45,7.54-11.25,15.02-17.28,22.49-1.06-.06-3.58.88-7.22,2.01-1.12.34-2.34.72-3.67,1.04-1.31.38-2.75.65-4.24.98-3.01.56-6.32,1.01-9.83,1.19-3.51.13-6.86.07-9.93-.1-1.53-.14-3.01-.21-4.37-.42-1.38-.14-2.66-.36-3.83-.56-1.19-.16-2.23-.43-3.18-.61-.95-.17-1.76-.38-2.42-.56-1.34-.32-2.09-.51-2.09-.51,0,0,.62.46,1.72,1.29.56.42,1.26.91,2.12,1.4.86.5,1.83,1.12,2.97,1.62,1.13.55,2.39,1.13,3.8,1.61,1.39.55,2.93.94,4.56,1.37,3.28.73,6.99,1.17,10.88,1.02,3.89-.19,7.56-.86,10.8-1.77,1.61-.51,3.13-.98,4.5-1.59,1.39-.54,2.63-1.18,3.74-1.79.82-.46,1.54-.91,2.2-1.35-.33.4-.65.8-.97,1.2-11.03,13.4-22.91,26.68-35.45,39.83-.41-.18-1.95,1.21-3.92,4.08-3.59,3.72-7.21,7.42-10.9,11.11-22.1,22.04-44.43,42.57-66.43,61.41-5.62,3.37-12.53,7.36-20.48,10.32-4.97,1.88-9.83,3.12-14.38,3.76-4.57.63-8.97.89-12.64,1.58-3.68.63-6.58,1.68-8.43,2.62-.92.49-1.61.89-2.05,1.21-.45.3-.68.46-.68.46,0,0,.27-.09.78-.25.5-.18,1.27-.37,2.24-.61,1.97-.43,4.82-.74,8.37-.67,3.56.02,7.81.46,12.8.33,5.01-.15,10.53-1.18,15.91-3.22,0,0,.02,0,.03-.01-1.07.88-2.15,1.77-3.23,2.65-.74.46-1.88,1.37-3.33,2.69-5.53,4.47-11.03,8.84-16.47,13.07-17.48,13.62-34.65,25.81-50.94,36.91-4.11,2.72-8.14,5.4-12.1,8.03-3.94,2.66-7.95,5.05-11.81,7.52-7.69,4.96-15.28,9.37-22.48,13.67-28.91,17.01-53.4,28.86-70.51,36.56-8.5,4-15.29,6.66-19.83,8.63-4.56,1.93-6.95,2.94-6.95,2.94,0,0,2.42-.93,7.04-2.72Z"/>
        <path class="cls-28" d="M485.23,1077.38c-4.93,18.65-5.62,40.48,6.84,55.21,12.48,14.74,35.11,17.6,53.32,11.17,18.22-6.43,32.73-20.41,45.18-35.17,10.2-12.09,19.66-25.46,23.13-40.89,5.25-23.37-3.98-47.45-14.88-68.78-8.2-16.04-17.57-31.96-22.98-48.98-.79.71-1.57,1.43-2.33,2.14-37.72,35.49-75.05,75.23-88.29,125.3Z"/>
        <path class="cls-28" d="M628.35,769.86c29.78,5.01,60.1,10.04,90.02,5.95,6.92-.95,13.99-2.34,21.02-3.25-2.28-16.75-10.33-32.68-18.91-47.49-9.09-15.7-19.17-31.17-32.87-43.06s-31.56-19.96-49.65-18.55c-15.81,1.23-30.28,9.45-42.69,19.32-6.67,5.3-13.02,11.26-17.26,18.66-10.08,17.61-5.23,42.31,10.76,54.8,11.12,8.68,25.66,11.29,39.57,13.63Z"/>
        <path class="cls-28" d="M859.64,862.57c4.27-1.07,7.99-3.64,11.51-6.28,18.8-14.07,35.37-31.99,44.12-53.78,8.75-21.79,8.8-47.79-3.39-67.85-10.75-17.69-29.38-28.92-47.77-38.43-5.53-2.86-11.57-5.66-17.64-6.89-1.72,9.73-3.71,19.42-6,29.03-9.03,38-22.54,77.22-13.23,115.15,1.93,7.85,4.95,15.68,10.51,21.56,5.56,5.88,14.04,9.46,21.88,7.49Z"/>
        <path class="cls-28" d="M706.58,1008.13c16.18,16.1,42.86,22.24,62.84,11.21,16.72-9.23,25.95-27.92,31.04-46.33,3.99-14.44,6.04-29.99,1.56-44.28-2.82-9.01-8.09-17.03-13.59-24.7-10.89-15.17-23.25-29.72-39.02-39.73-11.67-7.4-25.49-12.07-39.18-12-6.76,30.93-22.82,60.96-24.87,92.89-1.46,22.78,5.04,46.83,21.22,62.93Z"/>
        <path class="cls-28" d="M566.14,911.71c13.61-2.89,27.63-6.95,41.4-8.28-.92-3.51-1.78-7.01-2.71-10.37-14.96-53.8-71.48-92.73-127.08-87.54-12.65,1.18-25.26,4.45-36.17,10.93-14.13,8.4-24.97,22.18-29.79,37.9-2.35,7.65-3.29,16-.85,23.63,4.88,15.27,21.34,23.35,36.64,28.14,38.18,11.95,79.44,13.89,118.58,5.59Z"/>
        <path class="cls-28" d="M366.01,1074.02c19.45.75,38.42-7.35,54.08-18.92,15.66-11.56,28.5-26.46,41.19-41.22,2.01-2.34,4.07-4.96,5.63-7.71-6.3-2.88-13.84-4.35-20.56-6.17-24.56-6.66-45.23-23.67-69.6-30.98-22.83-6.84-49.57-3.93-67.4,11.89-17.82,15.82-23.18,45.67-8.26,64.26,6.88,8.56,16.9,13.94,26.93,18.43,12.06,5.4,24.79,9.92,37.99,10.43Z"/>
        <g>
          <path class="cls-29" d="M565.77,1017.42c-3.57,23.87-9.52,47.21-17.81,69.88-.86,2.36,2.75,3.85,3.62,1.48,8.41-22.98,14.44-46.65,18.07-70.85.37-2.49-3.5-3.01-3.88-.52h0Z"/>
          <path class="cls-29" d="M435.01,1013.62c-27.69,2.09-55.01,6.82-81.68,14.58-2.42.7-.93,4.32,1.46,3.62,26.34-7.67,53.35-12.26,80.7-14.33,2.52-.19,2.02-4.07-.48-3.88h0Z"/>
          <path class="cls-29" d="M552.27,886.62c-34.41-8.98-69.46-14.95-104.9-17.88-2.5-.21-3.03,3.67-.52,3.88,35.44,2.92,70.49,8.9,104.9,17.88,2.43.64,2.92-3.25.52-3.88h0Z"/>
          <path class="cls-29" d="M709.78,763c-25.22-16.39-50.45-32.78-75.67-49.17-2.09-1.36-4.48,1.74-2.36,3.12,25.22,16.39,50.45,32.78,75.67,49.17,2.1,1.36,4.48-1.74,2.36-3.12h0Z"/>
          <path class="cls-29" d="M747.84,981.1c-10.59-27.59-18.27-56.09-22.96-85.27-.4-2.48-4.28-2-3.88.48,4.75,29.51,12.51,58.35,23.21,86.25.9,2.35,4.53.88,3.63-1.47h0Z"/>
          <path class="cls-29" d="M869.04,795.15c-9.77-26.09-15.42-53.29-16.92-81.11-.14-2.52-4.01-2.02-3.88.48,1.51,28.15,7.29,55.69,17.17,82.09.88,2.36,4.51.89,3.63-1.46h0Z"/>
        </g>
      </g>
      <g>
        <path class="cls-26" d="M1008.58,492.78c-.02.98.17,1.83.39,2.6.48,1.56,1.07,2.7,1.56,3.92,1.04,2.43,2.06,4.8,3.06,7.12.89,2.03,1.74,4.01,2.59,5.95.03.09.06.18.1.27,9.12,25.13,18.59,47.33,25.12,63.5,2.25,5.48,4.18,10.23,5.79,14.14.8,2.56,1.6,5.15,2.4,7.81,1.65,5.5,3.3,11.23,4.91,17.16.28,3.22.54,7.75.18,13.32-.34,5.74-1.48,12.53-3.53,19.87-2.06,7.34-5.08,15.21-8.85,23.21-3.81,8.01-7.81,15.5-11.41,22.38-3.61,6.87-6.79,13.13-9.25,18.49-2.47,5.36-4.28,9.78-5.41,12.88-1.14,3.1-1.69,4.83-1.69,4.83,0,0,.82-1.62,2.31-4.55,1.5-2.92,3.78-7.08,6.71-12.15,2.93-5.07,6.56-11.02,10.53-17.7,3.96-6.68,8.24-14.13,12.13-22.31,3.86-8.2,6.88-16.37,8.8-24.04,1.91-7.67,2.78-14.81,2.73-20.8,0-.34-.01-.66-.02-.99,5.48,21.96,10.28,46.42,12.99,72.93,2.02,19.53,2.85,40.15,1.94,61.42-.4,10.64-1.4,21.43-2.8,32.32-.67,5.45-1.6,10.9-2.52,16.39-1.07,5.46-2.09,10.96-3.43,16.43-2.06,8.99-4.53,17.78-7.25,26.41-5.53,7.8-16.44,24.09-31.16,41.28-5.18,6.07-10.25,11.74-14.93,16.84-4.72,5.07-9.04,9.58-12.75,13.3-1.83,1.89-3.55,3.53-5.03,5-1.48,1.48-2.78,2.73-3.85,3.74-2.12,2.05-3.29,3.19-3.29,3.19,0,0,1.33-.95,3.73-2.67,1.2-.86,2.66-1.93,4.31-3.22,1.66-1.29,3.57-2.73,5.59-4.43,4.11-3.33,8.85-7.5,13.91-12.34,5.03-4.87,10.37-10.44,15.63-16.59,5.23-6.17,9.93-12.29,14.01-17.98,4.04-5.72,7.49-11.01,10.19-15.56.12-.21.24-.41.36-.62-3.3,9.65-6.86,19.08-10.52,28.29-4.07,10.23-8.28,20.22-12.44,29.99-4.16,9.77-8.28,19.31-12.36,28.59-8.17,18.55-16.31,36.01-24.51,52.04-8.19,16.04-16.44,30.65-24.5,43.65-7.98,13.07-16.14,24.26-23.4,34.01-1.89,2.38-3.72,4.67-5.48,6.88-1.75,2.22-3.43,4.36-5.17,6.3-1.7,1.97-3.33,3.86-4.88,5.65-1.54,1.81-3.02,3.52-4.52,5.05-2.93,3.12-5.53,5.9-7.79,8.3-2.35,2.32-4.33,4.28-5.94,5.86-3.2,3.18-4.84,4.91-4.74,5.02.1.11,1.93-1.4,5.34-4.38,1.69-1.5,3.82-3.33,6.25-5.58,2.35-2.34,5.06-5.03,8.11-8.06,1.55-1.49,3.08-3.17,4.68-4.95,1.61-1.77,3.29-3.62,5.06-5.56,1.8-1.91,3.53-4.03,5.34-6.22,1.81-2.19,3.7-4.46,5.65-6.82,7.49-9.67,15.89-20.82,24.08-33.86,8.28-12.98,16.74-27.59,25.11-43.64,8.38-16.04,16.67-33.51,24.96-52.07,4.13-9.28,8.31-18.82,12.51-28.58,2.59-6.03,5.2-12.16,7.8-18.37-.79,4.51-1.47,9.37-2,14.5-1.06,9.99-1.53,21.01-1.81,32.53-.28,11.52-.38,22.44-.8,32.36-.41,9.91-1.27,18.79-2.28,26.22-1.1,7.41-2.38,13.37-3.45,17.44-1.1,4.07-1.71,6.33-1.71,6.33,0,0,.84-2.18,2.36-6.12,1.46-3.97,3.28-9.84,4.94-17.26,1.57-7.42,2.98-16.38,3.81-26.38.83-9.99,1.2-20.99,1.48-32.48.28-11.49.63-22.4,1.45-32.26.8-9.86,2.04-18.69,3.54-25.99.43-2.14.91-4.12,1.39-5.98,7.42-18.93,14.38-38.82,19.19-59.81,1.35-5.54,2.39-11.12,3.46-16.65.92-5.56,1.85-11.08,2.52-16.6,1.39-11.02,2.36-21.95,2.7-32.71.81-21.51-.19-42.32-2.42-61.99-3.85-34.3-11.24-65.07-19.12-91.38,1.11,1.97,2.35,4.14,3.72,6.51,6.31,11.01,15.18,26.11,23.67,43.4,4.2,8.66,7.9,17.04,11.01,24.77,1.45,3.9,2.94,7.58,4.07,11.11.58,1.76,1.2,3.44,1.71,5.09.49,1.65.96,3.24,1.41,4.75.97,3.01,1.59,5.8,2.23,8.24.31,1.22.6,2.36.86,3.4.22,1.06.42,2.02.6,2.89.74,3.48,1.15,5.4,1.15,5.4,0,0-.17-1.96-.48-5.51-.08-.89-.17-1.88-.27-2.96-.13-1.08-.32-2.24-.5-3.49-.39-2.5-.75-5.38-1.46-8.5-.33-1.57-.68-3.21-1.04-4.91-.39-1.7-.89-3.45-1.36-5.27-.9-3.66-2.18-7.47-3.47-11.51-2.77-8-6.28-16.64-10.54-25.42-8.61-17.52-17.97-32.48-24.96-43.1-3.6-5.43-6.58-9.73-8.7-12.6-.39-1.24-.78-2.48-1.16-3.7-.49-1.54-.99-3.06-1.48-4.56-1.41-4.54-3.43-10.59-6.01-17.8-5.81-16.5-14.84-38.9-23.9-63.88-2.93-8.12-5.6-16.04-7.26-20.87l-1.27-3.7-2.29,3.11c-.69.93-.99,2.1-1,3.07Z"/>
        <path class="cls-11" d="M974.16,1059.33c.09-.96.14-1.92.2-2.88-3.24,2.53-6.62,4.85-10.09,6.93-16.7,10.03-35.48,16.13-52.56,25.53-32.5,17.89-57.24,46.76-82.73,73.72-17.28,18.27-35.35,36.11-52.16,54.86.73-.62,1.44-1.26,2.19-1.87,15.67-12.96,33.58-22.89,51.38-32.74,26.29-14.55,52.57-29.11,78.86-43.66,17.12-9.48,34.69-19.33,46.99-34.55,10.36-12.82,16.36-28.92,17.94-45.33Z"/>
        <path class="cls-11" d="M1052.96,976.83c-1.29-4.25-2.67-8.48-4.05-12.7-13.17,17.64-21.32,40.15-24.62,62.1-5.89,39.22-.46,79.39-5.31,118.74-4.78,38.77-19.69,76.24-42.86,107.69-18.79,25.5-42.8,47.05-59.96,73.63,17.98-14.85,38.89-27.63,56.94-42.23,43.66-35.31,73.7-86.27,86.72-140.89,13.03-54.62,9.47-112.63-6.87-166.35Z"/>
        <path class="cls-11" d="M1094.24,721.54c-2.1,32.68-3.1,65.41-4.09,98.14-1.45,47.79-2.57,97.39,16.47,141.25,6.36,14.65,14.84,28.32,23.75,41.77-4.64-18.07-7.38-36.71-8.57-55.3-2.81-43.66,2.33-87.41,7.77-130.83,3.12-24.9,6.32-50.39.89-74.9-4.31-19.46-15.22-38.43-31.5-49.24-3.28,9.23-4.07,19.27-4.71,29.11Z"/>
        <path class="cls-11" d="M772.84,1036.66c-5.82,3.67-11.11,7.86-15.97,12.47,5.69-2.11,11.67-3.68,17.38-4.9,50.65-10.88,103.21-16.27,150.38-37.68,41.85-19,79.77-54.52,89.63-98.43-16.05-1.75-33.64,4.14-47.25,13.64-19.99,13.95-34.56,34.24-52.57,50.68-16.22,14.8-35.3,26.47-55.88,34.15-28.46,10.63-60.03,13.88-85.73,30.08Z"/>
        <path class="cls-11" d="M986.84,800.31c11.83-6.35,24.13-12.96,31.99-23.85,5.71-7.91,8.59-17.47,11.2-26.87,6.81-24.56,12.4-49.46,16.74-74.58-30.01,5.04-55.73,27.11-74.83,51.49-30.79,39.3-49.9,85.77-63.81,134.04,5.71-8.03,12.45-15.4,19.78-21.94,17.51-15.65,38.24-27.18,58.94-38.29Z"/>
        <g>
          <path class="cls-27" d="M968.76,1065.75c-8.79,12.82-19.07,24.24-30.85,34.38-1.91,1.65.88,4.39,2.78,2.75,12.03-10.35,22.49-22.1,31.46-35.18,1.42-2.08-1.98-4.01-3.39-1.95h0Z"/>
          <path class="cls-27" d="M995.22,920.85c-14.27,11.65-28.53,23.31-42.79,34.96-1.95,1.59.85,4.33,2.78,2.75,14.27-11.65,28.53-23.31,42.79-34.96,1.95-1.59-.84-4.33-2.78-2.75h0Z"/>
          <path class="cls-27" d="M1043.61,1113.83c1.47-18.1,1.99-36.22,1.56-54.37-.06-2.51-3.97-2.46-3.91.07.43,18.15-.09,36.27-1.56,54.37-.2,2.5,3.71,2.43,3.91-.07h0Z"/>
          <path class="cls-27" d="M1110.24,828.84c2.65-21.86,4.58-43.78,5.75-65.76.13-2.51-3.78-2.44-3.91.07-1.15,21.64-3.02,43.21-5.63,64.72-.3,2.46,3.48,3.47,3.79.98h0Z"/>
          <path class="cls-27" d="M1000.21,737.42c9.05-14.06,17.74-28.35,26.06-42.86,1.25-2.18-2.14-4.13-3.39-1.95-8.32,14.51-17.01,28.79-26.06,42.86-1.36,2.12,2.03,4.06,3.39,1.95h0Z"/>
        </g>
      </g>
      <g>
        <path class="cls-5" d="M1049.44,548.22c-2.39-20.74-6.59-41.7-13.55-61.43-12.81,5.32-26.84,8.27-41.58,8.27-36.47,0-68.71-18.02-88.36-45.63-10.78,7.05-21.49,14.22-32.47,20.91-15.01,9.15-31,17.46-47.65,23.01-12.63,2.47-26.21,1.86-39.15.65-.18-.02-.36-.04-.54-.05-3.69,2.12-7.25,4.27-10.58,6.44-18.01,11.72-37.93,35.77-48.12,54.69-12.87,23.89-13.43,54-1.46,78.35,11.97,24.35,36.15,42.3,62.93,46.71,10.37,1.71,21.32,1.37,31.04-2.47,2.26,10.86,6.64,21.26,13.09,30.31,2.71,3.8,5.81,7.43,9.76,9.91,5.61,3.53,12.5,4.46,19.12,4.24,21.04-.68,41.01-13.24,51.72-31.23,9.82,17.21,28.16,29.77,48.05,30.96,20.64,1.24,40.96-8.71,55.24-23.67,14.27-14.96,23.01-34.49,28.19-54.51,4.57-17.67,6.46-35.87,6.62-54.14.12-13.8-.72-27.63-2.3-41.32Z"/>
        <path class="cls-1" d="M913.1,314.86c-17.99-23.04-32.35-49.07-44.39-76.26-12.34-11.9-25.48-22.96-39.36-33.01-14.43-10.44-29.91-19.96-47.12-24.5s-36.51-3.61-51.62,5.8c-21.54,13.4-30.2,44.05-18.87,66.75,4.48,8.96,11.43,16.35,19.05,22.94-1.87-.22-3.74-.38-5.62-.47-13.75-.59-28.04,2.94-38.61,11.76-10.57,8.82-16.73,23.39-13.6,36.8,2.15,9.24,8.27,17.06,15.1,23.64,1.69,1.63,3.47,3.2,5.3,4.71-8.38,1.91-16.29,5-22.51,10.8-7.51,7.01-11.5,17.18-12.8,27.37-3.88,30.51,15.2,60.51,40.96,77.31,25.6,16.7,56.71,22.54,87.16,25.44.18.02.36.04.54.05,12.94,1.22,26.52,1.83,39.15-.65,16.65-5.56,32.64-13.87,47.65-23.01,10.98-6.69,21.69-13.87,32.47-20.91-12.61-17.72-20.06-39.38-20.06-62.79,0-27.54,10.28-52.66,27.19-71.78Z"/>
        <path class="cls-5" d="M1128,96.04c-9.3-24.69-32.74-44.54-59.09-45.83-19.74-.96-39.72,10.06-49.69,26.67-14.43-10.94-32.72-16.85-50.74-14.63-20.33,2.5-40.28,15.68-46.01,35.35-1.71,5.87-2.12,12.04-2.15,18.15,0,2.14.1,4.27.19,6.41-1.14-.81-2.27-1.64-3.44-2.42-18.06-12.17-42.85-20.9-60.81-8.57-11.1,7.63-16.35,21.72-16.53,35.19-.17,13.47,4.01,26.57,8.39,39.31,6.12,17.79,12.88,35.59,20.56,52.93,12.04,27.19,26.4,53.22,44.39,76.26,19.86-22.46,48.88-36.64,81.22-36.64,20.64,0,39.92,5.77,56.34,15.78,21.77-26.11,41.02-54.33,57.26-84.2,8.64-15.9,16.44-33.19,21.1-50.81,5.57-21.1,6.62-42.67-1.01-62.94Z"/>
        <path class="cls-1" d="M1292.02,277.7c4.64-2.46,9.3-5.07,12.73-9.03,6.1-7.04,7.25-17.06,7.04-26.37-.25-11.13-2.18-22.51-7.86-32.08-8.15-13.75-23.5-22.34-39.33-24.53-6.87-.95-13.8-.74-20.65.27,1.03-5.68,1.61-11.44,1.66-17.22.07-7.27-.9-15.19-6-20.37-5.78-5.87-14.92-6.39-23.16-6.54-17.05-.31-34.26-.6-50.96,2.83-12.86,2.64-25.24,7.55-36.49,14.33-4.66,17.62-12.46,34.91-21.1,50.81-16.24,29.87-35.48,58.09-57.26,84.2,29.74,18.12,50.07,50.16,51.94,87.07,42.25,2.74,84.47,5.62,126.49,1.27,6.18-.64,12.47-1.53,18.69-2.77,19.97-3.99,39.16-11.74,51.25-27.62,13.19-17.33,14.68-42.73,3.62-61.49-2.83-4.8-6.45-9.09-10.62-12.76Z"/>
        <path class="cls-31" d="M1292.06,441c-9.45-23.53-24.63-45.81-44.29-61.43-6.22,1.24-12.51,2.13-18.69,2.77-42.02,4.36-84.24,1.47-126.49-1.27.09,1.85.14,3.7.14,5.57,0,45.15-27.6,83.83-66.84,100.15,6.96,19.73,11.16,40.69,13.55,61.43,1.58,13.69,2.42,27.53,2.3,41.32,7.82,20.3,21.25,38.48,38.66,51.54,13.8,10.35,32.38,17.63,48.14,10.6,10.78-4.8,18.04-15.64,20.82-27.11.87-3.59,1.32-7.24,1.51-10.92,3.04,1.58,6.2,2.91,9.5,3.86,10.04,2.89,21.32,2.29,30.35-2.97,12.58-7.33,18.96-22.69,18.56-37.24-.13-4.61-.89-9.13-2.04-13.57,8.67,4.42,18.57,6.52,28.2,5.34,26.11-3.2,47.15-25.64,54.24-50.97,7.09-25.33,2.2-52.71-7.6-77.12Z"/>
        <path class="cls-2" d="M1102.6,381.07c-1.87-36.91-22.2-68.95-51.94-87.07-16.42-10.01-35.71-15.78-56.34-15.78-32.34,0-61.36,14.18-81.22,36.64-16.91,19.12-27.19,44.24-27.19,71.78,0,23.41,7.44,45.07,20.06,62.79,19.65,27.61,51.89,45.63,88.36,45.63,14.73,0,28.77-2.95,41.58-8.27,39.24-16.31,66.84-55,66.84-100.14,0-1.87-.05-3.73-.14-5.57Z"/>
        <path class="cls-19" d="M1085.22,381.96c-1.57-30.98-18.63-57.88-43.6-73.09-13.78-8.4-29.98-13.24-47.3-13.24-27.15,0-51.51,11.9-68.19,30.76-14.2,16.05-22.83,37.14-22.83,60.26,0,19.65,6.25,37.83,16.84,52.71,16.5,23.18,43.56,38.31,74.18,38.31,12.37,0,24.15-2.48,34.9-6.95,32.94-13.69,56.11-46.17,56.11-84.07,0-1.57-.04-3.13-.12-4.68Z"/>
        <path class="cls-10" d="M1056,383.47c-1.06-21.02-12.64-39.27-29.58-49.6-9.35-5.7-20.34-8.99-32.09-8.99-18.42,0-34.95,8.08-46.27,20.87-9.63,10.89-15.49,25.2-15.49,40.89,0,13.33,4.24,25.67,11.43,35.76,11.19,15.73,29.56,25.99,50.33,25.99,8.39,0,16.39-1.68,23.68-4.71,22.35-9.29,38.07-31.33,38.07-57.04,0-1.06-.03-2.12-.08-3.17Z"/>
        <path class="cls-17" d="M945.12,270.81s-2.82-4.97-6.75-13.34c-3.93-8.36-8.85-20.19-12.95-33.7-8.26-27.05-10.86-49.91-9.76-50.06,1.25-.21,5.71,22.08,13.88,48.81,4.06,13.37,7.92,25.43,10.83,34.15,2.93,8.73,4.75,14.14,4.75,14.14Z"/>
        <path class="cls-17" d="M990.74,228.12s-.09-6.41-.25-16.77c-.2-10.33-.49-24.59-.8-40.33-.71-31.46-2.94-56.93-1.7-57.08.57-.07,1.87,6.24,3.15,16.54,1.28,10.3,2.47,24.6,2.85,40.44.38,15.84-.42,30.18-1.35,40.51-.93,10.34-1.9,16.69-1.9,16.69Z"/>
        <path class="cls-17" d="M1054.09,224.54s.73-1.44,2.06-4.05c1.36-2.58,3.19-6.39,5.34-11.12,4.33-9.46,9.56-22.8,13.89-37.97,8.79-30.41,8.45-56.44,9.82-56.4.53-.01,1.3,6.47.91,17-.37,10.51-2.2,25.06-6.59,40.57-4.42,15.51-10.79,28.73-16.11,37.78-2.66,4.53-4.97,8.1-6.68,10.48-1.7,2.39-2.63,3.71-2.63,3.71Z"/>
        <path class="cls-17" d="M1117.32,281.02s2.92-5.64,8.21-14.43c5.29-8.79,13.06-20.68,22.69-33.04,9.63-12.35,19.04-22.99,26.16-30.37,7.12-7.39,11.9-11.59,12.31-11.2.91.87-16,19.65-35.08,44.21-9.55,12.27-18.14,23.44-24.3,31.6-6.17,8.16-10,13.22-10,13.22Z"/>
        <path class="cls-17" d="M1134.3,305.48s1.66-1,4.65-2.82c2.99-1.81,7.3-4.46,12.54-7.84,10.51-6.72,24.64-16.52,39.55-28.24,14.94-11.69,27.53-23.4,36.44-32.09,4.41-4.36,8.23-7.94,11.33-9.79,3.06-1.9,5.05-2.34,5.15-2.1.14.3-1.56,1.24-4.16,3.45-2.66,2.17-5.93,5.86-10.13,10.55-8.43,9.3-20.85,21.53-35.97,33.36-15.09,11.87-30.02,20.89-41.12,26.71-5.54,2.94-10.13,5.12-13.31,6.58-3.2,1.43-4.96,2.22-4.96,2.22Z"/>
        <path class="cls-17" d="M1132.34,364.95s23.19-11.18,53.22-21.24c30.01-10.09,54.93-16.3,55.25-15.18.34,1.17-23.97,9.2-53.88,19.26-29.91,10.03-54.59,17.16-54.59,17.16Z"/>
        <path class="cls-17" d="M1133.78,605.29s-1.23-1.39-3.46-3.92c-2.16-2.58-5.19-6.43-8.47-11.51-6.66-10.11-13.8-25.45-19.08-43.09-5.28-17.65-8.79-33.84-11.45-45.54-2.58-11.72-3.89-19.04-3.31-19.19.58-.15,2.93,6.91,6.26,18.44,3.42,11.5,7.41,27.61,12.62,45.04,5.21,17.42,11.18,32.75,16.82,43.26,2.77,5.27,5.32,9.39,7.15,12.19,1.88,2.78,2.92,4.32,2.92,4.32Z"/>
        <path class="cls-17" d="M1177.42,524.46s-4.01-2.85-10.14-7.89c-6.13-5.03-14.35-12.31-22.68-21.1-16.69-17.57-28.08-33.63-27.17-34.33.97-.77,13.76,13.96,30.3,31.37,8.21,8.78,15.64,16.73,21.03,22.49,5.35,5.83,8.66,9.45,8.66,9.45Z"/>
        <path class="cls-17" d="M1258.02,480.03s-5.86-4.86-15.33-12.7c-9.51-7.76-22.86-18.11-39.56-26.19-16.61-8.26-32.77-13.42-44.37-17.36-11.65-3.85-18.86-6.34-18.69-6.93.16-.55,7.64.9,19.56,4.01,11.87,3.21,28.39,7.95,45.42,16.42,17.18,8.32,30.3,19.88,39.07,28.44,4.43,4.3,7.86,7.91,10.24,10.4,2.35,2.51,3.66,3.9,3.66,3.9Z"/>
        <path class="cls-17" d="M960.04,640.45s.98-1.54,2.74-4.31c.91-1.37,1.98-3.06,3.1-5.1,1.14-2.03,2.54-4.27,3.8-6.9,2.74-5.14,5.57-11.48,8.32-18.64,2.63-7.21,5.11-15.26,7.04-23.88,1.84-8.64,2.87-17.01,3.39-24.65.4-7.65.35-14.57-.07-20.36-.77-11.6-2.22-18.73-1.52-18.89.45-.12,2.97,6.81,4.55,18.6.82,5.88,1.19,12.97,1,20.84-.31,7.86-1.25,16.49-3.14,25.39-1.98,8.88-4.8,17.09-7.88,24.32-3.19,7.19-6.57,13.41-9.82,18.36-1.52,2.54-3.17,4.66-4.53,6.57-1.34,1.92-2.62,3.49-3.69,4.75-2.12,2.52-3.29,3.92-3.29,3.92Z"/>
        <path class="cls-17" d="M881.15,622.63s1.26-5.62,3.91-14.54c2.64-8.92,6.76-21.12,12.43-34.14,11.33-26.08,23.56-45.68,24.54-45.11,1.09.61-9.37,20.98-20.59,46.83-11.19,25.91-20.28,46.96-20.28,46.96Z"/>
        <path class="cls-17" d="M888.15,504.03s-22.13,18.69-49.74,41.16c-13.79,11.28-26.27,21.48-35.3,28.88-4.46,3.79-8.52,6.4-10.11,8.91-1.78,2.52-.76,4.31-1.09,4.43-.1.06-.53-.24-.86-1.16-.33-.91-.29-2.47.49-4.09.74-1.62,2.12-3.32,3.85-4.94,1.69-1.6,3.61-3.43,5.73-5.44,8.56-7.98,20.72-18.66,34.59-29.92,27.74-22.57,52.46-37.82,52.46-37.82Z"/>
        <path class="cls-17" d="M842.78,419.57s-6.38,1.58-16.8,3.63c-10.42,2.01-24.95,4.51-41.28,5.02-8.16.21-15.95-.11-23-.81-7.04-.83-13.35-1.92-18.52-3.35-10.38-2.76-16.29-5.87-16.1-6.32.25-.66,6.47,1.41,16.77,3.35,5.14,1.02,11.33,1.78,18.22,2.38,6.91.47,14.52.67,22.52.46,16.01-.49,30.54-1.9,41.09-2.85,10.56-.93,17.11-1.5,17.11-1.5Z"/>
        <path class="cls-17" d="M874.72,365.3s-29.51-6.06-65.18-16.08c-17.83-5.01-33.91-9.78-45.5-13.44-11.58-3.66-18.67-6.21-18.51-6.78s7.53.94,19.32,3.85c11.79,2.91,28.01,7.22,45.85,12.23,35.69,10.03,64.01,20.23,64.01,20.23Z"/>
        <path class="cls-17" d="M897.95,344.68s-1.1-1.95-3.08-5.47c-.96-1.77-2.17-3.92-3.72-6.33-1.53-2.42-3.14-5.24-5.22-8.17-2-2.98-4.2-6.23-6.79-9.57-2.44-3.43-5.36-6.87-8.33-10.54-6.15-7.19-13.27-14.76-21.28-22.15-8.08-7.31-16.32-13.65-24.09-19.04-3.95-2.58-7.66-5.13-11.32-7.21-3.57-2.22-7.03-4.07-10.19-5.76-12.67-6.68-21.03-9.87-20.78-10.55.1-.28,2.28.26,6.16,1.47,1.95.59,4.3,1.38,6.97,2.49,2.67,1.09,5.77,2.23,9.02,3.86,3.3,1.54,6.89,3.26,10.61,5.39,3.8,1.98,7.65,4.45,11.74,7,8.04,5.31,16.53,11.69,24.79,19.16,8.19,7.54,15.27,15.47,21.21,23.04,2.87,3.87,5.64,7.5,7.92,11.13,2.41,3.53,4.42,6.97,6.21,10.13,1.88,3.1,3.27,6.09,4.59,8.65,1.34,2.55,2.34,4.81,3.13,6.68,1.59,3.72,2.48,5.77,2.48,5.77Z"/>
      </g>
      <g>
        <path class="cls-25" d="M1262.78,835.57c-4.72-16.55-26.33-25.68-41.48-17.51,1.73-6.31,3.47-12.74,3.23-19.28s-2.79-13.32-8.11-17.12c-6.63-4.73-15.7-3.8-23.56-1.64-8.67,2.38-17.12,6.1-23.85,12.07-2.55,2.26-4.83,4.87-6.7,7.73,2.18,10.1,1.65,20.69.55,31.01-.12,1.09-.28,2.17-.4,3.26,4.45-3.57,10.35-5.42,16.03-4.63,9.4,1.31,17.31,9.34,19.01,18.68.76,4.17.31,8.47-1.09,12.45,4.4,1.68,8.36,4.27,11.14,8.03,4.83,6.52,4.75,16.94-1.67,21.91.79-.09,1.58-.09,2.37,0,10.36-2.26,20.56-4.95,29.9-9.89,1.18-.62,2.34-1.31,3.49-2.03,14.72-9.31,25.86-26.49,21.15-43.03Z"/>
        <path class="cls-4" d="M1218.76,897.61c-2.15-3.83-6.2-6.67-10.52-7.09-.78-.08-1.58-.08-2.37,0,6.42-4.97,6.5-15.39,1.67-21.91-2.78-3.76-6.75-6.34-11.14-8.03-1.74,4.95-4.95,9.42-9.18,12.55-3.84,2.83-8.33,4.6-12.59,6.73-7.44,3.72-14.08,8.65-20.06,14.41-6.34,6.1-8.27,5.08-11.32-.11,3,10.65,12.21,19.41,22.68,23.69,4.11,1.68,8.38,2.78,12.73,3.49,8.95,1.45,18.28,1.17,27.38.5,3.59-.27,7.44-.69,10.18-3.03,1.82-1.56,2.93-3.8,3.65-6.09,1.56-4.95,1.44-10.58-1.1-15.11Z"/>
        <path class="cls-7" d="M1188.99,942.79c-2.76-7.46-6.24-14.64-10.34-21.45-4.35-.7-8.62-1.81-12.73-3.49-10.46-4.28-19.67-13.04-22.68-23.69-.86-1.47-1.8-3.24-2.96-5.31-1.11-1.98-1.92-3.96-2.53-5.93-12.14,10.66-21.81,24.15-27.84,39.14-.43,1.06-.83,2.15-1.22,3.24-3.66,10.3-5.31,21.64-1.43,31.76,1.65,4.29,4.42,8.35,8.51,10.44,6.89,3.5,15.66.3,20.89-5.38,5.23-5.68,7.75-13.28,10.13-20.63.44,5.55,2.99,10.85,6.87,14.83.43.44.88.87,1.34,1.28,1.76,1.55,3.73,2.85,5.88,3.81,7.8,3.47,17.45,2.32,24.23-2.88,2.56-1.97,4.8-4.64,5.28-7.83.4-2.68-.47-5.37-1.41-7.9Z"/>
        <path class="cls-20" d="M1197.49,848.14c-1.69-9.34-9.6-17.37-19.01-18.68-5.68-.79-11.58,1.06-16.03,4.63-2.92,2.34-5.22,5.41-6.39,8.99-3.29-9.29-14.94-14.59-24.11-10.98-1.39.55-2.77,1.31-3.62,2.54-1.07,1.55-1.15,3.56-1.13,5.45.04,4.19.35,8.38.92,12.53,1.39,1.78,2.62,3.67,3.65,5.66,4.23,8.14,3.38,16.33,5.98,24.64.61,1.97,1.42,3.95,2.53,5.93,1.16,2.07,2.1,3.85,2.96,5.31,3.05,5.2,4.97,6.22,11.32.11,5.98-5.76,12.63-10.68,20.06-14.41,4.26-2.13,8.75-3.9,12.59-6.73,4.23-3.12,7.44-7.59,9.18-12.55,1.4-3.99,1.85-8.29,1.09-12.45Z"/>
        <path class="cls-25" d="M1146.8,941.49c-2.38,7.35-4.89,14.95-10.13,20.63-5.23,5.68-14.01,8.88-20.89,5.38-4.09-2.08-6.86-6.15-8.51-10.44-3.88-10.11-2.23-21.46,1.43-31.76-11.69.81-23.61-1.66-33.87-7.34-8.33-4.61-16.08-12.29-16.41-21.8-.3-8.7,5.96-16.65,13.75-20.54,4.2-2.09,8.77-3.18,13.44-3.69-9.61-4.09-19.93-6.4-30.32-6.69-7.09-.2-14.28.54-20.95,3.04-16.62,6.23-28.39,23.97-28.48,42.25-.09,18.27,11.24,35.94,27.37,43.41,16.13,7.47,36.16,4.59,50-6.78-11.23,11.14-18.56,26.92-18.05,43,.51,16.09,9.53,32.04,23.68,38.78,6.96,3.31,14.74,4.36,22.4,4.54,9.45.22,19.29-.93,27.36-6.02,13.49-8.49,19.09-26.1,19.4-42.42.15-8.07-.73-16.04-2.28-23.9-.7-1.6-1.4-3.21-2.08-4.82-3.88-3.98-6.43-9.28-6.87-14.82Z"/>
        <path class="cls-16" d="M1131.77,858.28c-1.03-1.99-2.26-3.89-3.65-5.66-5.88-7.53-14.69-12.87-24.23-13.82-5.04-.5-10.47.23-14.39,3.43-4.76,3.88-6.28,10.94-4.35,16.77s6.87,10.37,12.54,12.71c-2.59-.14-5.2-.17-7.81-.08-1.43.05-2.85.15-4.27.3-4.68.51-9.24,1.59-13.44,3.69-7.79,3.89-14.06,11.83-13.75,20.54.33,9.51,8.08,17.19,16.41,21.8,10.26,5.68,22.18,8.15,33.87,7.34.39-1.09.79-2.17,1.22-3.24,6.03-14.99,15.7-28.48,27.84-39.14-2.6-8.32-1.75-16.5-5.98-24.64Z"/>
        <path class="cls-12" d="M1281.64,909.88c-4.16-7.41-10.59-13.3-17.45-18.32-7.01-5.13-14.6-9.47-22.56-12.95-1.14.72-2.31,1.41-3.49,2.03-9.34,4.94-19.53,7.63-29.9,9.89,4.32.42,8.36,3.25,10.52,7.09,2.54,4.53,2.67,10.16,1.1,15.11-.72,2.29-1.83,4.53-3.66,6.09-2.74,2.34-6.58,2.76-10.18,3.03-9.1.67-18.43.95-27.38-.5,4.1,6.81,7.58,14,10.34,21.45.94,2.54,1.81,5.23,1.41,7.9-.48,3.19-2.72,5.86-5.28,7.83-6.77,5.2-16.43,6.34-24.23,2.88-2.15-.95-4.12-2.26-5.88-3.81-.46-.41-.91-.84-1.34-1.28.68,1.61,1.38,3.22,2.08,4.82,1.5,3.43,3.03,6.85,4.63,10.23,8.05,17.02,19.8,35.25,38.38,38.29,6.53,1.07,13.2.07,19.72-1.06,7.01-1.22,14.49-2.87,19.31-8.09,4.21-4.55,5.6-11.05,5.75-17.24.33-13.97-5.42-28.41-16.61-36.78,10.1,4.52,21.17,7.76,32.15,6.43s21.82-8.06,25.53-18.49c2.86-8.01,1.19-17.14-2.97-24.55Z"/>
        <path class="cls-21" d="M1162.3,799.82c-.28-1.32-.61-2.63-.99-3.93-3.3-11.26-11.01-21.78-22.04-25.81-9.18-3.36-20.02-1.7-27.77,4.25-7.75,5.95-12.17,15.99-11.31,25.72-8.79-5.66-18.92-9.94-29.37-9.54-10.45.41-21.13,6.38-24.77,16.18-2.5,6.73-1.49,14.24.23,21.22,2.02,8.22,5.04,16.33,10.14,23.09,8.14,10.77,20.29,16.75,33.47,20.63,2.61-.1,5.22-.06,7.81.08-5.68-2.34-10.61-6.88-12.54-12.71-1.93-5.83-.41-12.88,4.35-16.77,3.92-3.2,9.35-3.92,14.39-3.43,9.54.94,18.34,6.29,24.23,13.82-.57-4.15-.88-8.34-.92-12.53-.02-1.89.06-3.9,1.13-5.45.85-1.23,2.23-1.99,3.62-2.54,9.17-3.61,20.82,1.69,24.11,10.98,1.17-3.57,3.47-6.65,6.39-8.99.13-1.09.29-2.17.4-3.26,1.1-10.32,1.63-20.91-.55-31.01Z"/>
        <g>
          <path class="cls-15" d="M1141.89,861c.26,9.16.31,18.33.16,27.49-.02,1.19,1.82,1.19,1.84,0,.15-9.17.1-18.33-.16-27.49-.03-1.18-1.88-1.19-1.84,0h0Z"/>
          <path class="cls-15" d="M1148.28,863.69c-1.07,9.03-3.95,17.74-3.09,26.91.11,1.17,1.95,1.18,1.84,0-.86-9.15,2.02-17.91,3.09-26.91.14-1.18-1.7-1.17-1.84,0h0Z"/>
          <path class="cls-15" d="M1151.63,869.26c-1.72,7.12-3.93,14.06-6.64,20.86-.44,1.1,1.34,1.58,1.78.49,2.71-6.8,4.92-13.74,6.64-20.86.28-1.15-1.5-1.64-1.78-.49h0Z"/>
          <path class="cls-15" d="M1166.14,858.93c-5.3,11.93-11.62,23.27-18.98,34.05-.67.98.93,1.9,1.59.93,7.36-10.78,13.68-22.12,18.98-34.05.48-1.07-1.11-2.01-1.59-.93h0Z"/>
          <path class="cls-15" d="M1162.55,876.69c-3.84,5.85-8.04,11.42-12.62,16.72-.77.89.53,2.2,1.3,1.3,4.68-5.41,8.98-11.1,12.91-17.09.65-.99-.94-1.92-1.59-.93h0Z"/>
          <path class="cls-15" d="M1152.39,895.1c7.27-1.67,14.61-2.69,22.06-3.07,1.18-.06,1.19-1.9,0-1.84-7.62.39-15.11,1.43-22.55,3.14-1.15.27-.67,2.04.49,1.78h0Z"/>
          <path class="cls-15" d="M1151.2,898.06c5.94.37,11.89-1.21,17.77.15,1.15.27,1.65-1.51.49-1.78-6.07-1.4-12.13.16-18.26-.22-1.19-.07-1.18,1.77,0,1.84h0Z"/>
          <path class="cls-15" d="M1150.53,901.42c7.6,4.58,16.65,4.47,24.9,7.23,1.13.38,1.61-1.4.49-1.78-8.09-2.71-17.01-2.55-24.46-7.04-1.02-.61-1.94.98-.93,1.59h0Z"/>
          <path class="cls-15" d="M1150.31,902.37c.09,2.08,2.47,3.34,3.93,4.53,2.11,1.71,4.27,3.37,6.46,4.97.96.7,1.88-.9.93-1.59-1.77-1.3-3.53-2.64-5.24-4.01-.75-.6-1.49-1.21-2.23-1.82-.55-.46-1.96-1.27-2-2.08-.05-1.18-1.89-1.19-1.84,0h0Z"/>
          <path class="cls-15" d="M1146.01,905.4c3.19,8.91,5.64,18,7.35,27.32.21,1.16,1.99.67,1.78-.49-1.71-9.31-4.15-18.4-7.35-27.32-.4-1.11-2.18-.63-1.78.49h0Z"/>
          <path class="cls-15" d="M1143.59,905.66c.94,4.77,1.35,9.56,1.25,14.42-.02,1.19,1.82,1.19,1.84,0,.1-5.03-.35-9.98-1.32-14.91-.23-1.16-2-.67-1.78.49h0Z"/>
          <path class="cls-15" d="M1121.14,917.26c3.79-8.69,9.06-16.42,15.79-23.11.84-.84-.46-2.14-1.3-1.3-6.83,6.79-12.22,14.64-16.07,23.48-.47,1.08,1.12,2.02,1.59.93h0Z"/>
          <path class="cls-15" d="M1125.05,925.15c3.35-8.94,7.78-17.25,13.29-25.04.69-.97-.91-1.89-1.59-.93-5.59,7.91-10.07,16.41-13.47,25.48-.42,1.11,1.36,1.59,1.78.49h0Z"/>
          <path class="cls-15" d="M1132.86,917.12c2.71-7.21,6.6-13.68,11.69-19.46.78-.89-.52-2.2-1.3-1.3-5.29,6.01-9.34,12.78-12.16,20.27-.42,1.11,1.36,1.59,1.78.49h0Z"/>
          <path class="cls-15" d="M1136.22,932.59c1.33-10.33,4.22-20.18,8.67-29.6.5-1.07-1.08-2-1.59-.93-4.59,9.71-7.55,19.87-8.92,30.53-.15,1.17,1.69,1.16,1.84,0h0Z"/>
          <path class="cls-15" d="M1113.09,900.51c9.15-4.22,18.75-6.32,28.82-6.34,1.19,0,1.19-1.84,0-1.84-10.39.02-20.32,2.23-29.75,6.59-1.08.5-.14,2.08.93,1.59h0Z"/>
          <path class="cls-15" d="M1104.92,888.54c12.61-.74,24.72,1.44,36.25,6.6,1.07.48,2.01-1.11.93-1.59-11.83-5.3-24.24-7.62-37.18-6.86-1.18.07-1.19,1.91,0,1.84h0Z"/>
          <path class="cls-15" d="M1109.71,878.13c5.77,1.68,11.6,3.36,16.85,6.36,5.25,3.01,9.31,7.37,13.32,11.82.8.88,2.09-.42,1.3-1.3-4.12-4.57-8.31-9.02-13.69-12.11-5.38-3.08-11.38-4.83-17.29-6.55-1.14-.33-1.63,1.44-.49,1.78h0Z"/>
          <path class="cls-15" d="M1121.11,867.8c7.51,6.54,12.98,14.69,16.15,24.13.37,1.12,2.15.64,1.78-.49-3.26-9.74-8.87-18.2-16.62-24.95-.89-.77-2.2.52-1.3,1.3h0Z"/>
          <path class="cls-15" d="M1122.76,876.12c5.58,4.57,12.57,9.45,15.95,15.98.55,1.05,2.14.12,1.59-.93-3.48-6.73-10.51-11.66-16.24-16.35-.91-.74-2.22.55-1.3,1.3h0Z"/>
          <path class="cls-15" d="M1132.37,873.8c2.69,5.23,4.63,10.68,5.88,16.42.25,1.16,2.03.67,1.78-.49-1.28-5.89-3.31-11.5-6.06-16.86-.54-1.05-2.13-.12-1.59.93h0Z"/>
          <path class="cls-15" d="M1117.16,891.47c5.58.57,11.15,1.26,16.7,2.07,1.16.17,1.66-1.61.49-1.78-5.72-.83-11.45-1.55-17.19-2.14-1.18-.12-1.17,1.72,0,1.84h0Z"/>
          <path class="cls-15" d="M1152.16,893.1c5.19-2.7,10.53-5.02,16.04-6.96,1.11-.39.63-2.17-.49-1.78-5.66,2-11.15,4.38-16.48,7.14-1.05.55-.12,2.14.93,1.59h0Z"/>
          <path class="cls-15" d="M1122.24,903.65c2.86-2.83,6.2-4.96,9.98-6.34,1.1-.4.63-2.18-.49-1.78-4.08,1.49-7.7,3.76-10.79,6.81-.84.83.46,2.14,1.3,1.3h0Z"/>
          <path class="cls-15" d="M1148.17,904.06c1.21,2.66,2.69,5.15,4.45,7.48.71.93,2.31.02,1.59-.93-1.76-2.33-3.25-4.82-4.45-7.48-.49-1.08-2.08-.14-1.59.93h0Z"/>
          <path class="cls-15" d="M1137.77,875.47c.39,3.38.94,6.72,1.67,10.04.25,1.16,2.03.67,1.78-.49-.69-3.16-1.23-6.34-1.6-9.55-.13-1.16-1.98-1.18-1.84,0h0Z"/>
        </g>
        <circle class="cls-12" cx="1142.43" cy="895.21" r="11.13"/>
      </g>
      <g>
        <path class="cls-3" d="M388.03,1058.83c-.38-.26-.74-.52-1.12-.78-.13.55-.25,1.09-.37,1.64.49-.3.99-.59,1.49-.86Z"/>
        <path class="cls-8" d="M369.93,1073.45c.73.18,1.46.35,2.19.54,3.72-5.76,8.68-10.84,14.42-14.3.12-.55.25-1.09.37-1.64-3.12-2.16-6.19-4.38-9.19-6.67-3.08-2.36-6.09-4.79-9-7.3-15.91-13.71-28.92-29.77-35.78-49.62-5.63-16.28-6.51-33.75-8.2-50.9-2-20.23-5.2-40.41-6.43-60.68-25.07-.39-50.06-8.99-69.06-25.42-20.79-17.98-34.01-43.23-49.85-65.79,5.52,20.31,3.42,43.75-.56,64.96-5.98,31.9-14.47,66-1.51,95.75,2.78,6.37,6.46,12.27,10.61,17.86,11.04,2.77,21.9,6.74,32.26,11.19,43.01,18.47,82.32,45.34,115.44,78.4,4.32,4.31,8.55,8.7,12.65,13.21.55.13,1.09.27,1.63.41Z"/>
        <path class="cls-9" d="M365.44,1391.34c1.77-13.31,9.8-24.82,17.6-35.75,20.05-28.11,40.11-56.21,60.16-84.32,7.52-10.54,15.12-21.24,19.55-33.4,3.59-9.86,4.91-20.06,4.64-30.38-32.93-12.93-61.78-33.55-78.78-64.16-11.27-20.29-16.23-42.92-18.38-66.16-.29.52-.58,1.04-.84,1.57-6.43,12.83-8.15,27.41-10.46,41.57-5.32,32.54-14.31,64.48-26.75,95.01-2.76,6.77-5.7,13.54-8.59,20.34-9.86,23.16-19.17,46.65-18.72,71.55.51,28.4,14.02,55.36,32.43,77,9.22,10.84,19.62,20.52,30.61,29.56-2.33-7.3-3.47-14.79-2.45-22.43Z"/>
        <path class="cls-23" d="M188.72,1239.13c29.35-.07,58,10,87.35,10.11,16.41.06,34.08-4.51,47.52-13.58,2.9-6.8,5.84-13.57,8.59-20.34,12.44-30.53,21.44-62.47,26.75-95.01,2.31-14.16,4.03-28.74,10.46-41.57.27-.53.56-1.05.84-1.57.22-.41.44-.81.68-1.21.39-.66.78-1.32,1.2-1.97-.73-.19-1.46-.36-2.19-.54-.54-.14-1.09-.28-1.63-.41-45.05-10.71-94.5-3.34-133.77,21.38-10.89,6.86-20.81,14.78-30.06,23.45-42.37,39.69-70.49,95.16-111.39,137.63-9.44,9.8-19.7,19.07-26.73,30.73-.81,1.34-1.56,2.72-2.27,4.1,37.85-26.91,78.9-51.1,124.64-51.21Z"/>
        <path class="cls-9" d="M53.99,1117.51c13.6-4.75,26.48-11.42,40.2-15.79,36.64-11.67,78.4-5.21,110.27,16.14,9.25-8.66,19.17-16.59,30.06-23.45,39.27-24.73,88.72-32.09,133.77-21.38-4.1-4.51-8.33-8.9-12.65-13.21-33.12-33.06-72.44-59.93-115.44-78.4-10.36-4.45-21.21-8.42-32.26-11.19-18.57-4.66-37.66-5.92-55.77-.29-37.9,11.78-60.45,49.46-80.9,83.47-17.75,29.52-40.04,60.81-71.29,72.33,18.31.49,36.69-2.19,53.99-8.24Z"/>
        <path class="cls-23" d="M389.22,1048.26c6.4-26.36,14.27-52.37,26.57-76.48,10.68-20.95,25.05-40.5,42.94-55.58.18-17.85-2.57-35.72-8.38-52.61-9.09-26.42-25.23-50.7-28.99-78.39-3-22.09,2.17-44.35,4.72-66.5,1.02-8.86,1.6-17.78,1.78-26.7-.44,1.85-.78,3.7-1.05,5.4-3.26,20.89-19.22,37.44-36.06,50.22-16.84,12.77-35.64,23.56-49.02,39.92-17.04,20.85-23.38,48.67-23.89,75.6-.12,6.59.07,13.17.47,19.75,1.23,20.26,4.42,40.44,6.43,60.68,1.69,17.15,2.58,34.61,8.2,50.9,6.86,19.85,19.87,35.92,35.78,49.62,2.91,2.51,5.91,4.94,9,7.3,2.99,2.29,6.07,4.51,9.19,6.67.75-3.27,1.53-6.53,2.32-9.79Z"/>
        <path class="cls-8" d="M539.98,1224.13c73.8,6.9,152.88-3.32,219.34-36.31-26.28,11.59-57.96,8.58-84.62-2.93-29.4-12.7-53.85-34.44-77.08-56.49-22.35-21.21-44.42-43.27-70.75-59.2-1.03-.63-2.06-1.26-3.11-1.87-40.18-23.26-89.44-29.75-134.54-19.07-.79,3.26-1.57,6.53-2.32,9.79.37.26.74.52,1.12.78-.5.27-1,.56-1.49.86-5.74,3.47-10.69,8.54-14.42,14.3-.42.65-.81,1.31-1.2,1.97-.23.4-.46.81-.68,1.21,2.15,23.24,7.11,45.87,18.38,66.16,17,30.61,45.85,51.23,78.78,64.16,23.08,9.06,48.16,14.35,72.58,16.63Z"/>
        <path class="cls-9" d="M523.76,1067.33c1.05.61,2.08,1.24,3.11,1.87,9.02-3.09,17.59-7.45,26.1-11.8,18.03-9.21,36.32-18.59,51.15-32.36,21.91-20.35,35.87-49.84,62.35-63.74,21.02-11.03,46.96-10.4,67.17-22.84,2.56-1.58,5.1-3.38,7.66-5.17-29.31,8.45-62.32.16-91.14-11.72-32.97-13.6-65.06-31.87-100.59-34.94-21.45-1.85-43.37,2.1-62.81,11.34-10.15,4.83-19.5,11.03-28.05,18.24-17.89,15.08-32.25,34.63-42.94,55.58-12.29,24.11-20.17,50.12-26.57,76.48,45.1-10.68,94.36-4.19,134.54,19.07Z"/>
        <path class="cls-31" d="M389.67,1086.12l-1.36,13.59c-.6,6.04-8.29,8.22-11.98,3.4l-8.29-10.85c-2.12-2.77-6.02-3.45-8.95-1.56l-11.47,7.41c-5.1,3.29-11.6-1.36-10.12-7.25l3.32-13.25c.85-3.39-1.05-6.86-4.36-7.97l-12.95-4.35c-5.75-1.93-6.17-9.91-.65-12.43l12.43-5.67c3.18-1.45,4.7-5.1,3.51-8.38l-4.67-12.84c-2.08-5.7,3.9-11,9.32-8.26l12.18,6.18c3.11,1.58,6.92.5,8.74-2.48l7.12-11.66c3.17-5.18,11.04-3.81,12.26,2.14l2.76,13.38c.71,3.42,3.92,5.72,7.39,5.29l13.55-1.7c6.02-.76,9.86,6.25,5.97,10.92l-8.74,10.5c-2.23,2.68-2.03,6.63.47,9.07l9.78,9.54c4.34,4.24,1.26,11.61-4.81,11.48l-13.66-.28c-3.49-.07-6.45,2.55-6.79,6.02Z"/>
        <path class="cls-6" d="M438.06,1082.9c.07-.23.13-.47.2-.7.77-2.74-.9-6.05-3.77-6.72-2.88-.67-5.89.83-6.72,3.77-.07.23-.13.47-.2.7-.77,2.74.9,6.05,3.77,6.72,2.88.67,5.89-.83,6.72-3.77h0Z"/>
        <path class="cls-6" d="M423.33,1021.76c-.07.23-.13.47-.2.7-.77,2.74.9,6.05,3.77,6.72,2.88.67,5.89-.83,6.72-3.77.07-.23.13-.47.2-.7.77-2.74-.9-6.05-3.77-6.72-2.88-.67-5.89.83-6.72,3.77h0Z"/>
        <path class="cls-6" d="M375.4,990.52c-1.9,6.75,8.58,9.72,10.49,2.96,1.9-6.75-8.59-9.72-10.49-2.96h0Z"/>
        <path class="cls-6" d="M322.66,1006.23c-1.9,6.75,8.58,9.72,10.49,2.96,1.9-6.75-8.58-9.72-10.49-2.96h0Z"/>
        <path class="cls-6" d="M307,1054.47c-.12-.03-.23-.07-.35-.1-2.74-.77-6.05.9-6.72,3.77-.67,2.88.83,5.89,3.77,6.72.12.03.23.07.35.1,2.74.77,6.05-.9,6.72-3.77.67-2.88-.83-5.9-3.77-6.72h0Z"/>
        <path class="cls-6" d="M326.03,1108.14c-1.9,6.75,8.58,9.72,10.49,2.96,1.9-6.75-8.58-9.72-10.49-2.96h0Z"/>
        <path class="cls-6" d="M380.13,1119.42c-.03.12-.07.23-.1.35-.77,2.74.9,6.05,3.77,6.72,2.88.67,5.89-.83,6.72-3.77.03-.12.07-.23.1-.35.77-2.74-.9-6.05-3.77-6.72-2.88-.67-5.9.83-6.72,3.77h0Z"/>
        <g>
          <path class="cls-13" d="M555.33,1135.55s-4.32-2.51-11.31-6.56c-7.01-3.99-16.78-9.31-27.77-14.75-10.98-5.47-21.19-9.88-28.63-12.97-1.86-.77-3.55-1.47-5.02-2.08-1.41-.64-2.67-.87-3.71-.86-2.2-.04-2.42,1.51-2.61,1.42-.06,0-.19-.36.08-.99.27-.65,1.2-1.33,2.43-1.5,1.21-.2,2.76-.07,4.34.48,1.53.49,3.28,1.04,5.19,1.71,7.66,2.64,18.09,6.8,29.17,12.32,11.1,5.49,20.61,11.47,27.28,16.06,6.67,4.59,10.57,7.73,10.57,7.73Z"/>
          <path class="cls-13" d="M460.02,1152.41s4.58,2.04,11.98,5.33c7.4,3.29,17.63,7.75,28.96,12.59,11.34,4.83,21.7,8.96,29.22,11.93,7.52,2.97,12.17,4.85,12.04,5.23-.12.35-4.99-.88-12.7-3.39-7.71-2.51-18.25-6.37-29.64-11.22-11.39-4.86-21.39-9.97-28.49-13.89-7.11-3.91-11.37-6.57-11.37-6.57Z"/>
          <path class="cls-13" d="M441.19,979.93s1.79-1.7,5.02-4.77c.81-.77,1.71-1.62,2.7-2.55,1.02-.9,2.18-1.81,3.4-2.82,2.47-1.98,5.19-4.4,8.51-6.62,1.64-1.15,3.35-2.36,5.13-3.62,1.8-1.24,3.79-2.35,5.78-3.6,3.96-2.56,8.48-4.79,13.19-7.23,9.57-4.55,20.5-8.76,32.37-11.82,11.91-2.92,23.52-4.42,34.11-5,5.3-.1,10.34-.31,15.05.04,2.35.14,4.63.16,6.81.39,2.17.25,4.26.49,6.25.72,3.99.36,7.53,1.19,10.66,1.76,1.56.31,3.02.56,4.34.88,1.31.36,2.51.69,3.59.99,4.31,1.21,6.66,1.96,6.6,2.14-.05.18-2.49-.22-6.85-1.09-1.09-.22-2.3-.47-3.62-.75-1.33-.24-2.79-.41-4.34-.65-3.12-.42-6.64-1.11-10.6-1.34-1.97-.17-4.04-.35-6.19-.54-2.15-.17-4.41-.14-6.73-.23-4.65-.25-9.62.04-14.84.21-10.43.71-21.84,2.26-33.57,5.14-11.69,3.01-22.49,6.99-32.05,11.25-4.7,2.29-9.23,4.36-13.23,6.76-2.02,1.16-4.03,2.18-5.85,3.35-1.82,1.17-3.56,2.3-5.23,3.38-3.4,2.06-6.19,4.32-8.76,6.17-1.26.95-2.47,1.79-3.53,2.63-1.03.87-1.98,1.67-2.83,2.39-3.41,2.86-5.3,4.44-5.3,4.44Z"/>
          <path class="cls-13" d="M512.36,1014.73s.97-.29,2.71-.81c1.75-.5,4.27-1.27,7.36-2.25,6.19-1.95,14.64-4.87,23.79-8.53,18.34-7.28,32.07-15.69,32.51-14.97.19.3-3.01,2.79-8.59,6.2-5.58,3.41-13.61,7.62-22.89,11.34-9.29,3.71-18.07,6.01-24.47,7.3-3.2.65-5.81,1.09-7.62,1.33-1.81.25-2.81.38-2.81.38Z"/>
          <path class="cls-13" d="M356.73,970.36s-.2-.48-.58-1.4c-.36-.93-.98-2.26-1.6-4.04-1.34-3.53-3-8.76-4.42-15.39-2.95-13.22-4.02-32.26-.84-52.75,3.17-20.48,8.9-38.36,13.21-51.12,2.19-6.39,4.06-11.51,5.42-15.03,1.36-3.52,2.2-5.43,2.38-5.37.18.06-.31,2.09-1.36,5.72-1.08,3.61-2.65,8.83-4.58,15.28-3.83,12.89-9.22,30.73-12.34,50.94-3.13,20.2-2.77,38.86-.54,52.08,1.07,6.62,2.39,11.91,3.47,15.51.49,1.82,1.02,3.18,1.3,4.14.3.94.47,1.44.47,1.44Z"/>
          <path class="cls-13" d="M412.31,932.18s.11-1.08.3-3.02c.22-1.93.45-4.74.69-8.21.48-6.93.74-16.49.27-27.02-.9-21.11-5.62-37.75-4.78-37.96.33-.1,1.94,3.94,3.65,10.74,1.72,6.79,3.39,16.39,3.89,27.1.49,10.72-.48,20.41-1.66,27.31-.58,3.45-1.16,6.22-1.63,8.12-.47,1.9-.72,2.94-.72,2.94Z"/>
          <path class="cls-13" d="M270.97,976.87s-3.05-2.31-7.65-6.43c-4.6-4.12-10.69-10.15-16.66-17.46-11.98-14.65-19.11-28.3-18.49-28.64.71-.42,8.81,12.44,20.63,26.89,5.9,7.23,11.41,13.65,15.5,18.24,4.11,4.57,6.66,7.41,6.66,7.41Z"/>
          <path class="cls-13" d="M140.2,1024.28s.26-.28.77-.8c.52-.51,1.21-1.33,2.24-2.25,1.99-1.91,5.08-4.49,9.29-7.14,8.32-5.33,21.79-10.37,37.18-10,15.36.38,28.6,5.5,37.21,10.32,4.34,2.41,7.66,4.68,9.84,6.39,2.18,1.7,3.28,2.78,3.18,2.92-.28.39-5.17-3.28-13.91-7.57-8.68-4.28-21.59-8.93-36.37-9.29-14.77-.35-27.91,3.8-36.42,8.43-4.29,2.29-7.56,4.56-9.7,6.26-1.11.81-1.88,1.55-2.44,2-.55.47-.85.71-.85.71Z"/>
          <path class="cls-13" d="M101.52,1078.31s1.01-.78,2.84-2.17c.91-.71,2.06-1.53,3.41-2.46,1.33-.95,2.89-1.99,4.64-3.08,6.96-4.42,17.15-9.83,29.23-13.66,12.05-3.89,23.45-5.63,31.69-6.19,4.13-.21,7.47-.41,9.84-.06,2.36.32,3.53,1.04,3.46,1.2-.07.2-1.29-.14-3.53-.12-2.22-.02-5.52.48-9.58.93-8.09,1.05-19.21,3.06-31.04,6.88-11.84,3.76-22.14,8.44-29.39,12.23-1.83.93-3.45,1.81-4.87,2.62-1.43.79-2.65,1.47-3.63,2.07-1.98,1.17-3.08,1.82-3.08,1.82Z"/>
          <path class="cls-13" d="M214.68,1181.48s.68-1.32,1.92-3.7c.61-1.2,1.38-2.65,2.4-4.27,1-1.63,2.07-3.54,3.48-5.49,1.35-2,2.86-4.17,4.65-6.38,1.7-2.28,3.74-4.53,5.86-6.93,4.36-4.67,9.52-9.5,15.41-13.98,5.93-4.42,11.97-8.08,17.64-11.04,2.88-1.4,5.59-2.77,8.25-3.8,2.6-1.14,5.11-2.02,7.4-2.79,2.27-.84,4.4-1.35,6.24-1.88,1.84-.54,3.46-.88,4.79-1.11,2.65-.5,4.13-.69,4.17-.51.11.46-5.66,1.87-14.53,5.33-2.21.88-4.63,1.84-7.15,3.05-2.57,1.1-5.19,2.53-7.98,3.96-5.5,3.02-11.36,6.67-17.16,10.99-5.76,4.38-10.91,8.97-15.39,13.38-2.17,2.27-4.29,4.38-6.09,6.52-1.89,2.07-3.51,4.11-4.98,5.98-1.53,1.83-2.73,3.63-3.86,5.16-1.14,1.52-2.04,2.89-2.76,4.02-1.47,2.24-2.29,3.48-2.29,3.48Z"/>
          <path class="cls-13" d="M198.32,1213.11s1.34-.1,3.77-.29c2.42-.15,5.93-.5,10.22-1.04,4.3-.52,9.38-1.36,14.98-2.48,5.59-1.17,11.68-2.66,17.98-4.53,6.3-1.91,12.18-4.07,17.46-6.22,5.26-2.2,9.93-4.36,13.77-6.34,7.71-3.91,12.31-6.71,12.55-6.34.18.27-4.05,3.66-11.61,8.06-3.77,2.22-8.42,4.59-13.7,6.96-5.31,2.31-11.27,4.58-17.67,6.53-6.41,1.9-12.65,3.24-18.36,4.18-5.72.88-10.91,1.38-15.28,1.56-4.36.2-7.89.2-10.33.1-2.43-.09-3.78-.14-3.78-.14Z"/>
          <path class="cls-13" d="M342.63,1277.99s.18-1.53.52-4.29c.33-2.76.91-6.75,1.78-11.65,1.71-9.8,4.79-23.27,9.76-37.67,4.98-14.39,10.71-26.96,15.33-35.78,4.62-8.83,8-13.99,8.3-13.83.37.2-2.4,5.69-6.54,14.68-4.15,8.99-9.53,21.56-14.47,35.82-4.92,14.26-8.64,27.43-11.02,37.05-1.2,4.81-2.12,8.72-2.7,11.44-.61,2.71-.94,4.21-.94,4.21Z"/>
          <path class="cls-13" d="M385.1,1262.73s.79-3.61,2.07-9.43c1.27-5.82,2.95-13.84,4.72-22.72,3.56-17.74,5.21-32.37,6.02-32.3.72.04.29,14.9-3.31,32.84-1.78,8.96-4.15,16.9-6.1,22.55-1.95,5.66-3.4,9.06-3.4,9.06Z"/>
        </g>
      </g>
    </g>
  </g>
</svg>