<?xml version="1.0" encoding="UTF-8"?>
<svg id="Capa_2" data-name="Capa 2" xmlns="http://www.w3.org/2000/svg" viewBox="0 0 608.08 773.23">
  <defs>
    <style>
      .cls-1 {
        fill: #444458;
      }

      .cls-2 {
        fill: #ffde9c;
      }

      .cls-3 {
        fill: #e2719a;
      }

      .cls-4 {
        fill: #f9d482;
      }

      .cls-5 {
        fill: #5c5c6d;
      }

      .cls-6 {
        fill: #f4becf;
      }

      .cls-7 {
        fill: #81d2cc;
      }

      .cls-8 {
        fill: #f9e5e8;
      }

      .cls-9 {
        fill: #f9d4e2;
      }

      .cls-10 {
        fill: #62c4bb;
      }

      .cls-11 {
        fill: #84848c;
      }

      .cls-12 {
        fill: #e5ae4c;
      }

      .cls-13 {
        fill: #eca2b6;
      }

      .cls-14 {
        fill: #717180;
      }

      .cls-15 {
        fill: #f7cd79;
      }

      .cls-16 {
        fill: #9ee8e1;
      }

      .cls-17 {
        fill: #f9e8ea;
      }
    </style>
  </defs>
  <g id="Capa_1-2" data-name="Capa 1">
    <g>
      <g>
        <path class="cls-1" d="M299.76,83.07s0,2.81,0,7.9c0,1.27-.01,2.68-.02,4.22.04,1.54.18,3.22.27,5.02.25,3.59.31,7.7.96,12.18.26,2.25.54,4.6.83,7.05.3,2.45.85,4.96,1.29,7.58.23,1.31.47,2.64.71,3.99.13.67.22,1.36.37,2.04.16.68.33,1.36.49,2.05.65,2.75,1.33,5.58,2.02,8.48,3.12,11.52,7.34,23.95,12.99,36.5,5.79,12.48,12.5,23.77,19.24,33.61,1.76,2.41,3.48,4.75,5.15,7.03.42.57.83,1.14,1.24,1.7.42.55.88,1.07,1.31,1.6.87,1.06,1.73,2.1,2.58,3.12,1.71,2.03,3.27,4.07,4.93,5.89,1.68,1.8,3.29,3.54,4.82,5.19,2.98,3.4,6.06,6.1,8.62,8.63,1.3,1.24,2.47,2.44,3.61,3.47,1.16,1.01,2.23,1.93,3.18,2.76,3.81,3.34,5.86,5.29,5.71,5.5-.15.21-2.5-1.35-6.62-4.37-1.03-.76-2.17-1.61-3.42-2.53-1.22-.97-2.47-2.1-3.85-3.28-2.72-2.4-5.96-5.01-9.11-8.33-1.61-1.62-3.31-3.33-5.07-5.1-1.75-1.79-3.38-3.82-5.17-5.83-.88-1.02-1.78-2.05-2.69-3.1-.45-.53-.93-1.05-1.37-1.6-.43-.56-.86-1.13-1.29-1.7-1.74-2.29-3.53-4.64-5.36-7.05-7.01-9.89-13.93-21.34-19.83-34.05-5.76-12.77-9.83-25.52-12.65-37.3-.61-2.97-1.2-5.86-1.77-8.67-.14-.7-.28-1.4-.42-2.09-.13-.7-.2-1.39-.3-2.08-.19-1.38-.37-2.73-.56-4.07-.33-2.67-.78-5.23-.97-7.72-.17-2.49-.33-4.88-.49-7.16-.43-4.55-.25-8.69-.28-12.32.02-1.81-.02-3.5.04-5.05.11-1.55.21-2.96.3-4.23.38-5.07.59-7.88.59-7.88Z"/>
        <path class="cls-8" d="M333.73,34.24c-3.09-.81-6.06.4-8.7,2.35-1.68,1.24-3.22,2.78-4.57,4.31-.09-5.53-1.35-11.04-3.67-16.05-.78-1.69-1.71-3.36-3.12-4.58-1.68-1.45-3.91-2.12-6.12-2.3-6.83-.57-13.45,3.44-17.26,9.17,11.04,7.74,18.12,20.79,20.94,34.17,3.31,15.68,1.62,31.94-.31,47.85-.54,4.46-1.37,11.4-3.6,16.84,1.27-.96,2.35-2.22,3.35-3.47,7.03-8.75,12.82-18.43,18.53-28.09,5.59-9.46,11.24-19.21,13.17-30.03,1.17-6.56.91-13.38-.75-19.83-1.13-4.41-3.49-9.19-7.9-10.34Z"/>
        <path class="cls-6" d="M312.97,4.72c-7.14-4.73-17.92-2.59-22.72,4.51-2.5-1.77-4.34-4.32-6.65-6.34-2.31-2.02-5.48-3.53-8.4-2.59-1.64.53-2.95,1.75-4.08,3.04-4.53,5.14-7.12,11.96-7.14,18.81-3.89-2.96-8.23-6.06-13.11-5.84-4.02.18-7.71,2.74-9.89,6.12s-3.01,7.5-3.03,11.53c-.05,8.49,3.67,16.75,9.58,22.81.04-2.91.61-5.82,1.73-8.5.34-.8.79-1.65,1.58-2,1.01-.44,2.15.07,3.13.57,2.58,1.32,5.16,2.64,7.74,3.97-3.56-9.43,2.14-20.35,10.49-25.99,2.13-1.44,4.55-2.66,7.12-2.59,1.71.05,3.36.68,4.91,1.4,2.14.99,4.15,2.19,6.05,3.52,3.81-5.73,10.43-9.74,17.26-9.17,2.21.18,4.44.86,6.12,2.3,1.41,1.22,2.34,2.89,3.12,4.58,2.32,5.02,3.58,10.53,3.67,16.05,1.35-1.52,2.89-3.06,4.57-4.31-.33-4.08-.87-8.13-1.64-12.15-1.43-7.51-4.05-15.51-10.42-19.73Z"/>
        <path class="cls-9" d="M284.24,23.62c-1.56-.72-3.2-1.35-4.91-1.4-2.57-.07-4.99,1.15-7.12,2.59-8.36,5.64-14.05,16.56-10.49,25.99-2.58-1.32-5.16-2.64-7.74-3.97-.98-.5-2.12-1.01-3.13-.57-.8.35-1.25,1.2-1.58,2-1.13,2.68-1.7,5.59-1.73,8.5-.04,3.09.53,6.2,1.73,9.05-3.57-2.37-8.92-4.52-11.58-1.16-1.63,2.07-1.07,5.05-.42,7.61,1.83,7.22,3.73,14.57,7.74,20.84,3.18,4.96,7.55,9.03,11.99,12.9,6.58,5.73,13.43,11.15,20.39,16.41,4.98,3.76,10.34,8.79,16.29,10.99,7.15,2.64,11.21-1.51,13.63-7.4,2.24-5.45,3.06-12.38,3.6-16.84,1.93-15.91,3.62-32.17.31-47.85-2.82-13.38-9.9-26.43-20.94-34.17-1.91-1.33-3.91-2.53-6.05-3.52Z"/>
        <path class="cls-17" d="M255.74,80.73c6.03,12.18,15.3,22.73,26.61,30.27"/>
        <path class="cls-17" d="M289.68,47.25c6.42,16.09,10.75,33.02,12.85,50.22"/>
        <path class="cls-17" d="M322.91,87.99c7.53-12.42,11.96-26.71,12.75-41.22"/>
        <path class="cls-17" d="M251.22,30.54c1.8,4.5,3.6,9,5.4,13.5"/>
        <path class="cls-17" d="M279.47,10.59c.81,2.95,1.88,5.82,3.19,8.58"/>
        <path class="cls-17" d="M303.17,11.42c-.45,1.16-.45,2.49,0,3.65"/>
        <path class="cls-1" d="M308.57,121.66c-2.3,1.61-4.38,3.5-6.38,5.47-3.03-2.87-5.69-6.11-7.91-9.64-.82,2.88-1.02,5.92-.56,8.88-2.34-.08-4.87.56-7.14,1.25-2.43.74-4.89,1.51-7.27,2.43,4.66.62,9.24,1.67,13.45,3.71,4.72,2.29,8.92,6.01,11.22,10.66.25-.04.51-.07.76-.13,11.01-2.77,9.25-16.47,10.32-26-2.3.79-4.49,1.96-6.48,3.36Z"/>
      </g>
      <g>
        <path class="cls-14" d="M383.67,572.89c.54-.57,1.15-1.21,1.81-1.91.65-.72,1.3-1.53,2.03-2.39,1.43-1.73,3.15-3.65,4.79-5.97.84-1.14,1.72-2.34,2.64-3.59.91-1.26,1.74-2.64,2.67-4.03,1.89-2.77,3.6-5.9,5.45-9.18,3.51-6.66,6.88-14.26,9.56-22.54,2.6-8.31,4.3-16.44,5.36-23.9.42-3.74.88-7.29.97-10.65.07-1.67.21-3.28.21-4.84-.01-1.55-.02-3.04-.03-4.47,0-.52,0-1.01-.02-1.51.21,1.63.41,3.28.62,4.92-.17.29-.36,1.99,0,4.87.19,1.45.54,3.21,1.13,5.16,2.55,25.12,3.62,49.19,3.73,71.23-.09,5.97-.17,11.8-.25,17.45-.02,1.42-.04,2.82-.06,4.21-.04,1.39-.13,2.77-.2,4.14-.14,2.74-.28,5.44-.41,8.09-.13,2.65-.27,5.26-.4,7.82-.15,2.56-.2,5.08-.46,7.53-.43,4.91-.84,9.63-1.24,14.13-.64,9.02-1.85,17.11-2.68,24.25-.45,3.56-.8,6.89-1.23,9.94-.48,3.04-.91,5.82-1.31,8.31-.77,5-1.35,8.89-1.7,11.53-.36,2.64-.49,4.04-.38,4.06.11.02.45-1.34,1.01-3.95.56-2.61,1.33-6.47,2.29-11.44.47-2.49,1-5.26,1.58-8.29.52-3.04.96-6.36,1.49-9.92.99-7.13,2.37-15.23,3.15-24.27.46-4.51.94-9.24,1.44-14.16.29-2.46.38-4.99.56-7.55.16-2.57.32-5.19.48-7.85.16-2.66.33-5.37.5-8.12.08-1.38.18-2.76.23-4.16.03-1.4.06-2.81.09-4.23.12-5.68.25-11.53.38-17.53.03-19.24-.72-40.05-2.59-61.73,2.45,4.57,5.8,9.51,9.3,14.89,3.99,6.16,8.17,13.06,12.09,20.55,7.92,14.92,12.91,29.49,14.82,40.41.3,1.35.48,2.66.65,3.9.17,1.24.38,2.4.49,3.5.18,2.2.41,4.09.47,5.65.11,3.12.17,4.84.17,4.84,0,0,.11-1.73.32-4.85.08-1.56.02-3.48.03-5.71-.02-1.11-.14-2.3-.21-3.57-.08-1.27-.16-2.6-.37-3.99-1.14-11.2-5.52-26.45-13.58-41.64-3.98-7.61-8.31-14.55-12.47-20.69-4.18-6.14-8.07-11.45-10.74-16.26-.54-.97-1.03-1.9-1.48-2.81-.33-3.45-.68-6.92-1.07-10.41-3.25-27.51-8.18-53.47-13.72-76.81-1.5-5.81-2.97-11.47-4.39-16.97-.36-1.38-.71-2.74-1.06-4.09-.22-.79-.45-1.56-.68-2.34,2.98,5.24,7.2,11.01,12.37,16.93,5.29,6.07,11.58,12.27,18.21,18.66,6.61,6.38,12.8,12.53,17.99,18.5,5.17,5.97,9.38,11.75,12.29,16.96,2.94,5.2,4.78,9.73,5.76,12.94.29.79.49,1.51.64,2.14.17.63.31,1.16.42,1.59.23.86.35,1.31.35,1.31,0,0-.08-.46-.22-1.34-.07-.44-.16-.98-.27-1.63-.1-.65-.23-1.39-.45-2.21-.7-3.32-2.19-8.05-4.84-13.55-2.62-5.51-6.6-11.66-11.65-17.94-5.05-6.28-11.2-12.65-17.84-19.06-6.63-6.39-12.91-12.46-18.23-18.32-5.32-5.86-9.7-11.47-12.85-16.53-1.56-2.46-2.83-4.75-3.89-6.82-.21-.92-.42-1.69-.61-2.3.54,1.17.9,1.77,1.03,1.73.41-.14-1.39-6.5-4.62-16.66-3.24-10.16-7.92-24.14-13.28-39.51-1.81-5.2-3.61-10.22-5.34-14.97-.01-.05-.02-.1-.04-.15-.32-1.23-.77-2.35-1.25-3.35-.39-1.05-.77-2.09-1.15-3.11-.66-1.77-1.3-3.5-1.93-5.18-.25-.68-.49-1.36-.74-2.03l-.18-.49-.09-.24-.09-.11-.36-.44c-.23-.3-.47-.59-.7-.88-.07-.29-.33.08-.52.21-.21.17-.37.33-.55.5-.69.63-1.19,1.42-1.46,2.43-.05.27-.12.52-.16.79-.02.29-.06.56-.07.84l.02.88c.02.29.07.61.09.77.26,1.55.76,2.94,1.28,4.18,4.02,9.88,6.65,15.94,6.65,15.94,0,0-1.23-4.13-3.43-11.06.24.6.47,1.05.72,1.28.25.61.51,1.25.77,1.9.95,2.34,2.01,4.95,3.17,7.8,1.11,2.87,2.21,6.03,3.45,9.41,2.41,6.77,5.41,14.39,8.05,23.04,1.39,4.3,2.85,8.81,4.36,13.5.8,2.33,1.41,4.78,2.13,7.24.7,2.47,1.41,4.98,2.13,7.54.54,1.9,1.09,3.83,1.64,5.78.03,1.11.03,2.3.01,3.58-.08,7.9-1.74,18.8-5.95,30.12-4.2,11.32-9.51,21.03-13.47,27.98-1.99,3.48-3.65,6.27-4.8,8.2-1.15,1.93-1.78,3-1.78,3,0,0,.78-.97,2.19-2.72,1.4-1.77,3.39-4.35,5.72-7.64,4.64-6.56,10.76-16.05,15.1-27.74,2.14-5.84,3.62-11.61,4.43-16.95.51-3.31.78-6.44.85-9.31.13.53.26,1.05.39,1.58,1.34,5.5,2.73,11.16,4.14,16.96,3.62,16.18,6.99,33.6,9.8,51.88-.06.78-.05,2.22.03,4.25.03.79.07,1.66.12,2.61.03.95,0,1.99.01,3.11-.01,2.23.1,4.76-.07,7.56-.05,1.4-.11,2.86-.17,4.39-.06,1.53-.26,3.1-.38,4.74-.2,3.28-.75,6.76-1.24,10.41-1.19,7.29-2.94,15.23-5.49,23.36-2.63,8.11-5.74,15.61-8.93,22.28-1.69,3.29-3.22,6.45-4.93,9.27-.83,1.42-1.57,2.83-2.39,4.12-.83,1.29-1.62,2.53-2.37,3.71-1.46,2.41-3.01,4.42-4.28,6.26-.65.91-1.23,1.77-1.81,2.54-.59.75-1.14,1.44-1.62,2.06-1.95,2.49-3.02,3.86-3.02,3.86,0,0,1.21-1.26,3.4-3.54ZM399.86,373.62s-.07.06-.09.12c-.15-.48-.29-.96-.43-1.43.2.48.39.92.56,1.33-.01,0-.03-.02-.04-.02ZM371.65,294.55s.11-.09.11.03l.11.41s.02.09.03.13c-.2-.15-.36-.27-.49-.35.03-.04.06-.09.1-.12.04-.03.08-.07.13-.09ZM371.1,295.82v-.21c.02-.14.04-.27.07-.39,0-.02.01-.03.02-.05.04.35.1.85.19,1.43.17,1.09.41,2.47.82,3.93-.03-.06-.05-.12-.08-.18-.04-.11-.07-.21-.1-.32-.42-1.25-.77-2.54-.91-3.88v-.32ZM375.03,306.91c.12-.05.23-.16.33-.32.26.98.51,1.91.76,2.79-.14-.31-.28-.63-.41-.93-.23-.53-.46-1.04-.68-1.54Z"/>
        <path class="cls-7" d="M378.3,690.15c-10.04,14.3-14.37,31.97-15.2,49.42-.53,11.24.3,22.46,1.61,33.66,4.2-7.16,8.66-14.17,14.03-20.49,16.72-19.67,42.43-33.03,50.71-57.48,5.64-16.63,1.75-34.38-4.09-51.31-13.78,16.83-34.42,28.19-47.06,46.2Z"/>
        <path class="cls-10" d="M325.92,644.69c7.79-5.16,16.63-8.48,24.87-12.89,33.46-17.93,54.92-55.52,54.99-93.29-10.02,7.93-21.29,14.26-33.3,18.62-15.84,5.76-33.32,8.36-46.8,18.47-22.59,16.95-26.63,48.66-28.82,76.81-.78,10.06-1.56,20.11-2.34,30.17,8.2-14.62,17.57-28.75,31.41-37.91Z"/>
        <path class="cls-16" d="M385.34,475.65c7.72-8.33,11.48-19.72,12.54-31.03.72-7.66.3-15.35-.48-23.02-16.97,5.08-38.42,3.79-49.71,17.41-2.85,3.44-4.74,7.56-6.51,11.67-11.42,26.58-18.77,54.9-21.79,83.67,13.48-17.52,29.8-32.85,48.15-45.17,6.2-4.16,12.72-8.05,17.8-13.53Z"/>
        <path class="cls-7" d="M449.01,472.6c8.58,21.42,34.54,29.07,51.59,44.61,2.16,1.97,4.17,4.07,6.05,6.26-2.53-12.62-4.14-25.42-4.78-38.28-.52-10.48-.59-21.62-6.23-30.48-4.89-7.68-13.41-12.47-22.23-14.73-7.8-2.01-15.91-2.26-23.98-2.3-3.38,11.75-4.86,23.8-.41,34.91Z"/>
        <path class="cls-16" d="M434.7,601.22c2.55,19.71,8.79,38.94,18.32,56.38,6.2,11.36,13.8,22.05,20.67,33.04-.56-16.43,1.54-32.95,6.28-48.69,4.16-13.81,10.36-27.3,10.94-41.72.99-24.4-16.78-48-40.04-54.82-5.89,9.94-12.89,19.49-15.64,30.64-2.02,8.19-1.61,16.79-.53,25.16Z"/>
      </g>
      <g>
        <path class="cls-14" d="M269.48,326.54c.82,1.86,1.87,4.58,2.8,8.05.96,3.47,1.8,7.68,2.99,12.4,1.19,4.69,2.78,10.03,6.06,15.04.87,1.21,1.73,2.42,2.76,3.47.96,1.11,2.05,2.08,3.15,2.95.39.31.79.58,1.18.87-6.55-2-13.56-4.65-20.83-7.72-7.61-3.23-14.87-6.42-21.6-9.1-6.72-2.69-12.9-4.85-18.19-6.36-5.29-1.51-9.64-2.44-12.66-2.92-1.51-.28-2.69-.39-3.49-.52-.8-.1-1.22-.16-1.22-.16,0,0,1.62.48,4.55,1.34,2.92.88,7.08,2.32,12.12,4.32,5.04,1.99,10.93,4.63,17.44,7.67,6.51,3.03,13.66,6.46,21.36,9.73,7.72,3.26,15.28,5.99,22.35,7.86,4.99,1.33,9.72,2.24,14.02,2.76,1.33.48,2.64.91,3.89,1.24.45.12.88.22,1.31.31-10.2,3.16-19.91,6.57-28.98,10.07-7.85,3.24-15.35,6.22-22.14,9.54-3.41,1.62-6.75,3.08-9.86,4.69-3.1,1.62-6.08,3.19-8.93,4.67-5.73,2.89-10.67,5.96-15.07,8.52-2.19,1.31-4.24,2.48-6.09,3.65-1.82,1.21-3.48,2.31-4.97,3.3-5.96,3.99-9.16,6.32-9,6.57s3.68-1.59,9.88-5.13c1.55-.89,3.26-1.88,5.14-2.96,1.9-1.05,4-2.12,6.23-3.32,4.49-2.34,9.49-5.22,15.27-7.9,2.86-1.4,5.86-2.86,8.98-4.39,3.13-1.52,6.48-2.89,9.89-4.42,6.79-3.15,14.28-5.98,22.09-9.09,8.63-3.2,17.83-6.35,27.46-9.31-.54.44-1.09.87-1.62,1.35-2.76,2.47-5.14,5.07-6.99,7.8-1.82,2.72-3.07,5.51-3.55,8.03-.54,2.5-.28,4.65.14,5.99.42,1.36,1,1.96,1.24,1.88.66-.19-.02-3.04,1.57-7.03.75-1.99,2.07-4.24,3.84-6.52,1.78-2.26,4.09-4.63,6.63-6.9,3.67-3.28,7.4-5.99,10.7-8.11,4.21-1.17,8.47-2.3,12.82-3.38,18.89-4.51,37.14-7.62,53.83-9.75,8.37-.87,16.32-1.85,23.8-2.21,3.74-.22,7.35-.57,10.82-.68,3.48-.1,6.82-.19,10-.29,6.38-.3,12.15-.07,17.22-.06,2.54.04,4.9.02,7.07.09.05,0,.09,0,.13,0,.83.07,1.66.14,2.44.23,2.15.25,4.14.48,5.94.69,3.59.51,6.44.97,8.39,1.21l2.3.28-1.81-1.21c-.35-.24-.66-.35-.94-.42.37.02.57.03.57.03,0,0-.29-.03-.85-.09-.21-.04-.41-.07-.61-.1-1.75-.51-4-1.14-6.67-1.8-1.8-.38-3.78-.8-5.93-1.25-2.15-.45-4.49-.74-6.97-1.14-9.92-1.41-22.31-2.14-35.45-1.36-9.75.51-18.98,1.57-27.31,2.83-8.34,1.25-15.79,2.65-22.01,3.97-.3.06-.58.12-.87.19-11,1.66-22.46,3.81-34.13,6.6-4.17,1.03-8.27,2.12-12.31,3.26-2.89-.05-6.66-.21-11.13-.79-1.36-.17-2.78-.38-4.26-.64-2.37-1.09-4.91-2.4-7.6-3.89-2.03-1.15-4.08-2.43-5.95-3.97-.94-.77-1.83-1.6-2.63-2.55-.87-.89-1.59-1.93-2.34-2.97-2.84-4.31-4.61-9.17-6.16-13.67-1.55-4.51-2.94-8.69-4.45-12.08-1.49-3.4-3.08-5.98-4.27-7.66-1.25-1.65-2-2.49-2-2.49,0,0,.5,1.01,1.41,2.83Z"/>
        <path class="cls-7" d="M227.51,304.04c3.63,11.83,13.23,20.77,22.85,28.56,7.22,5.85,15.41,11.57,24.12,14.27-4.3-18.35-3.63-38.11-6.69-56.94-2.16-13.32-6.23-26.25-10.28-39.13-2.59-8.23-5.34-16.75-11.12-23.16-1.82-2.02-4.04-3.78-6.46-5.11,4.52,27.44-20.62,54.82-12.43,81.5Z"/>
        <path class="cls-7" d="M144.91,463.3c11.53-4.19,24.28-5.5,36.44-7.99,16.38-3.35,33.93-10.56,40.74-25.82,2.5-5.6,3.29-11.8,5.2-17.63.01-.04.03-.08.04-.12-17.21,1.19-34.58,9.42-48.54,20.15-12.21,9.39-22.9,20.57-33.88,31.41Z"/>
        <path class="cls-7" d="M276.65,421.88c-.77,13.75,5.44,26.98,13.1,38.43,7.66,11.45,16.91,21.86,23.5,33.96,5.64,10.36,9.16,21.85,10.41,33.58,4.64-3.01,8.9-6.55,12.26-10.92,4.47-5.81,7.17-12.81,8.95-19.92,5.68-22.76,2-47.7-10.01-67.84-9.18-15.4-23.15-27.84-39.37-35.46-10.83,4.19-18.17,16.25-18.84,28.17Z"/>
        <path class="cls-7" d="M142.53,307.04c-16.46,1.18-32.87,3.05-49.18,5.57,17.81,12.44,31.42,34.97,52.52,42.4,10.49,3.69,21.93,3.27,33.04,2.71,19.21-.97,38.41-2.25,57.59-3.79-20.21-15.99-37.47-39.08-62.4-45.48-10.25-2.63-21.02-2.17-31.57-1.41Z"/>
        <g>
          <path class="cls-5" d="M154.82,331.12c21.89.25,42.8,6.18,61.57,17.45,2.16,1.3,4.12-2.08,1.97-3.37-19.33-11.61-40.99-17.73-63.54-17.99-2.51-.03-2.51,3.88,0,3.9h0Z"/>
          <path class="cls-5" d="M325.04,477.94c-8.55-10.23-15.45-21.74-19.11-34.64-3.79-13.36-3.68-27.27-3.47-41.03.04-2.51-3.87-2.51-3.9,0-.22,14.94-.24,30.07,4.33,44.46,4.01,12.61,10.96,23.86,19.4,33.97,1.61,1.93,4.36-.84,2.76-2.76h0Z"/>
        </g>
      </g>
      <g>
        <path class="cls-5" d="M74.99,214.69c-.08.19,1.11.74,3.05,2,1.93,1.25,4.61,3.28,7.3,6.38,2.71,3.08,5.36,7.23,7.74,12.17,2.4,4.93,4.65,10.6,7.15,16.51,2.5,5.92,5.14,11.52,8.1,16.32,1.62,2.7,3.4,5.14,5.3,7.19-15.85-7.82-29.82-15.8-41.56-23.18-1.81-1.05-3.48-2.23-5.15-3.32-1.66-1.1-3.28-2.17-4.86-3.21-3.14-2.09-6.17-3.98-8.84-5.96-2.71-1.93-5.24-3.72-7.57-5.38-2.33-1.64-4.48-3.13-6.32-4.59-7.47-5.68-11.7-8.72-11.9-8.48-.2.23,3.67,3.72,10.84,9.84,1.77,1.56,3.84,3.16,6.11,4.91,2.27,1.75,4.74,3.66,7.39,5.7,2.62,2.09,5.6,4.08,8.7,6.28,1.56,1.09,3.16,2.21,4.8,3.36,1.65,1.14,3.31,2.37,5.1,3.47,6.78,4.49,14.34,9.17,22.6,13.9-4.88-1.54-10.41-3.15-16.28-4.84-5-1.43-9.81-2.77-14.29-3.68-4.47-.91-8.6-1.36-12.07-1.35-3.47-.01-6.26.41-8.13.84-.94.18-1.65.42-2.14.56-.48.14-.74.22-.74.22,0,0,.26-.04.76-.11.5-.06,1.23-.2,2.18-.26,1.89-.18,4.64-.27,8,.07,3.36.31,7.31,1.07,11.63,2.2,4.33,1.12,9.04,2.61,14.06,4.04,10.02,2.89,19.15,5.25,25.66,7.2.13.04.25.07.38.11,6.32,3.42,12.99,6.83,19.99,10.17,14.32,6.83,30.08,13.32,46.89,19.05-2.02,0-4.07.03-6.15.11-3.66.15-7.19.33-10.67.69-3.46.38-6.84,1.04-9.9,2.22-3.09,1.18-5.66,2.89-8.01,4.38-2.35,1.52-4.53,2.83-6.67,3.78-4.28,1.93-8.07,2.69-10.69,3.04-1.31.18-2.35.24-3.05.28-.7.03-1.07.04-1.07.04,0,0,.37.02,1.07.07.7.03,1.74.07,3.08.02,2.67-.1,6.6-.54,11.16-2.23,2.28-.82,4.68-2.06,7.11-3.46,2.44-1.38,4.98-2.88,7.84-3.84,5.73-1.98,12.68-2.03,19.9-2.37,5.07-.19,9.96-.18,14.57.06,4.11,1.31,8.25,2.58,12.47,3.79,17.99,5.14,35.68,8.86,52.52,11.4-3.23.64-6.59,1.54-9.91,2.94-3.52,1.45-7.01,3.48-10.16,5.97-3.17,2.47-5.96,5.11-8.77,7.48-2.8,2.38-5.58,4.55-8.36,6.44-5.54,3.79-11.09,6.32-16.02,7.49-4.93,1.23-9.12,1.21-11.96.9-1.42-.17-2.52-.38-3.26-.55-.74-.18-1.12-.27-1.12-.27,0,0,.38.13,1.1.38.72.24,1.8.55,3.23.85,2.84.55,7.13.93,12.3-.02,5.17-.88,11.12-3.21,16.96-6.92,2.93-1.84,5.86-3.99,8.76-6.36,2.91-2.36,5.73-4.97,8.77-7.33,5.99-4.81,12.96-7.41,19.49-8.73,2.57-.52,5.07-.86,7.46-1.07,3.44.44,6.85.85,10.2,1.2,1.39.16,2.76.31,4.13.47,1.37.1,2.74.2,4.09.3,2.71.19,5.39.39,8.02.58,5.27.42,10.4.64,15.35.77,9.91.29,19.14.22,27.56.04,1.71-.04,3.38-.08,5.02-.13,4.39.13,9.09.3,13.98.55,8,.42,15.48.81,21.81,1.14,1.57.09,3.08.17,4.5.26.56.13,1.2.18,1.89.08.07,0,.12-.04.18-.05.27,0,.53-.04.79-.05.78.44,1.95.67,3.18.4,1.36-.3,2.28-1.38,2.62-2.28,0-.02,0-.03.02-.05.65-.58,1.11-1.27,1.36-1.94l.23-.63-.57-.11c-1.4-.27-2.54-.21-3.43-.06-1.21-.35-2.76-.65-4.45-.6-2.46.07-4.61.45-5.81.98-.51,0-1.02.02-1.55.03-1.16.02-2.39.04-3.68.06-5.14-.7-10.85-1.28-16.88-1.58-16.87-.87-31.42.2-38.42,1.32-2.69-.11-5.43-.23-8.23-.39-1.65-.09-3.34-.2-5.02-.31-1.02-.25-2.09-.54-3.21-.87-4.67-1.36-10.04-3.6-15.71-6.66-5.68-3.05-11.64-6.95-17.71-11.33-6.08-4.37-11.68-8.74-16.09-13.4-4.41-4.63-7.59-9.59-10.53-13.57-2.89-4.02-5.52-7.09-7.53-9.01-1-.96-1.8-1.68-2.38-2.13-.57-.46-.86-.7-.86-.7,0,0,.27.27.79.78.52.5,1.25,1.29,2.15,2.32,1.81,2.08,4.13,5.29,6.73,9.47,2.65,4.13,5.56,9.31,9.98,14.33,4.39,5.01,10.06,9.63,16.19,14.04,6.14,4.43,12.25,8.34,18.12,11.35,3.71,1.9,7.31,3.45,10.69,4.62-.28-.03-.55-.04-.83-.07-2.61-.24-5.26-.49-7.94-.74-1.34-.13-2.69-.25-4.05-.38-1.35-.18-2.72-.36-4.09-.55-15.62-1.9-32.26-4.82-49.39-8.86-4.89-1.67-10.4-3.81-16.23-6.58-6.86-3.24-14.18-7.31-20.53-13.23-6.4-5.85-11.27-12.69-14.83-19.33-3.6-6.66-5.7-13.17-7.33-18.73-1.64-5.56-3.26-10.02-4.71-12.94-.73-1.46-1.35-2.55-1.8-3.28-.46-.72-.7-1.1-.7-1.1,0,0,.21.4.6,1.15.39.76.92,1.9,1.53,3.39,1.22,3,2.49,7.48,3.82,13.12,1.31,5.62,3.14,12.44,6.63,19.4,3.44,6.95,8.36,14.16,15.02,20.26,6.11,5.7,13.09,9.66,19.63,12.72-.31-.08-.61-.16-.93-.24-1.11-.27-2.27-.52-3.45-.75-23.69-6.89-45.68-15.38-65.12-24.41-1.91-.89-3.8-1.79-5.66-2.68-2.85-2.52-5.46-6.16-7.8-10.48-2.67-4.79-5.11-10.33-7.59-16.23-2.5-5.89-4.83-11.57-7.41-16.58-2.57-5.01-5.51-9.28-8.54-12.34-3.01-3.09-6.01-4.99-8.17-6.01-2.18-1.03-3.5-1.24-3.55-1.1ZM374.03,323.62s0,0,.01,0c0,0,0,0,0,0,0,0,0,0,0,0ZM374.24,323.41s-.11-.06-.2-.1c.08.02.15.05.23.07-.01.01-.02.02-.03.03ZM360.67,323.57s-.02.03-.02.04c-.06-.01-.12-.02-.18-.03.07,0,.14,0,.21-.01Z"/>
        <path class="cls-17" d="M83.98,301.69c-1.33,4.4.48,9.36,3.77,12.57,3.29,3.22,7.83,4.89,12.38,5.57-3.98.84-8.24,1.83-10.99,4.82s-2.88,8.69.77,10.5c1.66.82,3.62.65,5.45.4,6.96-.94,13.92-2.8,19.83-6.6,5.13-3.29,9.4-8.18,11.3-13.92-1.41.05-2.83-.1-4.16-.45-5.3-1.39-9.63-5.08-13.93-8.47-3.08-2.43-6.24-4.75-9.47-6.96-2.86-1.96-6.24-3.92-9.59-3.06-2.62.67-4.58,3.01-5.36,5.6Z"/>
        <path class="cls-9" d="M52.44,260.04c-3.14-1.03-6.19-2.52-8.95-4.19-7.84-4.76-15.35-11.01-24.47-12.03-5.14-.58-11.08,1.12-13.39,5.76-1.49,2.99-1.08,6.83,1.02,9.44,2.09,2.61,5.75,3.84,9,3.04-2.69,2.8-6.24,4.65-8.96,7.42s-4.52,7.14-2.63,10.53c2.05,3.69,7.16,4.2,11.33,3.54,14.71-2.31,26.43-12.91,37.05-23.51Z"/>
        <path class="cls-6" d="M77.82,196.04c-1.96,1.22-2.77,3.52-3.08,5.88-1.86-1.23-3.99-1.99-6.24-2.07-5.56-.2-11.08,4.43-11.16,9.99-.06,4.17,2.7,7.99,6.22,10.22,3.52,2.23,7.71,3.14,11.83,3.78,4.12.64,8.31,1.08,12.23,2.52,1.67.61,3.26,1.42,4.76,2.37,1.69-8.63.71-17.78-2.88-25.81-1.05-2.34-2.37-4.67-4.45-6.19-2.07-1.52-5.04-2.05-7.23-.69Z"/>
        <path class="cls-17" d="M34.29,207.92c-.81-4.3-1.51-8.81-4.01-12.4-2.51-3.59-7.48-5.91-11.38-3.91-3.3,1.69-4.66,5.9-4.09,9.56.57,3.66,2.68,6.88,4.85,9.88-5.78-.59-12.13.37-16.28,4.44-4.15,4.07-4.81,11.84-.2,15.38,2.11,1.62,4.85,2.12,7.49,2.46,10.14,1.3,20.48,1,30.53-.86-.72-1.4-1.25-2.92-1.75-4.42-2.16-6.59-3.89-13.32-5.17-20.13Z"/>
        <path class="cls-17" d="M206.81,247.09c-.33,4.58,1.67,9.04,4.32,12.79-3.27-4.32-8.23-7.31-13.57-8.18-1.29-.21-2.67-.29-3.86.26-1.07.5-1.86,1.46-2.4,2.51-1.46,2.84-1.2,6.36.15,9.26s3.68,5.23,6.24,7.15c3.26,2.45,6.96,4.31,10.87,5.46,4.17,1.24,8.56,1.67,12.71,2.98,1.97.62,3.91,1.5,5.62,2.66-.23-9.13,1.81-18.74,1.45-27.98-.16-4.09-.86-8.3-3.11-11.71s-6.36-5.85-10.39-5.15c-4.52.79-7.71,5.36-8.03,9.94Z"/>
        <path class="cls-9" d="M135.04,205.45c-.61,1.15-.8,2.47-.93,3.76-.31,2.99-.37,6-.17,9-1-.45-2.03-.84-3.08-1.16-4.14-1.26-9.35-1.14-11.95,2.33-2.97,3.95-.7,9.79,2.79,13.29,1.61,1.61,3.46,3,5.54,3.94,3.54,1.61,7.53,1.87,11.31,2.79,4.45,1.09,8.62,3.19,12.22,6.02.06-1.53.21-3.05.48-4.55.66-3.56,1.94-6.99,2.46-10.58.76-5.19-.1-10.49-1.47-15.55-1.1-4.09-2.71-8.33-6.13-10.82-3.42-2.49-9.11-2.2-11.08,1.54Z"/>
        <path class="cls-6" d="M155.94,339.12c.03,2.79,2.53,4.82,4.8,6.44-4.36-1.47-9.65.74-11.67,4.88-2.02,4.14-.53,9.66,3.31,12.21,3.41,2.27,7.88,2.13,11.88,1.25,3.2-.7,6.31-1.82,9.23-3.33,3.25-1.68,6.26-3.82,9.63-5.27,2.3-.99,5.71-1.24,7.04-3.37-6.68-5.56-14.26-13.16-22.23-16.82-2.29-1.05-4.87-1.76-7.32-1.2-2.46.56-4.68,2.69-4.65,5.21Z"/>
      </g>
      <g>
        <path class="cls-14" d="M498.41,280.49c-.51.24-1.22.65-2.19,1.09-1.9.93-4.71,2.16-8.22,3.53-3.51,1.37-7.76,2.83-12.49,4.44-4.73,1.62-9.97,3.4-15.36,5.7-5.39,2.32-10.36,4.99-14.58,7.92-4.21,2.94-7.67,6.08-10.14,9.1-.74.89-1.39,1.76-1.97,2.59-.3.37-.6.75-.9,1.15-.48.63-.96,1.3-1.44,2.01.02-.1.04-.2.06-.3,1.71-9.22,2.46-19.61,1.72-30.45-.81-10.83-2.96-21.01-5.89-29.93-1.43-4.47-3.12-8.61-4.79-12.43-1.74-3.79-3.48-7.27-5.25-10.34-3.52-6.15-6.84-10.83-9.34-13.89-2.49-3.07-4.04-4.61-4.21-4.48-.2.16,1,1.98,3.13,5.26,2.14,3.27,5.1,8.08,8.29,14.27,1.6,3.09,3.18,6.55,4.78,10.31,1.52,3.79,3.07,7.86,4.39,12.26,2.7,8.76,4.7,18.69,5.48,29.23.71,10.54.2,20.66-1.16,29.73-.4,2.84-.92,5.56-1.47,8.19-.09.17-.17.34-.26.52-1.9,3.91-3.63,8.37-5.25,13.04-1.56,4.48-2.91,8.76-4.23,12.61-.3.88-.6,1.74-.91,2.57-.66.75-1.39,1.75-1.98,3.07-.61,1.34-1.08,3.01-1.1,4.93l-.05,3.28,1.76-2.9c1.65-2.71,3.38-6.08,5.01-9.9,1.06-2.48,2.09-5.16,3.1-7.95.44-1.01.88-2.04,1.32-3.12,1.34-3.27,2.61-6.94,3.83-10.92.03-.1.06-.2.08-.3.42-1.06.85-2.1,1.29-3.09,1.67-3.85,3.42-7.2,5.09-9.88.44-.71.87-1.38,1.28-2,.44-.48.89-.97,1.39-1.48,2.56-2.66,5.99-5.44,10.1-8.11,4.12-2.66,8.94-5.14,14.17-7.39,5.26-2.24,10.39-4.21,15.03-6.14,4.65-1.92,8.8-3.8,12.18-5.58,3.39-1.78,6.02-3.41,7.78-4.62.89-.58,1.54-1.1,2-1.43.45-.33.69-.51.69-.51,0,0-.27.13-.77.38Z"/>
        <path class="cls-7" d="M399.41,87.4c-5.43-9.45-11.72-18.41-17.58-27.6-.96,23.22-7.83,46.2-19.94,66.05-5.12,8.39-11.19,16.33-14.51,25.58-7.14,19.9.23,43.14,15.04,58.23,13.59,13.84,32.44,21.44,51.69,24.36,15.64-48.03,10.53-102.74-14.7-146.62Z"/>
        <path class="cls-7" d="M608.08,219.44c-6.41,3.56-14.75,3.95-22.35,4.24-25.36.97-51.25,4.78-73.55,16.91-21.15,11.51-38.67,31.61-42.73,55.18,1.33.8,2.65,1.59,3.97,2.37,24.35,14.19,53.5,19.93,81.41,16.05,9.47-1.32,19.03-3.81,26.82-9.35,14.71-10.45,20.38-29.56,22.46-47.48,1.46-12.6,1.69-25.52,3.97-37.92Z"/>
        <g>
          <path class="cls-11" d="M549.42,245.77c-17.04,21.35-39.36,37.86-64.7,48.03-1.43.58-.28,2.68,1.15,2.11,25.76-10.34,48.29-27.19,65.59-48.87.96-1.21-1.09-2.47-2.04-1.27h0Z"/>
          <path class="cls-11" d="M519.19,276.88c3.18-9.96,6.92-19.66,14.98-26.71,1.17-1.02-.48-2.77-1.65-1.75-8.38,7.31-12.34,17.43-15.64,27.78-.47,1.47,1.83,2.16,2.3.68h0Z"/>
          <path class="cls-11" d="M508.1,285.12c13.48-2.62,27.02-4.37,40.77-4.44,1.54,0,1.6-2.41.05-2.4-13.95.06-27.71,1.84-41.39,4.5-1.52.3-.95,2.63.57,2.34h0Z"/>
          <path class="cls-11" d="M489.26,294.37c1.66-9.31,5.14-17.82,10.51-25.61.88-1.28-1.16-2.54-2.04-1.27-5.47,7.94-9.09,16.71-10.77,26.2-.27,1.51,2.03,2.21,2.3.68h0Z"/>
          <path class="cls-11" d="M487.67,295.78c12.92,1.82,25.92,2.62,38.97,2.4,1.54-.03,1.6-2.43.05-2.4-13.05.22-26.05-.58-38.97-2.4-1.53-.21-1.57,2.19-.05,2.4h0Z"/>
          <path class="cls-11" d="M392.59,130.43c-3.31,31.88.14,64.1,10.12,94.55.48,1.46,2.82.9,2.34-.57-9.92-30.28-13.34-62.24-10.05-93.93.16-1.54-2.25-1.58-2.4-.05h0Z"/>
          <path class="cls-11" d="M395.86,183.97c.28-11.93,3.24-23.31,8.83-33.85.72-1.36-1.32-2.64-2.04-1.27-5.79,10.91-8.9,22.73-9.19,35.08-.04,1.54,2.37,1.6,2.4.05h0Z"/>
          <path class="cls-11" d="M396.9,189.93c-.54-2.68-2.39-4.45-4.18-6.43-2.83-3.14-5.84-6.11-8.66-9.26-5.37-6.02-9.81-12.65-10.8-20.83-.18-1.53-2.52-.95-2.34.57.76,6.33,3.52,11.89,7.31,16.97,2.29,3.07,4.89,5.88,7.52,8.66,2.73,2.89,8,6.83,8.81,10.9.3,1.52,2.64.95,2.34-.57h0Z"/>
          <path class="cls-11" d="M400.79,208.46c.66-12.12,9.76-21.49,12.25-33.16.32-1.5-1.98-2.2-2.3-.68-2.54,11.92-11.66,21.36-12.34,33.8-.09,1.54,2.32,1.59,2.4.05h0Z"/>
          <path class="cls-11" d="M403.08,220.26c-3.99-4.64-8.8-7.83-13.78-11.31-6.91-4.83-10.39-10.5-13.33-18.27-.54-1.43-2.88-.88-2.34.57,2.42,6.4,5,12.18,10.34,16.68,5.77,4.85,12.36,8.16,17.34,13.96,1.01,1.18,2.76-.47,1.75-1.64h0Z"/>
        </g>
      </g>
      <g>
        <path class="cls-4" d="M391.83,471.11c1.02-10.41,1.17-21.12-.16-31.52-6.83,1.26-14.02,1.22-21.23-.33-17.86-3.85-31.75-16.07-38.46-31.67-6.02,2.31-12.03,4.7-18.11,6.82-8.32,2.9-17.02,5.28-25.77,6.24-6.45-.12-13.04-1.85-19.24-3.81-.09-.03-.17-.06-.26-.08-2.03.65-4,1.33-5.86,2.04-10.05,3.84-22.35,13.52-29.33,21.71-8.82,10.34-12.27,25.03-8.98,38.22,3.29,13.19,13.24,24.53,25.89,29.51,4.9,1.93,10.3,2.92,15.46,2.06-.04,5.56,1.01,11.11,3.21,16.23.92,2.15,2.06,4.25,3.73,5.88,2.38,2.32,5.65,3.5,8.92,4.1,10.37,1.88,21.48-2.16,28.62-9.84,3,9.46,10.65,17.55,20.27,20.23,9.98,2.78,20.98.05,29.55-5.77,8.57-5.82,14.91-14.46,19.55-23.72,4.1-8.17,6.95-16.89,8.95-25.82,1.51-6.74,2.56-13.61,3.23-20.48Z"/>
        <path class="cls-2" d="M349.67,342.44c-6.38-13.18-10.67-27.45-13.7-42.03-4.79-7.13-10.06-13.93-15.8-20.32-5.96-6.64-12.54-12.93-20.5-16.97s-17.5-5.62-25.9-2.6c-11.96,4.29-19.44,18.39-16.28,30.7,1.25,4.86,3.88,9.21,6.91,13.24-.89-.3-1.79-.58-2.7-.82-6.67-1.74-14.04-1.52-20.15,1.69-6.11,3.21-10.66,9.69-10.54,16.59.08,4.75,2.25,9.23,4.9,13.17.66.98,1.36,1.93,2.1,2.86-4.3.05-8.51.73-12.16,2.92-4.42,2.64-7.45,7.2-9.15,12.06-5.12,14.53,1.07,31.24,11.91,42.18,10.78,10.88,25.4,17.02,40,21.65.09.03.17.06.26.08,6.21,1.96,12.8,3.69,19.24,3.81,8.74-.97,17.45-3.35,25.77-6.24,6.08-2.12,12.09-4.5,18.11-6.82-4.31-10.01-5.67-21.4-3.2-32.86,2.9-13.49,10.59-24.7,20.89-32.29Z"/>
        <path class="cls-4" d="M478,257.94c-1.95-13.08-11.34-25.27-24.11-28.68-9.57-2.55-20.52.74-27.15,7.82-5.91-6.88-14.25-11.7-23.31-12.52-10.22-.92-21.38,3.43-26.26,12.46-1.46,2.69-2.31,5.67-2.97,8.66-.23,1.05-.4,2.1-.58,3.16-.47-.52-.94-1.04-1.43-1.55-7.56-7.87-18.78-14.76-28.88-10.61-6.24,2.57-10.3,8.91-11.8,15.49-1.51,6.58-.84,13.44-.04,20.14,1.12,9.36,2.56,18.79,4.49,28.09,3.03,14.59,7.32,28.85,13.7,42.03,12.1-8.91,27.8-12.79,43.64-9.38,10.11,2.18,18.94,7.04,25.93,13.67,13.42-10.49,25.82-22.28,36.92-35.2,5.91-6.87,11.55-14.52,15.69-22.66,4.95-9.75,7.74-20.2,6.14-30.94Z"/>
        <path class="cls-2" d="M539.17,364.2c2.53-.71,5.09-1.5,7.19-3.08,3.73-2.81,5.35-7.59,6.23-12.17,1.05-5.48,1.31-11.25-.47-16.54-2.54-7.59-9.15-13.42-16.67-16.16-3.26-1.19-6.68-1.82-10.14-2.05,1.1-2.67,1.99-5.44,2.63-8.26.8-3.55,1.16-7.53-.79-10.61-2.21-3.49-6.64-4.7-10.66-5.64-8.32-1.95-16.72-3.91-25.26-3.99-6.58-.06-13.16,1.04-19.38,3.17-4.14,8.14-9.78,15.79-15.69,22.66-11.1,12.92-23.5,24.71-36.92,35.2,12.65,12.01,19.23,29.85,16.25,48.12,20.4,5.8,40.78,11.66,61.82,13.96,3.09.34,6.27.57,9.45.61,10.2.15,20.42-1.62,28.01-8.12,8.29-7.1,11.7-19.38,8.26-29.73-.88-2.65-2.2-5.13-3.85-7.37Z"/>
        <path class="cls-15" d="M521.97,444.18c-2.15-12.52-7.23-25.03-15.21-34.76-3.18-.05-6.35-.28-9.45-.61-21.04-2.3-41.41-8.16-61.82-13.96-.15.91-.32,1.83-.52,2.74-4.76,22.11-22.36,38.15-43.3,42,1.33,10.4,1.17,21.11.16,31.52-.67,6.87-1.72,13.74-3.23,20.48,1.69,10.77,6.35,21.08,13.5,29.32,5.67,6.52,14,12.05,22.46,10.27,5.79-1.22,10.48-5.76,13.06-11.08.81-1.67,1.41-3.41,1.89-5.19,1.32,1.09,2.73,2.08,4.25,2.89,4.61,2.47,10.2,3.37,15.18,1.74,6.93-2.26,11.68-9.11,13.02-16.28.42-2.27.53-4.57.43-6.86,3.78,3.08,8.41,5.15,13.25,5.59,13.12,1.19,25.79-7.58,31.94-19.24,6.14-11.66,6.64-25.58,4.41-38.57Z"/>
        <path class="cls-3" d="M435.49,394.85c2.98-18.27-3.6-36.11-16.25-48.12-6.99-6.63-15.82-11.49-25.93-13.67-15.84-3.41-31.55.47-43.64,9.38-10.3,7.58-17.98,18.8-20.89,32.29-2.47,11.46-1.11,22.86,3.2,32.86,6.71,15.59,20.6,27.82,38.46,31.67,7.22,1.55,14.4,1.59,21.23.33,20.94-3.85,38.54-19.89,43.3-42,.2-.92.37-1.83.52-2.74Z"/>
        <path class="cls-13" d="M426.89,393.46c2.5-15.34-3.02-30.31-13.64-40.4-5.86-5.57-13.28-9.65-21.77-11.47-13.3-2.86-26.48.4-36.64,7.87-8.65,6.36-15.1,15.78-17.53,27.1-2.07,9.62-.93,19.19,2.69,27.59,5.64,13.09,17.29,23.35,32.29,26.58,6.06,1.3,12.09,1.33,17.83.28,17.58-3.23,32.35-16.69,36.35-35.26.17-.77.31-1.54.43-2.3Z"/>
        <path class="cls-6" d="M412.42,391.11c1.7-10.41-2.05-20.57-9.26-27.41-3.98-3.78-9.01-6.55-14.77-7.79-9.02-1.94-17.97.27-24.86,5.34-5.87,4.32-10.24,10.71-11.9,18.39-1.41,6.53-.63,13.02,1.82,18.72,3.82,8.88,11.73,15.85,21.91,18.04,4.11.89,8.2.91,12.1.19,11.93-2.19,21.95-11.33,24.66-23.92.11-.52.21-1.04.3-1.56Z"/>
        <path class="cls-12" d="M370,324.24s-.86-2.73-1.9-7.25c-1.04-4.51-2.2-10.82-2.79-17.87-1.19-14.12-.05-25.59.5-25.55.63.03.47,11.42,1.65,25.37.58,6.97,1.2,13.29,1.71,17.87.52,4.59.84,7.43.84,7.43Z"/>
        <path class="cls-12" d="M396.84,308.15s.63-3.15,1.65-8.24c.99-5.08,2.35-12.09,3.86-19.84,2.97-15.48,4.56-28.2,5.19-28.14.29.03.26,3.25-.2,8.43-.46,5.18-1.39,12.31-2.87,20.11-1.49,7.8-3.39,14.74-4.93,19.7-1.55,4.97-2.69,7.97-2.69,7.97Z"/>
        <path class="cls-12" d="M428.25,313.08s.51-.63,1.43-1.77c.94-1.12,2.24-2.8,3.79-4.89,3.12-4.18,7.09-10.16,10.8-17.13,7.51-13.97,10.09-26.75,10.76-26.59.26.05-.05,3.31-1.35,8.42-1.29,5.11-3.72,12.04-7.51,19.18-3.8,7.13-8.31,12.93-11.88,16.8-1.78,1.94-3.29,3.44-4.38,4.43-1.08.99-1.68,1.54-1.68,1.54Z"/>
        <path class="cls-12" d="M453.26,347.41s2.02-2.45,5.54-6.2c3.52-3.75,8.58-8.75,14.59-13.79,6.02-5.03,11.75-9.25,16.02-12.12,4.27-2.87,7.05-4.42,7.21-4.18.35.52-9.91,7.94-21.84,17.95-5.97,5-11.35,9.57-15.23,12.92-3.88,3.35-6.29,5.42-6.29,5.42Z"/>
        <path class="cls-12" d="M458.99,361.17s.92-.32,2.57-.89c1.66-.57,4.05-1.41,6.97-2.52,5.85-2.19,13.81-5.49,22.35-9.66,8.55-4.15,15.95-8.56,21.23-11.87,2.62-1.67,4.87-3.02,6.58-3.6,1.7-.61,2.72-.61,2.74-.48.04.16-.89.44-2.4,1.25-1.53.78-3.52,2.24-6.07,4.1-5.11,3.67-12.48,8.34-21.14,12.54-8.64,4.22-16.9,7.06-22.96,8.75-3.03.85-5.5,1.44-7.21,1.82-1.71.36-2.66.57-2.66.57Z"/>
        <path class="cls-12" d="M451.76,390.09s12.54-3.03,28.3-4.79c15.76-1.78,28.62-2.19,28.66-1.61.04.61-12.71,1.98-28.42,3.75-15.7,1.76-28.54,2.65-28.54,2.65Z"/>
        <path class="cls-12" d="M427.12,507.96s-.46-.81-1.28-2.28c-.79-1.49-1.86-3.69-2.93-6.53-2.2-5.65-4.08-13.92-4.8-23.12-.72-9.2-.74-17.5-.81-23.51-.03-6.01.1-9.74.4-9.75.3-.01.71,3.69,1.12,9.69.46,5.99.72,14.31,1.43,23.39.72,9.08,2.02,17.22,3.67,22.96.8,2.87,1.62,5.16,2.22,6.73.63,1.56.98,2.42.98,2.42Z"/>
        <path class="cls-12" d="M457.02,472.97s-1.66-1.82-4.13-4.93c-2.47-3.11-5.73-7.54-8.88-12.72-6.32-10.36-10.21-19.43-9.69-19.68.55-.27,5.27,8.29,11.53,18.56,3.09,5.17,5.89,9.84,7.93,13.23,2,3.42,3.24,5.54,3.24,5.54Z"/>
        <path class="cls-12" d="M501.18,459.71s-2.36-3-6.17-7.83c-3.84-4.8-9.28-11.28-16.61-17-7.26-5.8-14.64-10.03-19.9-13.18-5.3-3.11-8.57-5.09-8.42-5.36.14-.25,3.65,1.24,9.16,4.03,5.48,2.82,13.07,6.89,20.52,12.83,7.54,5.89,12.74,12.93,16.14,18.05,1.72,2.57,3.02,4.7,3.92,6.18.89,1.48,1.38,2.3,1.38,2.3Z"/>
        <path class="cls-12" d="M338.32,506.85s.64-.65,1.8-1.82c.59-.57,1.29-1.29,2.05-2.17.77-.88,1.69-1.82,2.59-2.98,1.89-2.23,3.94-5.04,6.04-8.25,2.05-3.25,4.11-6.93,5.97-10.95,1.81-4.04,3.2-8.03,4.26-11.71,1-3.7,1.71-7.1,2.11-9.98.85-5.76.89-9.41,1.25-9.41.24-.01.74,3.65.27,9.59-.22,2.97-.79,6.48-1.71,10.31-.98,3.82-2.35,7.94-4.22,12.1-1.91,4.14-4.15,7.86-6.42,11.08-2.32,3.18-4.63,5.88-6.75,7.96-1.01,1.08-2.04,1.95-2.91,2.74-.86.8-1.65,1.43-2.31,1.94-1.3,1.01-2.02,1.57-2.02,1.57Z"/>
        <path class="cls-12" d="M301.56,489.8s1.21-2.62,3.45-6.71c2.23-4.09,5.54-9.63,9.69-15.41,8.3-11.58,16.36-19.89,16.78-19.5.47.41-6.8,9.29-15.02,20.76-8.21,11.51-14.89,20.86-14.89,20.86Z"/>
        <path class="cls-12" d="M317.5,432.46s-12.81,6.82-28.7,14.91c-7.94,4.07-15.13,7.75-20.34,10.42-2.59,1.39-4.85,2.24-5.89,3.3-1.14,1.05-.83,2.03-1,2.05-.05.02-.23-.17-.3-.66-.07-.48.12-1.24.67-1.95.53-.71,1.39-1.4,2.41-2.02.99-.61,2.13-1.3,3.38-2.06,5.04-3.01,12.11-6.96,20.1-11.01,15.97-8.13,29.68-12.99,29.68-12.99Z"/>
        <path class="cls-12" d="M304.19,386.3s-3.29.1-8.61,0c-5.31-.11-12.7-.42-20.74-1.9-4.02-.76-7.8-1.73-11.18-2.82-3.36-1.15-6.33-2.35-8.72-3.6-4.79-2.45-7.36-4.59-7.22-4.79.19-.3,3.02,1.37,7.86,3.41,2.41,1.04,5.36,2.07,8.67,3.08,3.33.96,7.04,1.86,10.98,2.6,7.89,1.45,15.16,2.29,20.42,2.94,5.27.66,8.54,1.07,8.54,1.07Z"/>
        <path class="cls-12" d="M325.55,363.1s-13.82-6.08-30.22-14.75c-8.21-4.34-15.58-8.37-20.86-11.38-5.29-3.01-8.49-5.01-8.35-5.28s3.59,1.26,9.06,3.92c5.47,2.67,12.96,6.49,21.17,10.83,16.42,8.68,29.22,16.66,29.22,16.66Z"/>
        <path class="cls-12" d="M339.1,355.44s-.33-1.07-.93-3c-.28-.97-.65-2.15-1.15-3.49-.49-1.35-.98-2.9-1.7-4.55-.67-1.67-1.4-3.5-2.32-5.4-.84-1.94-1.9-3.93-2.97-6.04-2.25-4.17-4.94-8.63-8.09-13.09-3.19-4.43-6.55-8.41-9.79-11.86-1.66-1.68-3.21-3.32-4.78-4.72-1.52-1.47-3.01-2.74-4.38-3.9-5.5-4.61-9.26-7.05-9.07-7.36.08-.13,1.09.36,2.86,1.37.89.49,1.96,1.13,3.15,1.96,1.19.82,2.59,1.7,4.01,2.84,1.45,1.1,3.03,2.32,4.63,3.76,1.65,1.37,3.28,2.99,5.01,4.67,3.38,3.45,6.86,7.47,10.12,12,3.22,4.56,5.84,9.19,7.96,13.52,1,2.2,1.97,4.27,2.7,6.29.81,1.98,1.43,3.88,1.97,5.62.59,1.72.96,3.33,1.33,4.72.39,1.39.64,2.6.83,3.6.39,1.99.6,3.09.6,3.09Z"/>
      </g>
    </g>
  </g>
</svg>