<?xml version="1.0" encoding="UTF-8"?>
<svg id="Capa_2" data-name="Capa 2" xmlns="http://www.w3.org/2000/svg" viewBox="0 0 697.9 569.75">
  <defs>
    <style>
      .cls-1 {
        fill: #444458;
      }

      .cls-2 {
        fill: #b7e0ea;
      }

      .cls-3 {
        fill: #def4f9;
      }

      .cls-4 {
        fill: #5c5c6d;
      }

      .cls-5 {
        fill: #b0d1e4;
      }

      .cls-6 {
        fill: #92bfd6;
      }

      .cls-7 {
        fill: #f4becf;
      }

      .cls-8 {
        fill: #81d2cc;
      }

      .cls-9 {
        fill: #f9e5e8;
      }

      .cls-10 {
        fill: #f9d4e2;
      }

      .cls-11 {
        fill: #62c4bb;
      }

      .cls-12 {
        fill: #84848c;
      }

      .cls-13 {
        fill: #cce9f2;
      }

      .cls-14 {
        fill: #eefeff;
      }

      .cls-15 {
        fill: #6fadc6;
      }

      .cls-16 {
        fill: #717180;
      }

      .cls-17 {
        fill: #c9eef4;
      }

      .cls-18 {
        fill: #9ee8e1;
      }

      .cls-19 {
        fill: #f9e8ea;
      }
    </style>
  </defs>
  <g id="Capa_1-2" data-name="Capa 1">
    <g>
      <g>
        <path class="cls-1" d="M76.62,306.36s2.56.11,7.2.32c1.16.06,2.44.12,3.85.18,1.41.03,2.94-.03,4.58-.05,3.29-.08,7.03.03,11.14-.39,2.06-.15,4.21-.31,6.46-.47,2.24-.18,4.56-.58,6.96-.87,1.2-.16,2.42-.32,3.66-.48.62-.09,1.25-.15,1.87-.26.62-.12,1.25-.24,1.89-.37,2.53-.49,5.14-.99,7.81-1.5,10.62-2.38,22.12-5.73,33.78-10.39,11.61-4.79,22.16-10.45,31.4-16.2,2.26-1.51,4.47-2.98,6.61-4.41.54-.36,1.07-.71,1.6-1.06.52-.36,1.01-.76,1.51-1.13,1-.75,1.98-1.5,2.94-2.22,1.91-1.48,3.84-2.81,5.56-4.26,1.71-1.46,3.35-2.85,4.92-4.19,3.22-2.58,5.8-5.28,8.21-7.51,1.18-1.14,2.32-2.16,3.31-3.16.96-1.02,1.85-1.95,2.64-2.79,3.19-3.34,5.06-5.13,5.24-4.98s-1.33,2.22-4.25,5.86c-.73.91-1.55,1.92-2.44,3.02-.93,1.07-2.01,2.17-3.14,3.38-2.3,2.38-4.8,5.23-7.95,7.97-1.54,1.41-3.16,2.88-4.85,4.42-1.7,1.52-3.61,2.93-5.52,4.48-.96.76-1.94,1.54-2.94,2.33-.5.39-.99.8-1.51,1.18-.53.37-1.06.74-1.6,1.11-2.15,1.49-4.37,3.03-6.64,4.6-9.29,5.99-20,11.85-31.82,16.72-11.87,4.74-23.65,7.95-34.5,10.05-2.73.43-5.39.86-7.97,1.27-.65.1-1.29.2-1.92.3-.64.09-1.28.13-1.91.19-1.26.12-2.51.23-3.73.34-2.45.2-4.8.5-7.07.57-2.28.06-4.46.11-6.55.16-4.16.21-7.93-.12-11.23-.23-1.65-.09-3.19-.12-4.6-.24-1.41-.16-2.69-.31-3.85-.44-4.61-.55-7.16-.85-7.16-.85Z"/>
        <path class="cls-9" d="M33.47,273.46c-.86,2.78.13,5.54,1.8,8.02,1.07,1.58,2.41,3.05,3.74,4.33-5.04-.14-10.11.79-14.78,2.7-1.57.64-3.13,1.43-4.29,2.66-1.39,1.47-2.09,3.48-2.34,5.48-.79,6.2,2.6,12.39,7.67,16.09,7.49-9.75,19.67-15.69,31.97-17.73,14.43-2.39,29.18-.2,43.6,2.19,4.04.67,10.33,1.7,15.21,3.95-.82-1.2-1.93-2.23-3.03-3.2-7.7-6.76-16.28-12.41-24.86-18-8.4-5.47-17.06-11.01-26.84-13.2-5.94-1.33-12.16-1.36-18.11-.11-4.07.86-8.52,2.82-9.74,6.79Z"/>
        <path class="cls-7" d="M5.73,291.21c-4.6,6.32-3.08,16.23,3.2,20.88-1.72,2.21-4.11,3.78-6.04,5.81-1.93,2.03-3.44,4.86-2.7,7.55.41,1.51,1.48,2.76,2.6,3.84,4.51,4.34,10.61,6.96,16.86,7.26-2.85,3.43-5.85,7.26-5.84,11.72,0,3.68,2.19,7.13,5.19,9.26s6.72,3.04,10.39,3.22c7.74.39,15.41-2.68,21.17-7.83-2.65-.15-5.28-.78-7.68-1.92-.72-.34-1.47-.78-1.76-1.52-.36-.93.15-1.96.65-2.83,1.31-2.3,2.61-4.59,3.92-6.89-8.74,2.87-18.46-2.76-23.27-10.6-1.22-2-2.24-4.25-2.08-6.59.11-1.56.75-3.03,1.47-4.42.99-1.91,2.16-3.69,3.45-5.38-5.07-3.7-8.46-9.9-7.67-16.09.26-2.01.96-4.01,2.34-5.48,1.16-1.24,2.72-2.02,4.29-2.66,4.67-1.92,9.73-2.84,14.78-2.7-1.33-1.29-2.68-2.76-3.74-4.33-3.73.14-7.45.47-11.14,1.01-6.9,1-14.29,3.07-18.4,8.71Z"/>
        <path class="cls-10" d="M21.82,318.14c-.72,1.39-1.36,2.86-1.47,4.42-.17,2.33.85,4.59,2.08,6.59,4.81,7.84,14.53,13.46,23.27,10.6-1.31,2.3-2.61,4.6-3.92,6.89-.49.87-1.01,1.89-.65,2.83.29.74,1.04,1.18,1.76,1.52,2.4,1.14,5.03,1.77,7.68,1.92,2.82.16,5.67-.24,8.32-1.22-2.3,3.16-4.48,7.95-1.52,10.5,1.82,1.57,4.56,1.17,6.92.68,6.65-1.39,13.43-2.82,19.3-6.23,4.65-2.7,8.53-6.52,12.24-10.42,5.48-5.77,10.69-11.8,15.76-17.93,3.62-4.39,8.42-9.07,10.66-14.41,2.69-6.41-.93-10.28-6.2-12.71-4.88-2.25-11.16-3.29-15.21-3.95-14.43-2.39-29.18-4.58-43.6-2.19-12.3,2.04-24.48,7.98-31.97,17.73-1.29,1.69-2.46,3.47-3.45,5.38Z"/>
        <path class="cls-19" d="M72.74,346.39c11.34-5.01,21.32-13.04,28.64-23.05"/>
        <path class="cls-19" d="M43.57,314.13c14.92-5.21,30.52-8.49,46.28-9.71"/>
        <path class="cls-19" d="M82.02,285.46c-11.02-7.36-23.87-11.96-37.06-13.26"/>
        <path class="cls-19" d="M26.81,348.52c4.17-1.46,8.34-2.92,12.52-4.39"/>
        <path class="cls-19" d="M9.75,321.98c2.72-.62,5.38-1.48,7.95-2.57"/>
        <path class="cls-19" d="M11.45,300.41c1.04.45,2.25.51,3.33.15"/>
        <path class="cls-1" d="M112.14,299.87c1.37,2.16,3.02,4.13,4.74,6.03-2.73,2.64-5.8,4.94-9.1,6.82,2.59.86,5.36,1.17,8.07.87-.17,2.13.32,4.46.86,6.56.58,2.24,1.18,4.52,1.93,6.72.75-4.22,1.89-8.36,3.92-12.11,2.28-4.21,5.83-7.89,10.16-9.8-.02-.23-.04-.47-.09-.69-2.09-10.15-14.65-9.09-23.29-10.44.63,2.13,1.61,4.17,2.8,6.04Z"/>
      </g>
      <g>
        <path class="cls-16" d="M389.71,405.19c.15-.71.31-1.49.49-2.35.16-.86.28-1.81.43-2.83.28-2.03.69-4.34.85-6.93.1-1.29.22-2.64.33-4.05.1-1.41.09-2.88.14-4.41.14-3.05-.04-6.31-.17-9.74-.47-6.85-1.5-14.36-3.39-22.08-1.96-7.69-4.55-14.82-7.3-21.11-1.47-3.11-2.82-6.08-4.35-8.73-.75-1.33-1.41-2.65-2.16-3.85-.75-1.2-1.48-2.35-2.17-3.45-.24-.4-.49-.78-.74-1.16.95,1.16,1.89,2.34,2.84,3.52,0,.31.68,1.71,2.33,3.78.84,1.04,1.96,2.23,3.35,3.47,14.03,18.27,26.4,36.44,37.06,53.49,2.8,4.68,5.53,9.23,8.18,13.66.66,1.11,1.32,2.21,1.98,3.3.64,1.1,1.23,2.22,1.83,3.31,1.21,2.19,2.39,4.35,3.56,6.48,1.17,2.12,2.32,4.21,3.44,6.26,1.11,2.06,2.28,4.04,3.25,6.06,2.02,4.02,3.96,7.88,5.82,11.56,3.83,7.31,6.77,14.17,9.55,20.1,1.36,2.98,2.68,5.73,3.81,8.3,1.09,2.59,2.08,4.95,2.97,7.08,1.8,4.25,3.22,7.54,4.21,9.77.99,2.22,1.56,3.37,1.65,3.34s-.29-1.26-1.11-3.55c-.82-2.29-2.07-5.66-3.71-9.98-.83-2.16-1.74-4.56-2.75-7.19-1.05-2.61-2.31-5.4-3.6-8.42-2.65-6.01-5.47-12.95-9.19-20.34-1.81-3.72-3.7-7.62-5.67-11.68-.95-2.05-2.1-4.05-3.19-6.13-1.11-2.07-2.24-4.18-3.39-6.32-1.15-2.14-2.32-4.32-3.51-6.54-.6-1.1-1.18-2.23-1.81-3.34-.65-1.1-1.3-2.21-1.95-3.33-2.63-4.47-5.33-9.07-8.11-13.78-9.21-14.94-19.76-30.73-31.61-46.66,4.1,2.37,9.06,4.6,14.36,7.1,6.05,2.87,12.61,6.22,19.24,10.14,13.3,7.78,24.16,16.69,30.88,24.26.88.91,1.65,1.84,2.38,2.71.72.88,1.44,1.68,2.06,2.48,1.19,1.62,2.28,2.98,3.08,4.16,1.58,2.37,2.46,3.68,2.46,3.68,0,0-.74-1.4-2.08-3.92-.69-1.25-1.65-2.71-2.72-4.45-.55-.86-1.21-1.72-1.87-2.67-.67-.94-1.37-1.94-2.2-2.92-6.25-8.14-16.97-17.88-30.51-25.8-6.74-3.99-13.43-7.31-19.6-10.08-6.19-2.76-11.75-5.01-16.13-7.47-.89-.49-1.71-.98-2.5-1.47-1.91-2.52-3.85-5.04-5.82-7.56-15.72-19.79-31.99-37.57-47.48-53.03-3.95-3.79-7.8-7.48-11.55-11.06-.94-.9-1.87-1.79-2.79-2.67-.55-.51-1.1-1-1.65-1.48,4.83,2.64,10.87,5.09,17.72,7.21,7.02,2.17,14.87,3.96,23.08,5.75,8.19,1.78,15.94,3.58,22.83,5.73,6.88,2.16,12.91,4.62,17.68,7.27,4.77,2.63,8.37,5.26,10.67,7.29.6.48,1.1.94,1.53,1.35.43.41.79.75,1.09,1.03.59.56.9.85.9.85,0,0-.28-.32-.81-.93-.27-.31-.6-.69-.99-1.13-.39-.45-.84-.96-1.41-1.49-2.13-2.24-5.56-5.19-10.25-8.19-4.68-3.02-10.71-5.88-17.64-8.33-6.93-2.45-14.76-4.45-22.98-6.24-8.21-1.78-16-3.48-22.94-5.48-6.93-2-13.03-4.25-17.9-6.67-2.39-1.16-4.48-2.33-6.29-3.43-.6-.61-1.13-1.11-1.58-1.49.98.64,1.55.94,1.63.85.25-.31-4.19-4.38-11.58-10.71-7.39-6.33-17.72-14.93-29.25-24.29-3.9-3.17-7.7-6.2-11.33-9.06-.04-.03-.07-.07-.1-.1-.84-.8-1.72-1.46-2.57-2-.81-.63-1.6-1.25-2.39-1.86-1.36-1.06-2.69-2.09-3.98-3.09-.52-.41-1.04-.81-1.55-1.22l-.38-.3-.18-.14-.12-.04-.49-.17c-.32-.12-.65-.23-.96-.35-.2-.19-.22.22-.3.41-.08.23-.12.44-.19.65-.23.82-.24,1.67.03,2.59.09.23.15.46.25.69.12.23.22.46.35.69l.44.67c.15.22.35.44.44.55.94,1.08,2,1.92,3,2.63,7.86,5.74,12.81,9.18,12.81,9.18,0,0-2.94-2.61-7.97-6.93.47.35.87.58,1.17.65.49.36.99.72,1.51,1.11,1.86,1.36,3.94,2.88,6.2,4.53,2.24,1.69,4.61,3.62,7.19,5.64,5.12,4.1,11.1,8.57,17.3,14.02,3.14,2.67,6.43,5.47,9.86,8.39,1.74,1.43,3.39,3.03,5.13,4.6,1.72,1.58,3.48,3.19,5.27,4.83,1.33,1.22,2.68,2.45,4.04,3.7.55.85,1.13,1.77,1.73,2.78,3.72,6.17,7.66,15.43,9.83,26.23,2.17,10.8,2.7,20.88,2.97,28.17.12,3.65.18,6.62.21,8.67.04,2.05.06,3.19.06,3.19,0,0,.14-1.13.39-3.17.24-2.04.54-5,.78-8.67.45-7.32.65-17.62-1.59-28.77-1.14-5.56-2.76-10.75-4.69-15.28-1.19-2.81-2.49-5.37-3.81-7.64.35.35.7.69,1.06,1.04,3.68,3.62,7.47,7.35,11.35,11.17,10.57,10.81,21.53,22.72,32.48,35.56.33.64,1.03,1.75,2.06,3.29.4.59.85,1.25,1.34,1.97.48.73.96,1.55,1.5,2.41,1.06,1.74,2.36,3.64,3.57,5.9.63,1.11,1.29,2.27,1.98,3.48.68,1.21,1.29,2.53,1.98,3.86,1.42,2.65,2.66,5.6,4.03,8.68,2.57,6.23,5.02,13.22,6.94,20.76,1.85,7.55,3.03,14.87,3.76,21.57.26,3.36.59,6.56.62,9.56.04,1.5.14,2.95.12,4.35-.02,1.4-.04,2.74-.06,4.02.03,2.57-.21,4.87-.32,6.91-.07,1.02-.11,1.97-.19,2.84-.1.87-.19,1.66-.27,2.38-.32,2.86-.49,4.45-.49,4.45,0,0,.34-1.56.94-4.38ZM306.71,242.79s-.03.07-.01.14c-.34-.3-.68-.6-1.02-.91.38.28.74.53,1.07.76-.01,0-.03,0-.04,0ZM246.9,194.95s.04-.12.1-.03l.28.26s.06.06.09.08c-.23-.02-.41-.04-.55-.04,0-.05,0-.1.02-.14.02-.05.03-.09.06-.13ZM247.08,196.2l-.09-.17c-.06-.11-.1-.22-.14-.33,0-.02,0-.03,0-.05.2.26.49.61.83,1.01.66.76,1.51,1.72,2.52,2.65-.05-.04-.1-.07-.15-.1-.08-.07-.16-.13-.24-.2-.93-.77-1.82-1.6-2.56-2.58l-.17-.24ZM255.45,202.92c.07-.09.1-.23.1-.41.67.63,1.31,1.24,1.92,1.8-.26-.18-.52-.36-.77-.53-.43-.3-.85-.58-1.26-.87Z"/>
        <path class="cls-8" d="M441.78,498.76c-.93,15.91,4.19,31.7,11.91,45.64,4.97,8.98,11,17.29,17.39,25.35-.17-7.57-.08-15.15,1.06-22.62,3.54-23.28,17.08-45.98,11.79-68.93-3.6-15.6-15.12-27.52-27.78-37.86-2.63,19.67-13.19,38.38-14.36,58.42Z"/>
        <path class="cls-11" d="M379.33,488.6c3.57-7.74,8.84-14.55,13.12-21.93,17.37-29.96,16-69.43-2.07-98.76-3.97,10.95-9.68,21.28-16.91,30.42-9.54,12.07-21.85,22.46-27.46,36.78-9.41,23.99,2.67,50.53,14.48,73.43,4.22,8.18,8.44,16.36,12.65,24.54-.65-15.28-.15-30.73,6.19-44.48Z"/>
        <path class="cls-18" d="M344.38,328.93c2-10.17-.55-20.81-5.15-30.09-3.11-6.29-7.13-12.06-11.42-17.63-10.73,12.08-28,21.36-30.23,37.35-.56,4.04-.06,8.14.55,12.17,3.89,26.1,11.76,51.6,23.21,75.38,2.06-20.06,7.37-39.78,15.71-58.14,2.82-6.21,6.01-12.35,7.32-19.03Z"/>
        <path class="cls-8" d="M392.33,296.02c16.93,12.5,40.74,5.99,61.43,9.88,2.62.49,5.19,1.16,7.7,1.96-8.01-8.58-15.41-17.74-22.07-27.41-5.43-7.89-10.83-16.5-19.45-20.66-7.48-3.61-16.39-3.24-24.31-.78-7.02,2.18-13.43,5.88-19.71,9.72,3.01,10.74,7.64,20.8,16.42,27.29Z"/>
        <path class="cls-18" d="M442.9,402.71c11.43,14.07,25.5,26,41.26,34.97,10.26,5.84,21.28,10.49,31.89,15.73-8.31-12.48-14.61-26.31-18.47-40.8-3.4-12.71-5.06-26.16-11.52-37.62-10.94-19.41-36.04-29.2-57.36-23.34.19,10.54-.66,21.31,2.56,31.28,2.36,7.33,6.8,13.8,11.65,19.78Z"/>
      </g>
      <g>
        <path class="cls-16" d="M443.79,237.98c-1.5-1.09-3.58-2.74-5.92-5.05-2.35-2.29-4.96-5.21-8.06-8.39-3.1-3.15-6.81-6.62-11.7-9.05-1.25-.55-2.47-1.11-3.78-1.46-1.26-.43-2.57-.7-3.84-.87-.45-.06-.89-.1-1.33-.14,6.08-1.44,12.82-2.58,19.96-3.52,7.48-.96,14.67-1.8,21.2-2.79,6.53-.98,12.4-2.12,17.25-3.37,4.86-1.24,8.71-2.52,11.32-3.53,1.31-.47,2.3-.93,2.98-1.2.68-.29,1.03-.43,1.03-.43,0,0-1.49.37-4.2,1.04-2.7.65-6.64,1.44-11.53,2.18-4.89.75-10.74,1.39-17.27,2-6.52.61-13.73,1.2-21.31,2.18-7.58.99-14.79,2.32-21.22,4.1-4.54,1.26-8.68,2.71-12.31,4.28-1.27.23-2.5.49-3.63.82-.41.11-.8.23-1.18.36,6.58-7.19,12.66-14.34,18.18-21.28,4.69-6.17,9.22-11.97,13.04-17.71,1.94-2.85,3.9-5.54,5.61-8.24,1.69-2.71,3.32-5.31,4.88-7.79,3.19-4.91,5.65-9.61,7.94-13.65,1.12-2.04,2.2-3.91,3.11-5.68.88-1.79,1.68-3.42,2.39-4.89,2.85-5.89,4.31-9.19,4.06-9.32s-2.17,2.95-5.42,8.59c-.81,1.41-1.7,2.98-2.69,4.7-1.01,1.7-2.17,3.52-3.38,5.49-2.46,3.92-5.07,8.48-8.39,13.26-1.61,2.42-3.3,4.95-5.05,7.59-1.76,2.63-3.77,5.26-5.75,8.04-3.9,5.61-8.49,11.29-13.21,17.33-5.32,6.5-11.11,13.21-17.34,19.98.23-.59.45-1.19.65-1.81,1.04-3.22,1.71-6.36,1.91-9.37.18-2.98-.12-5.75-.9-7.95-.72-2.22-1.92-3.79-2.87-4.65-.96-.88-1.69-1.09-1.85-.91-.43.45,1.41,2.39,2,6.26.33,1.91.32,4.29-.02,6.9-.36,2.6-1.09,5.53-2.05,8.49-1.38,4.27-3.06,8.12-4.69,11.31-2.77,2.86-5.61,5.72-8.54,8.56-12.79,12.25-25.73,23.11-37.9,32.48-6.19,4.54-12,8.97-17.72,12.7-2.84,1.9-5.52,3.83-8.21,5.52-2.69,1.68-5.28,3.29-7.75,4.83-4.88,3.18-9.53,5.65-13.53,7.98-2.01,1.14-3.87,2.24-5.61,3.19-.04.02-.07.04-.11.06-.69.33-1.37.66-2.03.94-1.81.79-3.48,1.52-4.99,2.19-3.06,1.25-5.52,2.2-7.17,2.91l-1.94.84,1.98.12c.39.02.68-.03.93-.1-.3.16-.46.24-.46.24,0,0,.25-.11.71-.32.18-.07.35-.14.52-.2,1.61-.41,3.67-.95,6.08-1.66,1.59-.53,3.34-1.12,5.24-1.75,1.9-.64,3.88-1.49,6.01-2.31,8.46-3.46,18.55-8.59,28.54-15.26,7.44-4.89,14.22-9.98,20.2-14.81,5.99-4.83,11.21-9.35,15.5-13.26.21-.19.4-.37.6-.55,7.9-6.37,15.93-13.34,23.84-20.92,2.81-2.73,5.53-5.48,8.19-8.23,2.3-1.29,5.34-2.9,9.13-4.5,1.15-.49,2.37-.98,3.64-1.46,2.36-.23,4.97-.37,7.78-.44,2.13-.03,4.33.04,6.52.39,1.09.18,2.18.41,3.24.8,1.09.3,2.14.79,3.21,1.26,4.22,2.09,7.85,5.09,11.15,7.93,3.3,2.84,6.32,5.48,9.07,7.46,2.74,1.99,5.18,3.29,6.89,4.07,1.75.72,2.72,1.04,2.72,1.04,0,0-.86-.56-2.42-1.58Z"/>
        <path class="cls-8" d="M487.21,236.37c-8.31-7.65-19.98-10.26-31.15-11.97-8.38-1.28-17.46-2.01-25.57-.13,11.84,12.47,20.42,28.33,31.49,41.76,7.84,9.5,16.99,17.8,26.12,26.07,5.83,5.29,11.92,10.73,19.42,13.12,2.37.75,4.92,1.11,7.44,1.05-16.2-19.53-9.02-52.67-27.76-69.9Z"/>
        <path class="cls-8" d="M478.89,72.92c-7.14,8.61-16.59,15.52-25.02,23.07-11.35,10.18-21.85,23.94-20.18,39.1.61,5.56,2.84,10.81,4.03,16.28,0,.04.01.08.02.11,13-8.86,22.89-23.34,28.94-38.23,5.29-13.02,8.56-26.75,12.21-40.34Z"/>
        <path class="cls-8" d="M394.23,166.21c-5.73-11.19-16.71-18.73-28.02-24.22s-23.39-9.42-34.15-15.92c-9.21-5.56-17.28-12.99-23.66-21.65-2.27,4.51-3.99,9.25-4.62,14.24-.84,6.64.25,13.39,2.13,19.81,6.01,20.53,20.4,38.48,39.13,48.81,14.32,7.9,31.05,11.26,47.33,9.79,6.6-8.29,6.82-21.17,1.86-30.86Z"/>
        <path class="cls-8" d="M552.74,194.86c12.42-8.51,24.48-17.54,36.16-27.04-19.75-1.59-40.85-13.07-60.89-9.2-9.96,1.93-18.78,7.53-27.26,13.09-14.68,9.62-29.21,19.46-43.6,29.52,23.28,3.29,47.5,13.52,70.08,7.07,9.28-2.65,17.55-7.97,25.51-13.43Z"/>
        <g>
          <path class="cls-4" d="M531.97,181.56c-17.35,9.89-36.55,14.85-56.52,14.62-2.3-.03-2.29,3.54,0,3.56,20.57.24,40.45-4.92,58.32-15.1,1.99-1.13.19-4.21-1.8-3.07h0Z"/>
          <path class="cls-4" d="M330.31,144.36c11.44,4.12,22.18,10,31.01,18.47,9.14,8.77,15.46,19.78,21.63,30.71,1.13,2,4.2.2,3.07-1.8-6.71-11.87-13.66-23.79-23.89-33.02-8.97-8.08-19.62-13.74-30.92-17.81-2.16-.78-3.05,2.67-.9,3.45h0Z"/>
        </g>
      </g>
      <g>
        <path class="cls-4" d="M648.98,87.92c-.09-.17-1.17.36-3.18.99-2,.64-4.98,1.34-8.73,1.44-3.74.13-8.2-.42-13.06-1.6-4.86-1.17-10.16-2.87-15.78-4.54-5.62-1.67-11.1-3.06-16.19-3.76-2.84-.42-5.59-.58-8.14-.44,14.7-6.63,28.42-11.84,40.43-15.83,1.79-.66,3.59-1.16,5.32-1.7,1.74-.54,3.43-1.06,5.07-1.56,3.3-1,6.38-2.04,9.32-2.77,2.93-.79,5.66-1.53,8.17-2.21,2.51-.69,4.8-1.34,6.89-1.79,8.33-1.97,12.92-3.19,12.87-3.46-.05-.27-4.74.43-13.21,1.93-2.12.34-4.45.87-7,1.45-2.55.58-5.32,1.22-8.3,1.9-2.99.63-6.12,1.58-9.46,2.48-1.67.46-3.39.94-5.15,1.43-1.76.5-3.58.96-5.4,1.58-7.09,2.17-14.77,4.78-22.89,7.86,3.91-2.55,8.25-5.51,12.85-8.67,3.91-2.7,7.64-5.3,10.87-7.93,3.24-2.62,5.95-5.27,7.95-7.72,2.02-2.44,3.34-4.65,4.12-6.21.42-.77.66-1.41.85-1.83.18-.42.28-.65.28-.65,0,0-.13.21-.37.6-.24.39-.57.98-1.08,1.69-.97,1.44-2.5,3.43-4.69,5.6-2.17,2.19-4.99,4.52-8.3,6.92-3.3,2.39-7.08,4.85-11,7.56-7.84,5.39-14.8,10.44-19.95,13.9-.1.07-.2.13-.3.2-6.07,2.47-12.34,5.19-18.76,8.18-13.12,6.13-26.82,13.46-40.61,21.98,1.17-1.43,2.34-2.88,3.49-4.39,2.02-2.66,3.94-5.26,5.69-7.92,1.74-2.66,3.24-5.42,4.18-8.26.96-2.86,1.25-5.66,1.56-8.18.29-2.54.63-4.83,1.21-6.89,1.12-4.13,2.78-7.25,4.06-9.29.64-1.03,1.19-1.79,1.57-2.31.39-.51.59-.78.59-.78,0,0-.23.24-.67.71-.43.48-1.06,1.19-1.8,2.16-1.47,1.94-3.44,4.96-4.9,9.15-.75,2.08-1.26,4.49-1.69,7.01-.45,2.52-.86,5.18-1.84,7.74-1.93,5.19-5.92,10.11-9.87,15.39-2.81,3.68-5.65,7.12-8.49,10.23-3.3,2.14-6.6,4.32-9.9,6.59-14.05,9.69-26.93,19.99-38.48,30.39,1.43-2.65,2.73-5.53,3.67-8.68,1.02-3.32,1.61-6.95,1.68-10.62.09-3.66-.14-7.17-.18-10.51-.06-3.35.03-6.57.31-9.62.54-6.09,1.98-11.47,4.01-15.63,1.99-4.19,4.44-7.13,6.3-8.95.94-.9,1.73-1.56,2.28-1.98.55-.42.84-.64.84-.64,0,0-.31.19-.9.55-.59.37-1.43.95-2.47,1.78-2.04,1.68-4.78,4.48-7.12,8.67-2.38,4.16-4.18,9.69-4.96,15.96-.41,3.13-.59,6.44-.6,9.85-.02,3.42.18,6.92.08,10.43-.08,7.01-2.3,13.42-5.15,18.79-1.12,2.11-2.33,4.07-3.57,5.88-2.31,2.17-4.57,4.33-6.76,6.49-.92.88-1.82,1.76-2.73,2.64-.87.91-1.73,1.81-2.59,2.71-1.71,1.8-3.4,3.57-5.06,5.32-3.35,3.47-6.48,6.95-9.44,10.37-5.95,6.81-11.25,13.35-16.01,19.38-.96,1.23-1.9,2.43-2.82,3.61-2.63,3.02-5.48,6.23-8.5,9.53-4.93,5.39-9.54,10.43-13.45,14.7-.97,1.06-1.91,2.06-2.79,3.02-.42.32-.82.74-1.15,1.28-.03.05-.04.11-.07.16-.15.19-.28.39-.42.59-.77.29-1.6.98-2.13,2.01-.57,1.13-.34,2.4.09,3.17,0,.02.02.02.03.04.03.79.25,1.52.58,2.08l.31.53.41-.33c1-.83,1.62-1.67,2.03-2.38.94-.65,2.06-1.57,3-2.79,1.38-1.78,2.35-3.51,2.68-4.66.29-.36.58-.73.88-1.11.66-.83,1.36-1.7,2.09-2.62,3.47-3.21,7.19-6.9,10.9-10.97,10.39-11.38,18.07-22.25,21.35-27.83,1.64-1.83,3.31-3.69,5.05-5.57,1.02-1.11,2.08-2.24,3.13-3.36.77-.57,1.59-1.16,2.48-1.76,3.67-2.5,8.36-4.98,13.8-7.21,5.44-2.23,11.65-4.17,18.25-5.9,6.61-1.75,12.93-3.16,18.77-3.57,5.82-.42,11.16.22,15.66.45,4.51.29,8.2.22,10.71-.08,1.26-.15,2.23-.3,2.88-.44.65-.13.99-.2.99-.2,0,0-.35.03-1.01.1-.66.08-1.63.14-2.89.17-2.51.07-6.12-.16-10.57-.75-4.45-.52-9.78-1.48-15.88-1.28-6.07.19-12.61,1.5-19.27,3.27-6.68,1.76-12.97,3.79-18.5,6.19-3.49,1.51-6.67,3.15-9.45,4.85.18-.18.35-.36.53-.54,1.69-1.7,3.4-3.42,5.13-5.16.87-.87,1.74-1.75,2.62-2.63.91-.85,1.83-1.7,2.76-2.56,10.4-9.9,22.1-19.93,34.88-29.65,4.01-2.48,8.71-5.12,14.05-7.62,6.26-2.95,13.37-5.75,21.22-6.79,7.83-1.11,15.47-.58,22.21.76,6.78,1.32,12.58,3.62,17.45,5.69,4.87,2.06,8.95,3.51,11.84,4.18,1.45.33,2.58.53,3.36.63.77.09,1.18.15,1.18.15,0,0-.4-.08-1.16-.25-.76-.17-1.87-.45-3.27-.89-2.82-.88-6.71-2.58-11.45-4.92-4.72-2.33-10.58-5-17.51-6.58-6.89-1.61-14.81-2.32-22.98-1.16-7.56,1-14.39,3.62-20.34,6.45.23-.17.47-.34.7-.52.84-.62,1.68-1.3,2.53-2,18.58-12.69,37.31-23.26,54.95-31.72,1.74-.83,3.46-1.64,5.17-2.43,3.43-.54,7.5-.28,11.9.58,4.92.9,10.24,2.39,15.83,4.06,5.6,1.66,10.95,3.31,15.97,4.39,5.02,1.09,9.73,1.5,13.65,1.14,3.93-.33,7-1.34,8.97-2.27,1.99-.93,2.91-1.74,2.84-1.86ZM398.89,235.4s0,0,0,.01c0,0,0,0,0,0,0,0,0,0,0,0ZM398.91,235.66s.1-.05.18-.09c-.06.04-.12.08-.18.12,0-.01,0-.03,0-.04ZM406.67,226.01s-.01-.03-.02-.04c.04-.04.08-.07.13-.11-.04.05-.07.1-.11.15Z"/>
        <path class="cls-19" d="M582.5,43.82c-2.33-3.49-6.87-5.08-11.04-4.63-4.17.45-7.98,2.68-11.1,5.49,1.72-3.29,3.49-6.86,2.98-10.54-.51-3.68-4.45-7.06-7.84-5.54-1.54.69-2.56,2.17-3.44,3.61-3.37,5.45-6.1,11.43-6.85,17.79-.66,5.52.31,11.36,3.25,16.03.78-1.02,1.71-1.93,2.73-2.67,4.05-2.92,9.16-3.83,14.04-4.9,3.49-.76,6.96-1.64,10.39-2.63,3.04-.88,6.37-2.12,7.72-4.98,1.05-2.23.53-4.97-.83-7.02Z"/>
        <path class="cls-10" d="M630.12,45.75c2.55-1.61,5.37-2.9,8.14-3.87,7.9-2.76,16.66-4.43,22.66-10.26,3.39-3.29,5.63-8.46,3.7-12.77-1.24-2.78-4.19-4.72-7.24-4.76s-6.04,1.82-7.35,4.58c-.41-3.52.34-7.09-.03-10.61s-2.41-7.32-5.89-7.96c-3.79-.69-7.11,2.61-9.07,5.93-6.9,11.7-6.23,26.1-4.92,39.73Z"/>
        <path class="cls-7" d="M660.48,100.73c.28-2.09-.87-3.99-2.36-5.58,1.94-.6,3.72-1.66,5.08-3.19,3.36-3.8,3.3-10.38-.57-13.66-2.9-2.46-7.19-2.73-10.81-1.54s-6.68,3.61-9.52,6.14c-2.84,2.53-5.58,5.23-8.86,7.15-1.4.82-2.89,1.47-4.43,1.98,5.1,6.19,12.11,10.81,19.85,12.93,2.26.62,4.67,1.04,6.94.46,2.27-.58,4.37-2.36,4.68-4.69Z"/>
        <path class="cls-19" d="M677.35,63.18c3.5,1.93,7.07,4.04,11.06,4.36,3.98.32,8.5-1.84,9.35-5.74.72-3.3-1.45-6.7-4.36-8.42-2.91-1.72-6.4-2.1-9.77-2.31,3.77-3.73,6.77-8.76,6.31-14.04-.46-5.28-5.55-10.25-10.71-9.05-2.36.55-4.3,2.19-6.07,3.85-6.8,6.39-12.57,13.84-17.1,22,1.41.31,2.78.81,4.13,1.33,5.89,2.3,11.64,4.98,17.18,8.03Z"/>
        <path class="cls-19" d="M549.74,161.99c-3.04-2.89-7.34-4.06-11.52-4.37,4.93.2,9.92-1.56,13.63-4.82.9-.79,1.76-1.71,2.06-2.87.27-1.04.05-2.16-.37-3.14-1.16-2.68-3.79-4.53-6.61-5.26s-5.82-.44-8.66.25c-3.61.88-7.07,2.4-10.15,4.48-3.29,2.22-6.14,5.06-9.47,7.22-1.58,1.02-3.32,1.89-5.13,2.42,6.56,5.13,12.15,12.14,18.87,17.25,2.97,2.26,6.34,4.21,10.05,4.6s7.81-1.09,9.65-4.33c2.07-3.64.69-8.54-2.35-11.42Z"/>
        <path class="cls-10" d="M620.68,135.57c-.46-1.09-1.28-1.99-2.11-2.84-1.92-1.95-4.01-3.74-6.24-5.34.9-.44,1.77-.94,2.61-1.5,3.29-2.19,6.22-5.93,5.29-9.76-1.06-4.38-6.49-6.17-10.98-5.74-2.07.2-4.12.7-5.98,1.62-3.19,1.56-5.68,4.22-8.53,6.35-3.35,2.5-7.24,4.22-11.32,5.12,1.04.92,2.03,1.91,2.92,2.98,2.12,2.53,3.8,5.42,6.02,7.87,3.21,3.54,7.45,6.01,11.8,7.98,3.52,1.59,7.44,2.92,11.18,1.95s6.83-5.14,5.34-8.7Z"/>
        <path class="cls-7" d="M514.41,72.8c-1.98-1.6-4.86-1.01-7.32-.35,3.56-2.22,5.07-7.23,3.33-11.05-1.74-3.82-6.5-5.97-10.52-4.75-3.57,1.09-6.07,4.32-7.77,7.65-1.36,2.66-2.37,5.51-3,8.43-.7,3.27-.94,6.62-1.87,9.84-.64,2.19-2.44,4.75-1.71,6.91,7.79-1.48,17.54-2.42,24.74-5.91,2.07-1,4.06-2.41,5.09-4.46,1.03-2.06.81-4.86-.97-6.3Z"/>
      </g>
      <g>
        <path class="cls-16" d="M204.02,239.24c.49.15,1.22.33,2.14.63,1.85.56,4.49,1.48,7.68,2.74,3.2,1.26,6.94,2.93,11.11,4.79,4.17,1.86,8.78,3.92,13.8,5.73,5.04,1.8,10.02,3.1,14.66,3.76,4.64.65,8.9.7,12.43.21,1.05-.14,2.02-.31,2.92-.51.43-.06.86-.13,1.31-.21.71-.12,1.45-.27,2.21-.45-.08.06-.15.11-.23.17-6.87,5.1-13.82,11.58-20.06,19.28-6.19,7.74-11.07,15.88-14.65,23.66-1.82,3.88-3.26,7.69-4.52,11.28-1.19,3.61-2.18,7.02-2.91,10.17-1.47,6.3-2.15,11.49-2.39,15.08-.24,3.6-.17,5.59.03,5.61.23.02.56-1.94,1.18-5.45.6-3.51,1.61-8.57,3.32-14.68.85-3.06,1.94-6.35,3.21-9.85,1.34-3.47,2.83-7.16,4.68-10.92,3.64-7.53,8.47-15.41,14.49-22.94,6.07-7.49,12.69-13.93,19.24-19.15,2.03-1.65,4.07-3.15,6.07-4.56.16-.06.33-.12.49-.19,3.7-1.43,7.62-3.34,11.61-5.45,3.82-2.02,7.38-4.05,10.66-5.8.75-.4,1.48-.79,2.2-1.16.91-.09,2.02-.31,3.23-.82,1.24-.52,2.59-1.34,3.8-2.61l2.07-2.16-2.98.84c-2.79.79-6.03,1.96-9.5,3.5-2.25,1-4.6,2.16-7.01,3.39-.92.4-1.85.81-2.82,1.27-2.93,1.35-6.05,3.02-9.34,4.92-.08.05-.16.1-.24.15-.94.44-1.87.87-2.78,1.27-3.51,1.54-6.76,2.68-9.54,3.44-.74.2-1.44.38-2.1.54-.59.05-1.2.1-1.84.13-3.36.18-7.38-.08-11.78-.86-4.4-.78-9.17-2.11-14.06-3.86-4.91-1.77-9.56-3.64-13.86-5.23-4.3-1.6-8.24-2.93-11.61-3.83-3.37-.92-6.14-1.46-8.07-1.74-.96-.16-1.71-.22-2.22-.29-.51-.06-.77-.09-.77-.09,0,0,.26.08.75.22Z"/>
        <path class="cls-8" d="M150.25,429.75c-2.24,9.69-3.6,19.58-5.39,29.36,15.06-14.92,33.92-26.01,54.34-31.75,8.63-2.43,17.62-3.96,25.58-8.08,17.13-8.86,26.64-28.97,26.11-48.25-.48-17.68-8.36-34.48-19.41-48.38-40.28,22.38-70.84,62.12-81.23,107.1Z"/>
        <path class="cls-8" d="M92.82,211.92c6.49,1.6,12.31,6.52,17.57,11.04,17.55,15.1,37.22,28.64,59.65,34.38,21.28,5.44,45.47,2.9,62.82-10.34-.39-1.35-.78-2.71-1.18-4.05-7.46-24.6-23.37-46.55-44.43-61.29-7.15-5-15.08-9.27-23.73-10.4-16.32-2.15-31.97,7.09-44.49,17.78-8.8,7.51-16.97,16.01-26.2,22.87Z"/>
        <g>
          <path class="cls-12" d="M148.36,230.76c24.64-3.69,49.81-.86,73.06,8.08,1.32.51,1.85-1.62.55-2.12-23.63-9.09-49.16-11.82-74.18-8.08-1.39.21-.81,2.32.57,2.12h0Z"/>
          <path class="cls-12" d="M187.88,228.74c-8.31,4.68-16.83,8.85-26.6,8.54-1.42-.04-1.4,2.15.01,2.19,10.14.31,19.07-3.99,27.71-8.85,1.23-.69.11-2.58-1.12-1.89h0Z"/>
          <path class="cls-12" d="M200.41,230.12c-10.64-6.62-20.77-13.86-29.99-22.35-1.04-.95-2.57.62-1.52,1.58,9.36,8.62,19.66,15.97,30.45,22.69,1.2.75,2.27-1.17,1.07-1.92h0Z"/>
          <path class="cls-12" d="M218.75,235.64c-6.89,5.19-14.51,8.72-22.93,10.59-1.38.31-.8,2.42.57,2.12,8.59-1.91,16.45-5.52,23.47-10.82,1.12-.84.01-2.74-1.11-1.89h0Z"/>
          <path class="cls-12" d="M220.69,235.69c-7.51-9.24-15.69-17.85-24.55-25.81-1.05-.94-2.58.63-1.52,1.58,8.85,7.96,17.04,16.57,24.55,25.81.89,1.09,2.41-.49,1.52-1.58h0Z"/>
          <path class="cls-12" d="M181.54,405.23c22.01-19.25,39.71-42.92,51.95-69.47.59-1.27-1.32-2.35-1.92-1.07-12.17,26.39-29.74,49.88-51.62,69.01-1.06.93.52,2.45,1.58,1.52h0Z"/>
          <path class="cls-12" d="M212.59,367.42c-7.6,7.79-16.64,13.57-26.93,17.14-1.33.46-.76,2.58.57,2.12,10.65-3.7,20.06-9.66,27.93-17.73.98-1.01-.59-2.54-1.58-1.52h0Z"/>
          <path class="cls-12" d="M215.6,362.79c-1.3,2.12-1.17,4.46-1.2,6.9-.06,3.85.11,7.71.03,11.56-.15,7.36-1.3,14.55-5.72,20.63-.83,1.14,1.09,2.2,1.92,1.07,3.42-4.7,5.03-10.13,5.66-15.88.38-3.47.39-6.96.35-10.45-.03-3.63-1.1-9.53.88-12.76.74-1.2-1.18-2.27-1.92-1.07h0Z"/>
          <path class="cls-12" d="M224.52,347.99c-7.97,7.69-19.87,8.3-28.78,14.55-1.15.81-.04,2.7,1.11,1.89,9.1-6.39,21.06-7.03,29.24-14.92,1.02-.98-.56-2.5-1.58-1.52h0Z"/>
          <path class="cls-12" d="M230.31,338.68c-.22,5.58,1.02,10.69,2.19,16.11,1.62,7.52.42,13.47-2.44,20.48-.53,1.29,1.38,2.38,1.92,1.07,2.36-5.78,4.23-11.24,3.45-17.57-.84-6.82-3.19-13.13-2.92-20.1.05-1.41-2.14-1.4-2.19,0h0Z"/>
        </g>
      </g>
      <g>
        <path class="cls-6" d="M250.07,408.28c16.21,14.15,45.08,9,55.41-9.88,2.48,7.79,5.03,15.72,9.74,22.41,4.7,6.69,11.99,12.07,20.16,12.43,10.17.45,19.05-6.7,25.81-14.31,7.46-8.4,13.8-18.05,16.79-28.88,1.14-4.11,1.75-8.4,1.77-12.67-9.16-9.11-15.81-20.57-21.68-32.14-.62-1.22-1.19-2.46-1.79-3.69-2.23,6.77-7.17,12.73-13.66,15.77-10.75,5.03-24.51,1.99-32.64-6.65-3.63-3.85-6.08-8.67-7.33-13.8-5.75,1.23-11.67,1.22-17.15-.83-9.5-3.55-16.51-14.53-13.16-24.11-.77.64-1.6,1.17-2.48,1.62-9.33,9.42-18.19,19.18-24.62,30.71-.81,1.46-1.57,2.96-2.28,4.5-9.1,19.78-9.09,45.38,7.11,59.51Z"/>
        <path class="cls-3" d="M254,313.28c4.87,2.55,11.04,2.77,15.85.27.87-.45,1.71-.99,2.48-1.62-3.35,9.57,3.66,20.55,13.16,24.11,5.48,2.05,11.39,2.06,17.15.83-1.55-6.38-1.23-13.25,1.08-19.4,2.09-5.58,5.6-10.49,8.62-15.63,5.26-8.97,8.88-18.65,11.23-28.76,2.49-10.71,5.21-10.96,11.94-7.58-10.4-9.12-26.01-12.04-39.9-9.4-5.45,1.04-10.68,2.78-15.72,5.01-10.37,4.58-19.96,11.21-29.04,18.11-3.58,2.72-7.33,5.78-8.61,10.1-.85,2.87-.49,5.98.31,8.87,1.73,6.26,5.69,12.07,11.44,15.09Z"/>
        <path class="cls-2" d="M254.46,245.65c7.97,5.94,16.51,11.1,25.44,15.45,5.05-2.23,10.27-3.97,15.72-5.01,13.88-2.64,29.5.28,39.9,9.4,1.9.95,4.1,2.18,6.72,3.55,2.52,1.32,4.71,2.85,6.69,4.49,5.47-19.44,6.43-40.16,2.55-59.98-.28-1.41-.59-2.82-.93-4.22-3.18-13.29-9.17-26.3-20.12-34.27-4.64-3.38-10.32-5.75-16.03-5.15-9.6,1.02-16.62,10.34-18.24,19.86s.91,19.2,3.42,28.52c-4.24-5.52-10.52-9.33-17.3-10.87-.75-.17-1.51-.31-2.28-.43-2.9-.43-5.85-.45-8.76.01-10.54,1.67-19.88,9.45-23.44,19.51-1.35,3.8-1.88,8.13-.21,11.8,1.4,3.08,4.14,5.31,6.86,7.33Z"/>
        <path class="cls-13" d="M309.97,350.67c8.13,8.64,21.9,11.68,32.64,6.65,6.49-3.04,11.42-9,13.66-15.77,1.47-4.44,1.78-9.23.58-13.77,9.78,7.5,25.6,5.13,32.75-4.9,1.09-1.52,2.01-3.26,2.06-5.13.07-2.35-1.22-4.51-2.52-6.48-2.9-4.37-6.07-8.55-9.49-12.51-2.67-.92-5.24-2.07-7.69-3.45-9.97-5.66-14.66-14.81-23.04-21.76-1.98-1.65-4.17-3.17-6.69-4.49-2.62-1.38-4.82-2.6-6.72-3.55-6.73-3.38-9.45-3.13-11.94,7.58-2.35,10.11-5.97,19.79-11.23,28.76-3.02,5.14-6.52,10.05-8.62,15.63-2.31,6.15-2.63,13.03-1.08,19.4,1.25,5.13,3.71,9.95,7.33,13.8Z"/>
        <path class="cls-6" d="M299.58,218.3c-2.51-9.32-5.04-19-3.42-28.52s8.64-18.84,18.24-19.86c5.71-.6,11.38,1.77,16.03,5.15,10.95,7.96,16.94,20.98,20.12,34.27,11.7-8.8,25.89-14.33,40.51-15.36,11.87-.84,25.22,1.94,32.04,11.69,6.24,8.92,5.08,21.51-.44,30.89-2.98,5.06-7.03,9.31-11.58,13.02,12.86-2.25,25.25-6.86,36.34-13.63,7.57-4.62,14.61-10.29,19.9-17.45,13.18-17.84,13.44-44.46,1.1-63.68-12.34-19.22-36.25-30.03-58.25-26.88-22,3.15-41.03,19.81-47.81,41.14,4.19-19.33,1.13-40.85-10.34-57.37-11.48-16.52-31.81-27.1-51.21-24.54-9.55,1.26-18.42,5.46-26.57,10.49-10.06,6.2-19.58,14.11-24.59,24.94-8.36,18.09-2.26,40.36,8.53,57.69,5.33,8.57,11.68,16.32,18.66,23.51,1.83,1.2,3.65,2.41,5.46,3.64,6.78,1.53,13.06,5.35,17.3,10.86Z"/>
        <path class="cls-17" d="M371.97,295.3c2.44,1.38,5.02,2.54,7.69,3.45,11.29,3.89,24.16,3.5,34.8-2.01,5.62-2.91,10.82-7.36,12.75-13.39,2.34-7.31-.87-15.74-6.85-20.54s-14.26-6.2-21.8-4.79c2.81-1.62,5.57-3.36,8.24-5.24,1.46-1.03,2.89-2.1,4.27-3.22,4.56-3.71,8.61-7.96,11.58-13.02,5.52-9.38,6.68-21.97.44-30.89-6.82-9.75-20.17-12.52-32.04-11.69-14.61,1.03-28.8,6.56-40.51,15.36.34,1.41.65,2.81.93,4.22,3.88,19.82,2.92,40.54-2.55,59.98,8.38,6.95,13.07,16.11,23.04,21.76Z"/>
        <path class="cls-15" d="M179.72,343.22c9.41,4.94,20.16,6.74,30.77,7.33,10.85.6,21.75-.01,32.47-1.78.71-1.54,1.46-3.04,2.28-4.5,6.43-11.53,15.29-21.3,24.62-30.71-4.81,2.5-10.98,2.28-15.85-.27-5.75-3.02-9.71-8.83-11.44-15.09-.8-2.89-1.16-5.99-.31-8.87,1.28-4.32,5.02-7.38,8.61-10.1,9.08-6.9,18.67-13.54,29.04-18.11-8.93-4.35-17.47-9.52-25.44-15.45-2.71-2.02-5.46-4.25-6.85-7.33-1.67-3.67-1.14-8,.21-11.8,3.56-10.06,12.9-17.83,23.44-19.51,2.9-.46,5.86-.44,8.76-.01.76.11,1.52.26,2.28.43-1.81-1.23-3.64-2.44-5.46-3.64-3.91-2.58-7.84-5.12-11.82-7.57-20.02-12.37-44.75-23.48-66.3-14.02-7.57,3.32-13.89,8.91-19.95,14.53-6.52,6.05-13.24,12.86-14.74,21.62-1.31,7.63,1.65,15.4,5.71,21.99,9.16,14.87,25.02,26.09,42.44,27.26-13.67,2.13-27.47,6.27-38.08,15.15s-17.39,23.3-14.19,36.76c2.46,10.33,10.42,18.77,19.83,23.71Z"/>
        <path class="cls-5" d="M379.75,377.38c1.2,1.19,2.43,2.34,3.72,3.45,11.13,9.56,26.37,15.33,40.67,12.06,11.91-2.73,22.14-11.85,26.23-23.36,4.08-11.51,1.88-25.04-5.65-34.66,13.07-.05,26.6-2.45,37.28-9.99,10.68-7.54,17.81-21.07,14.95-33.83-1.96-8.76-8.14-15.95-14.68-22.09-7.71-7.24-16.4-13.69-26.34-17.3-15.86-5.76-32.68-3.75-49.13,1.15-2.67,1.88-5.44,3.62-8.24,5.24,7.54-1.41,15.81-.01,21.8,4.79,5.99,4.8,9.2,13.23,6.85,20.54-1.93,6.02-7.14,10.48-12.75,13.39-10.64,5.51-23.51,5.89-34.8,2.01,3.42,3.97,6.6,8.15,9.49,12.51,1.3,1.96,2.59,4.12,2.52,6.48-.06,1.87-.98,3.6-2.06,5.13-7.15,10.03-22.98,12.4-32.75,4.9,1.2,4.55.89,9.33-.58,13.77.6,1.23,1.18,2.47,1.79,3.69,5.87,11.57,12.53,23.03,21.68,32.14Z"/>
        <g>
          <path class="cls-14" d="M359.51,299.34c-6.51-9.43-12.8-19-18.88-28.72-.79-1.26-2.72,0-1.93,1.25,6.08,9.71,12.37,19.28,18.88,28.72.84,1.22,2.77-.03,1.93-1.25h0Z"/>
          <path class="cls-14" d="M350.97,300.87c-5.03-10.2-7.94-21.28-15.08-30.32-.91-1.15-2.85.09-1.93,1.25,7.12,9.01,10.07,20.15,15.08,30.32.65,1.33,2.58.06,1.93-1.25h0Z"/>
          <path class="cls-14" d="M343.67,297.3c-3.04-8.63-5.45-17.41-7.24-26.39-.29-1.45-2.48-.74-2.2.7,1.78,8.98,4.19,17.76,7.24,26.39.49,1.4,2.69.7,2.2-.7h0Z"/>
          <path class="cls-14" d="M335.49,318.02c-2.56-16.12-3.66-32.3-3.28-48.62.03-1.48-2.27-1.37-2.3.11-.38,16.31.71,32.5,3.28,48.62.23,1.45,2.53,1.35,2.3-.11h0Z"/>
          <path class="cls-14" d="M327.17,296.95c.04-8.75.66-17.45,1.85-26.11.2-1.46-2.05-1.95-2.25-.48-1.22,8.86-1.86,17.76-1.9,26.7,0,1.49,2.29,1.37,2.3-.11h0Z"/>
          <path class="cls-14" d="M325.29,270.74c-6.49,6.7-13.48,12.77-21.04,18.24-1.2.87.05,2.8,1.25,1.93,7.73-5.59,14.87-11.79,21.51-18.64,1.03-1.06-.69-2.59-1.72-1.53h0Z"/>
          <path class="cls-14" d="M324.52,266.82c-6.48,3.66-11.64,9.36-18.73,11.94-1.39.51-.7,2.7.7,2.2,7.31-2.66,12.61-8.43,19.29-12.2,1.29-.73.03-2.66-1.26-1.93h0Z"/>
          <path class="cls-14" d="M322.94,262.85c-11.09.37-20.49,6.65-31.02,9.37-1.44.37-.73,2.56.7,2.2,10.32-2.67,19.56-8.9,30.43-9.27,1.48-.05,1.37-2.35-.11-2.3h0Z"/>
          <path class="cls-14" d="M322.52,261.7c-1.51-2.12-4.87-1.82-7.2-2.07-3.38-.36-6.77-.62-10.16-.82-1.48-.08-1.36,2.22.11,2.3,2.75.16,5.49.36,8.23.63,1.19.12,2.39.25,3.58.39.89.1,2.92,0,3.51.82.86,1.2,2.79-.04,1.93-1.25h0Z"/>
          <path class="cls-14" d="M324.96,255.6c-9.42-7.17-18.16-15.04-26.29-23.64-1.02-1.07-2.54.65-1.53,1.72,8.13,8.6,16.88,16.46,26.29,23.64,1.17.89,2.71-.82,1.53-1.72h0Z"/>
          <path class="cls-14" d="M327.32,253.68c-4.23-4.36-7.92-9.1-11.13-14.26-.78-1.26-2.71,0-1.93,1.25,3.32,5.33,7.16,10.22,11.53,14.73,1.03,1.06,2.56-.66,1.53-1.72h0Z"/>
          <path class="cls-14" d="M342.96,226.23c1.94,11.69,1.68,23.38-.82,34.97-.31,1.45,1.94,1.93,2.25.48,2.54-11.77,2.85-23.67.87-35.56-.24-1.45-2.54-1.35-2.3.11h0Z"/>
          <path class="cls-14" d="M333.49,220.62c2.57,11.65,3.58,23.38,3.11,35.3-.06,1.48,2.24,1.36,2.3-.11.48-12.1-.61-24.06-3.22-35.88-.32-1.45-2.51-.74-2.2.7h0Z"/>
          <path class="cls-14" d="M330.78,234.36c2.06,9.4,2.39,18.84.99,28.36-.21,1.46,2.04,1.95,2.25.48,1.45-9.9,1.1-19.76-1.05-29.53-.32-1.45-2.51-.74-2.2.69h0Z"/>
          <path class="cls-14" d="M316.72,220.42c5.64,11.74,9.31,24.03,11.06,36.93.2,1.46,2.5,1.36,2.3-.11-1.8-13.31-5.61-25.97-11.43-38.08-.64-1.33-2.57-.07-1.93,1.25h0Z"/>
          <path class="cls-14" d="M362.81,238.32c-6.71,10.65-15.35,19.38-25.9,26.26-1.24.81.01,2.74,1.25,1.93,10.88-7.09,19.78-16.17,26.7-27.16.79-1.25-1.27-2.28-2.06-1.03h0Z"/>
          <path class="cls-14" d="M379.52,245.31c-12.72,9.36-26.9,15.32-42.5,17.75-1.45.23-1.35,2.53.11,2.3,16.01-2.49,30.6-8.51,43.64-18.12,1.19-.87-.06-2.81-1.25-1.93h0Z"/>
          <path class="cls-14" d="M381.59,259.48c-7.19,2.16-14.45,4.38-21.99,4.8-7.56.42-14.78-1.39-22.01-3.32-1.44-.38-1.91,1.87-.48,2.25,7.43,1.98,14.85,3.8,22.59,3.37,7.73-.43,15.21-2.68,22.58-4.9,1.42-.43.72-2.62-.69-2.2h0Z"/>
          <path class="cls-14" d="M376.66,278.07c-12.33-1.74-23.61-6.56-33.35-14.31-1.15-.92-2.69.8-1.53,1.72,10.05,8,21.68,13.04,34.4,14.84,1.46.21,1.95-2.04.48-2.25h0Z"/>
          <path class="cls-14" d="M369.27,270.47c-8.97-1-19.61-1.34-27.6-5.9-1.29-.73-2.32,1.32-1.04,2.06,8.23,4.69,18.95,5.07,28.16,6.09,1.46.16,1.95-2.09.48-2.25h0Z"/>
          <path class="cls-14" d="M360.77,279.44c-6.37-3.65-12.13-8.05-17.34-13.22-1.05-1.04-2.58.68-1.53,1.72,5.35,5.31,11.3,9.81,17.83,13.56,1.29.74,2.32-1.32,1.03-2.06h0Z"/>
          <path class="cls-14" d="M364.69,250.56c-6.24,3.2-12.55,6.27-18.92,9.2-1.33.61-.65,2.81.7,2.2,6.56-3.02,13.05-6.17,19.48-9.46,1.32-.67.05-2.6-1.25-1.93h0Z"/>
          <path class="cls-14" d="M326.89,272.67c-3.6,6.36-7.62,12.42-12.08,18.21-.9,1.17.81,2.71,1.72,1.53,4.58-5.95,8.71-12.18,12.41-18.71.73-1.29-1.33-2.32-2.06-1.04h0Z"/>
          <path class="cls-14" d="M351.08,241.25c-1.08,4.91-3.12,9.42-6.15,13.44-.88,1.18.83,2.72,1.72,1.53,3.26-4.34,5.51-9.18,6.68-14.49.32-1.45-1.93-1.93-2.25-.48h0Z"/>
          <path class="cls-14" d="M323.61,258.48c-3.08-1.97-6.33-3.57-9.76-4.81-1.38-.5-2.43,1.55-1.04,2.06,3.43,1.24,6.69,2.85,9.76,4.81,1.25.8,2.28-1.26,1.04-2.06h0Z"/>
          <path class="cls-14" d="M353.98,281.37c-2.71-3.27-5.56-6.4-8.58-9.39-1.05-1.04-2.58.68-1.53,1.72,2.88,2.84,5.6,5.8,8.18,8.92.93,1.13,2.88-.11,1.93-1.25h0Z"/>
        </g>
        <circle class="cls-15" cx="335.65" cy="263.84" r="13.92"/>
      </g>
    </g>
  </g>
</svg>