<?xml version="1.0" encoding="UTF-8"?>
<svg id="Capa_2" data-name="Capa 2" xmlns="http://www.w3.org/2000/svg" viewBox="0 0 1105.46 1118.84">
  <defs>
    <style>
      .cls-1 {
        fill: #444458;
      }

      .cls-2 {
        fill: #e2719a;
      }

      .cls-3 {
        fill: #b9f3f3;
      }

      .cls-4 {
        fill: #b7e0ea;
      }

      .cls-5 {
        fill: #ffc5de;
      }

      .cls-6 {
        fill: #def4f9;
      }

      .cls-7 {
        fill: #77777f;
      }

      .cls-8 {
        fill: #ead7d8;
      }

      .cls-9 {
        fill: #8fc1d8;
      }

      .cls-10 {
        fill: #f5a1c5;
      }

      .cls-11 {
        fill: #5c5c6d;
      }

      .cls-12 {
        fill: #b0d1e4;
      }

      .cls-13 {
        fill: #92bfd6;
      }

      .cls-14 {
        fill: #f4becf;
      }

      .cls-15 {
        fill: #d8648c;
      }

      .cls-16 {
        fill: #85858b;
      }

      .cls-17 {
        fill: #ffd7ee;
      }

      .cls-18 {
        fill: #fdb0d6;
      }

      .cls-19 {
        fill: #a5e5df;
      }

      .cls-20 {
        fill: #eca2b6;
      }

      .cls-21 {
        fill: #f4dba0;
      }

      .cls-22 {
        fill: #fab5d0;
      }

      .cls-23 {
        fill: #ef9cb3;
      }

      .cls-24 {
        fill: #cce9f2;
      }

      .cls-25 {
        fill: #9adcdd;
      }

      .cls-26 {
        fill: #eefeff;
      }

      .cls-27 {
        fill: #6fadc6;
      }

      .cls-28 {
        fill: #b1efe9;
      }

      .cls-29 {
        fill: #e582a0;
      }

      .cls-30 {
        fill: #717180;
      }

      .cls-31 {
        fill: #78cfcf;
      }

      .cls-32 {
        fill: #c9eef4;
      }
    </style>
  </defs>
  <g id="Capa_1-2" data-name="Capa 1">
    <g>
      <g>
        <path class="cls-30" d="M251.1,421.46c-1.72,2.2-4.19,5.4-7.01,9.54-5.65,8.24-12.76,20.23-18.41,34.49-5.66,14.22-9.28,27.72-10.45,37.77-.3,2.52-.47,4.8-.55,6.8-1.09-3.82-2.18-7.65-3.23-11.51-7.9-28.81-14.44-57.13-20.17-84.43.24-1.57.08-5.64.84-11.35.88-7.31,3.73-17.13,8.27-27.55,4.55-10.42,8.87-20.04,11.17-27.32,1.18-3.63,1.97-6.62,2.42-8.7.46-2.08.65-3.24.65-3.24,0,0-.47,1.07-1.32,3.01-.85,1.93-2.16,4.69-3.85,8.05-3.32,6.75-8.59,15.69-13.27,26.39-2.3,5.37-4.15,10.67-5.38,15.64-1.22,4.97-1.84,9.58-1.91,13.47,0,.03,0,.05,0,.08-3.35-16.38-6.43-32.36-9.38-47.8-3.41-18.08-6.64-35.43-9.76-51.93.17-.48.35-.95.54-1.47,2.14-5.99,4.79-14.36,7.45-23.68,5.31-18.64,7.42-34.37,7.42-34.37,0,0-6.51,14.48-11.82,33.12-1.99,6.98-3.7,13.5-5,18.94-4.04-21.27-7.89-41.03-11.64-58.9-7.02-33.58-13.38-60.6-17.99-79.22-2.3-9.31-4.19-16.52-5.51-21.39-1.33-4.87-2.11-7.41-2.26-7.37-.15.04.32,2.65,1.37,7.59,1.07,4.93,2.64,12.21,4.67,21.58,4.08,18.73,9.95,45.84,16.55,79.46,4.05,20.52,8.25,43.5,12.77,68.43-.09,1.01-.09,1.93.04,2.71.18,1.26.57,2.06.89,2.45,2.12,11.71,4.31,23.83,6.59,36.33-2.89-7.45-6.56-15.39-11.09-23.35-9.47-16.44-20.08-29.93-28.1-39.3-8.05-9.36-13.51-14.7-13.96-14.31-.51.43,4.08,6.52,11.43,16.34,7.32,9.82,17.37,23.45,26.65,39.55,4.59,8.07,8.54,15.98,11.81,23.34.79,1.85,1.56,3.66,2.3,5.41.75,1.75,1.34,3.51,1.99,5.18,1.12,2.78,1.98,5.44,2.8,7.94,5.25,27.96,11.09,57.51,18.24,87.98-1.24-2-2.58-4.04-4.04-6.11-4.27-6.03-9.44-12.25-14.79-18.7-10.67-12.92-20.18-24.77-26.99-33.43-6.8-8.68-11.02-14.07-11.02-14.07,0,0,3.24,6.03,9.15,15.39,5.9,9.35,14.57,21.99,25.33,35.02,5.39,6.5,10.57,12.54,14.91,18.28,4.33,5.74,7.84,11.15,10.25,15.97.11.21.2.41.3.62,2.51,10.24,5.17,20.56,8.02,30.95,4.42,16.23,9.26,32.05,14.36,47.45-1.45-1.28-3.01-2.47-4.63-3.59-1.65-1.14-3.36-2.22-5.13-3.23-1.76-1.04-3.56-2.04-5.41-3-7.39-3.87-14.61-6.99-21.08-9.93-6.47-2.92-12.21-5.66-16.88-8.22-9.36-5.08-14.46-9.38-14.94-8.85-.2.22.84,1.56,3.02,3.72,2.22,2.1,5.67,4.93,10.26,7.91,4.58,2.99,10.31,6.1,16.74,9.26,6.42,3.18,13.55,6.4,20.75,10.17,7.17,3.81,13.95,7.56,18.48,12.51.66.72,1.26,1.48,1.83,2.24,9.99,29.32,20.83,57.03,31.44,82.91,8.61,20.99,17.11,40.79,25.09,59.3,4.66,10.76,9.11,21.09,13.42,30.93-2.68-2.08-6.69-4.44-11.7-6.82-2.72-1.28-5.7-2.69-8.89-4.2-1.58-.76-3.17-1.57-4.77-2.51-1.58-.95-3.3-1.76-4.9-2.89-6.59-4.14-13.27-9.59-19.59-16.04-12.63-12.94-21.94-26.76-28.74-36.66-6.7-10.02-10.85-16.23-10.85-16.23,0,0,.82,1.68,2.3,4.71,1.5,3.02,3.71,7.39,6.6,12.7,2.9,5.3,6.52,11.56,10.99,18.24,4.48,6.66,9.88,13.76,16.44,20.45,6.55,6.68,13.63,12.29,20.65,16.43,1.7,1.12,3.53,1.93,5.23,2.85,1.7.91,3.41,1.69,5.06,2.39,3.3,1.42,6.39,2.59,9.17,3.71,5.57,2.2,9.89,4.24,12.74,5.92.58.33,1.09.64,1.56.92,2.64,6.02,5.22,11.86,7.76,17.48,13.99,31.33,26.74,56.05,36.3,72.68,4.78,8.32,8.67,14.67,11.36,18.94,2.72,4.25,4.15,6.49,4.15,6.49,0,0-1.37-2.27-3.98-6.59-2.59-4.33-6.32-10.77-10.91-19.19-9.18-16.83-21.38-41.74-34.83-73.25-6.78-15.73-13.94-33.09-21.69-51.69-7.19-17.3-14.83-35.71-22.61-55.1.19-2.06.86-4.74,1.8-8.15,2.06-7.85,4.98-18.65,8.81-30.38,3.84-11.72,7.52-22.29,10.37-29.93,2.86-7.64,4.64-12.38,4.64-12.38,0,0-.67,1.07-1.89,3.01-1.2,1.95-2.9,4.81-4.83,8.42-3.91,7.21-8.73,17.52-12.63,29.44-3.89,11.92-6.36,23.03-7.62,31.13-.24,1.39-.43,2.73-.57,3.99-8.94-22.43-18.07-46.18-26.73-71.09-.49-1.76-1.06-3.59-1.8-5.5-.15-.39-.33-.78-.5-1.17-4.84-14.18-9.5-28.73-13.88-43.62.42-2.75,1.01-6.91,2.06-12.08,1.93-9.6,5.94-22.63,11.5-36.59,5.53-13.97,11.49-26.24,16.12-35,2.3-4.39,4.28-7.89,5.64-10.32,1.38-2.42,2.15-3.76,2.15-3.76,0,0-.98,1.2-2.74,3.36Z"/>
        <path class="cls-19" d="M104.43,388.07c16.2,16,37.73,24.87,59.52,32.09-2.08-6.52-3.91-13.2-6.26-19.5-5.22-13.95-13.42-26.6-22.57-38.35-20.49-26.28-45.81-48.31-70.97-70.16-9.81-8.52-19.73-17.12-31.2-23.24-10.48-5.58-21.96-8.93-32.95-13.44,28.47,24.97,53.13,54.28,72.8,86.65,9.69,15.93,18.36,32.84,31.63,45.94Z"/>
        <path class="cls-19" d="M47.61,183.94c30.44,28.03,47.11,68.36,76.72,97.26,6.03,5.89,12.61,11.27,19.7,15.82-9.26-30.29-26.75-58.51-45.75-84.25-8.15-11.04-16.74-21.94-27.45-30.53-19.1-15.32-43.38-22.14-67.23-28.06,15.75,8.37,30.92,17.71,44.01,29.75Z"/>
        <path class="cls-19" d="M133.39,0c-.48,62.19-12.14,125.4,6.46,184.39,2.62,8.32,6.11,16.76,11.19,23.76,5.12-29.03,11.18-57.94,10.1-87.3-1.53-41.38-17.15-80.73-27.76-120.86Z"/>
        <path class="cls-19" d="M210.8,276.93c-12.09,26.18-15.43,56.27-9.63,84.51,1.24-1.35,2.46-2.71,3.67-4.09,43.26-49.48,61.22-114.76,78.74-178.68-22.78,33.48-55.68,61.25-72.78,98.27Z"/>
        <path class="cls-19" d="M179.6,267.2c30.36-40.6,47.34-90.64,69.01-136.88-14.08,14.63-29.59,28.13-41.7,44.42-19.58,26.33-29.38,59.72-27.31,92.46Z"/>
        <path class="cls-19" d="M142.08,609.12c30.76,24.03,53.38,60.83,88.33,76.1-.66-9.7-3.02-19.37-6.81-28.18-10.33-24.01-29.57-43.48-51.79-57.24-22.22-13.76-47.36-22.18-72.78-28.22-24.13-5.73-48.88-9.44-73.67-8.76-5.62.15-11.29.52-16.99.96,47.39,6.53,96.17,16,133.71,45.34Z"/>
        <path class="cls-19" d="M88.08,469.2c22.34,23.65,44.13,49.3,73.54,63.21,14.33,6.77,32.46,9.58,46.6,4.21-38.35-25.6-64.04-67.7-104.17-90.43-23.41-13.26-49.96-18.93-76.61-24.31,23.25,10.14,42.95,28.6,60.63,47.33Z"/>
        <path class="cls-19" d="M230.45,455.7c1.26-.49,2.48-1.08,3.62-1.77,6.42-3.87,11.03-10.08,15.46-16.13,23.91-32.62,47.91-65.38,67.06-101,8.69-16.17,16.38-32.87,24.77-49.18-19.89,20.18-40.36,39.87-58.56,61.55-25.73,30.65-47.28,67.48-52.35,106.53Z"/>
        <path class="cls-19" d="M283.54,531.72c-16.62,21.76-23.24,50.68-18.49,77.59,3.9-1.7,7.56-4.05,10.71-6.83,8.93-7.88,14.74-18.59,20.82-28.83,13.3-22.4,28.68-43.55,45.89-63.1,21.99-24.98,48.29-50.01,52.34-83.05.57-4.63.66-9.28.64-13.95-16.04,27.64-36.88,52.49-61.39,73-17.37,14.54-36.77,27.18-50.52,45.18Z"/>
      </g>
      <g>
        <path class="cls-16" d="M591.79,688.47c-1.11-.31-2.34-.65-3.69-1.02-1.36-.34-2.85-.62-4.45-.97-3.2-.65-6.84-1.55-10.93-2.06-2.04-.3-4.18-.61-6.41-.94-2.23-.31-4.57-.44-6.99-.67-4.84-.53-10.03-.58-15.5-.72-10.93.05-22.98.92-35.44,3.14-12.43,2.34-24.03,5.72-34.31,9.46-5.09,2.02-9.95,3.86-14.32,6.03-2.19,1.05-4.35,1.98-6.34,3.04-1.98,1.08-3.89,2.11-5.7,3.1-.66.34-1.29.7-1.92,1.05,1.95-1.39,3.92-2.77,5.89-4.15.48.02,2.79-.9,6.25-3.32,1.73-1.24,3.74-2.89,5.85-4.98,30.47-20.45,60.62-38.26,88.8-53.48,7.72-3.97,15.24-7.85,22.55-11.61,1.83-.94,3.64-1.88,5.44-2.81,1.81-.9,3.65-1.73,5.45-2.58,3.61-1.69,7.17-3.36,10.66-5,3.49-1.64,6.93-3.26,10.3-4.84,3.38-1.56,6.65-3.21,9.97-4.56,6.6-2.81,12.93-5.5,18.97-8.07,12.01-5.35,23.21-9.32,32.93-13.14,4.88-1.86,9.38-3.68,13.59-5.21,4.22-1.47,8.08-2.81,11.56-4.01,6.94-2.43,12.32-4.35,15.95-5.7s5.52-2.13,5.47-2.29c-.05-.15-2.02.34-5.75,1.4s-9.2,2.72-16.24,4.89c-3.52,1.09-7.43,2.31-11.71,3.64-4.25,1.41-8.82,3.12-13.75,4.87-9.83,3.6-21.15,7.37-33.27,12.55-6.1,2.49-12.49,5.11-19.15,7.83-3.36,1.3-6.65,2.92-10.07,4.45-3.4,1.55-6.87,3.13-10.39,4.74-3.53,1.61-7.11,3.25-10.75,4.91-1.82.84-3.67,1.65-5.5,2.54-1.82.92-3.65,1.84-5.49,2.77-7.37,3.73-14.96,7.56-22.74,11.49-24.7,13.12-50.87,28.29-77.4,45.51,4.19-6.27,8.23-13.94,12.75-22.1,5.18-9.33,11.16-19.41,18.08-29.55,13.73-20.36,29-36.71,41.7-46.62,1.53-1.31,3.09-2.43,4.55-3.5,1.47-1.06,2.82-2.12,4.15-3.02,2.7-1.73,4.97-3.32,6.92-4.47,3.92-2.27,6.1-3.53,6.1-3.53,0,0-2.29,1.03-6.44,2.9-2.06.96-4.48,2.35-7.35,3.87-1.42.79-2.86,1.75-4.43,2.71-1.57.97-3.23,1.99-4.87,3.2-13.58,9.11-30.15,25.16-44.11,45.88-7.03,10.31-12.99,20.6-18.01,30.13-5.01,9.55-9.16,18.18-13.51,24.88-.87,1.36-1.73,2.62-2.59,3.82-4.2,2.78-8.41,5.61-12.62,8.49-33.06,22.98-62.98,47.04-89.13,70.09-6.42,5.89-12.68,11.64-18.76,17.23-1.52,1.4-3.03,2.79-4.52,4.16-.86.81-1.7,1.64-2.53,2.48,4.69-7.4,9.2-16.76,13.26-27.43,4.17-10.94,7.82-23.24,11.48-36.11,3.67-12.84,7.31-24.98,11.43-35.71,4.13-10.72,8.65-20.06,13.35-27.36,4.67-7.32,9.21-12.78,12.67-16.23.82-.91,1.6-1.66,2.31-2.29.69-.64,1.28-1.19,1.75-1.63.95-.88,1.44-1.35,1.44-1.35,0,0-.54.41-1.57,1.2-.51.39-1.15.88-1.9,1.46-.76.57-1.62,1.25-2.52,2.09-3.78,3.16-8.82,8.31-14.07,15.46-5.28,7.14-10.43,16.44-15.04,27.2-4.6,10.77-8.57,23.01-12.25,35.91-3.67,12.87-7.16,25.08-11.04,35.91-3.88,10.82-8.09,20.28-12.42,27.78-2.09,3.68-4.16,6.88-6.09,9.65-1.04.89-1.88,1.69-2.53,2.36,1.12-1.49,1.66-2.36,1.51-2.5-.46-.43-7.38,6.22-18.21,17.32-10.82,11.1-25.54,26.66-41.59,44.03-5.43,5.88-10.64,11.61-15.55,17.09-.06.05-.11.1-.17.15-1.36,1.26-2.5,2.59-3.44,3.89-1.08,1.22-2.16,2.42-3.21,3.61-1.82,2.06-3.59,4.06-5.32,6.01-.7.78-1.4,1.56-2.09,2.33l-.51.57-.24.28-.08.19-.32.76c-.22.5-.44,1-.65,1.5-.32.29.33.37.62.52.37.15.68.24,1.02.36,1.28.45,2.63.56,4.12.22.38-.11.75-.2,1.12-.33.38-.16.76-.3,1.13-.48l1.11-.63c.36-.22.74-.51.93-.64,1.81-1.39,3.25-2.99,4.49-4.5,9.92-11.92,15.9-19.43,15.9-19.43,0,0-4.45,4.4-11.83,11.96.6-.71,1.02-1.32,1.16-1.8.62-.74,1.25-1.5,1.91-2.29,2.35-2.83,4.97-5.96,7.84-9.4,2.92-3.39,6.23-6.96,9.7-10.85,7.03-7.72,14.75-16.77,24.05-26.08,4.57-4.72,9.35-9.67,14.34-14.83,2.44-2.62,5.16-5.08,7.83-7.68,2.69-2.58,5.42-5.21,8.21-7.89,2.07-1.99,4.17-4.01,6.29-6.05,1.41-.79,2.93-1.62,4.59-2.46,10.18-5.29,25.3-10.61,42.7-12.96,17.39-2.36,33.47-2.18,45.09-1.85,5.82.17,10.54.39,13.8.55,3.27.15,5.07.24,5.07.24,0,0-1.78-.34-4.99-.95-3.22-.58-7.89-1.37-13.7-2.12-11.59-1.47-27.94-2.83-45.89-.4-8.95,1.25-17.37,3.3-24.77,5.9-4.59,1.61-8.79,3.41-12.53,5.27.59-.52,1.17-1.05,1.76-1.57,6.13-5.48,12.45-11.12,18.92-16.91,18.27-15.7,38.31-31.92,59.84-48.02,1.04-.46,2.89-1.46,5.44-2.94.98-.58,2.08-1.23,3.27-1.93,1.21-.68,2.56-1.37,3.98-2.14,2.87-1.51,6.03-3.39,9.74-5.07,1.83-.89,3.74-1.82,5.74-2.79,2-.96,4.16-1.79,6.34-2.75,4.35-1.98,9.18-3.65,14.2-5.53,10.16-3.45,21.54-6.64,33.71-8.93,12.19-2.17,23.95-3.3,34.68-3.78,5.37-.08,10.48-.28,15.26-.02,2.39.1,4.71.08,6.92.25,2.22.18,4.35.35,6.38.51,4.08.22,7.72.83,10.95,1.21,1.61.21,3.12.37,4.49.59,1.37.25,2.62.47,3.75.68,4.52.79,7.02,1.23,7.02,1.23,0,0-2.45-.69-6.87-1.93ZM325.16,803.91s.12.05.22.03c-.52.51-1.03,1.03-1.54,1.54.47-.58.92-1.13,1.32-1.63,0,.02,0,.05,0,.06ZM243.04,894.13s-.19-.08-.04-.16l.45-.41s.09-.09.14-.13c-.06.36-.1.65-.12.87-.07-.02-.16-.02-.22-.05-.07-.04-.14-.06-.2-.11ZM245.04,893.97l-.28.13c-.18.08-.36.14-.54.18-.03,0-.05,0-.07,0,.43-.3,1.02-.71,1.7-1.22,1.28-.97,2.89-2.22,4.47-3.74-.06.08-.12.15-.18.23-.12.12-.23.23-.34.36-1.32,1.39-2.73,2.73-4.36,3.81l-.4.24ZM256.58,881.36c-.14-.12-.36-.18-.64-.21,1.08-1,2.1-1.96,3.06-2.88-.31.39-.62.79-.92,1.17-.52.66-1.02,1.29-1.51,1.92Z"/>
        <path class="cls-25" d="M745.84,615.2c25.19,3.1,50.82-3.43,73.77-14.29,14.78-7,28.61-15.74,42.06-25.07-12.06-.5-24.09-1.42-35.86-3.98-36.65-8-71.36-31.83-108.38-25.75-25.17,4.14-45.28,21.25-63.01,40.32,31,6.17,59.68,24.87,91.42,28.77Z"/>
        <path class="cls-31" d="M723.34,713.45c-11.94-6.46-22.24-15.54-33.53-23.08-45.86-30.65-108.74-32.49-157.22-6.76,17.01,7.43,32.85,17.56,46.65,29.98,18.21,16.39,33.49,37.02,55.68,47.4,37.18,17.39,80.6.9,118.21-15.55,13.43-5.87,26.86-11.75,40.29-17.62-24.36-.52-48.88-2.89-70.08-14.37Z"/>
        <path class="cls-3" d="M465.94,752.79c-15.96-4.21-33.13-1.24-48.36,5.12-10.32,4.31-19.89,10.11-29.19,16.35,18.11,18.29,31.12,46.69,56.3,51.85,6.36,1.3,12.94.92,19.41.37,41.89-3.52,83.23-13.45,122.2-29.24-31.68-5.31-62.5-15.76-90.84-30.88-9.58-5.11-19.02-10.8-29.51-13.58Z"/>
        <path class="cls-25" d="M418.5,673.22c21.6-25.64,13.67-64.16,21.95-96.66,1.05-4.12,2.37-8.13,3.9-12.03-14.46,11.87-29.77,22.69-45.82,32.3-13.09,7.84-27.33,15.54-34.82,28.83-6.5,11.52-6.82,25.72-3.7,38.57,2.76,11.37,7.98,21.95,13.45,32.33,17.37-3.7,33.84-10.03,45.05-23.33Z"/>
        <path class="cls-3" d="M593.24,603.66c23.54-16.74,43.93-37.89,59.79-62.03,10.33-15.72,18.84-32.76,28.25-49.09-20.69,11.94-43.31,20.55-66.73,25.22-20.56,4.1-42.1,5.38-60.98,14.48-31.97,15.42-50.09,54.33-42.94,88.82,16.78.76,33.81,3.21,49.99-.88,11.89-3.01,22.63-9.41,32.63-16.52Z"/>
      </g>
      <g>
        <path class="cls-30" d="M670.44,95.31c-1.91.64-4.26,1.43-7.05,2.37-1.39.47-2.89.97-4.5,1.51-1.59.57-3.26,1.25-5.05,1.93-3.56,1.38-7.52,2.92-11.85,4.61-4.3,1.77-8.88,3.89-13.86,6.07-5.02,2.09-10.14,4.84-15.67,7.54-5.57,2.64-11.21,5.9-17.2,9.21-1.49.83-3.01,1.67-4.54,2.52-1.52.86-3.01,1.83-4.54,2.75-3.05,1.88-6.17,3.79-9.35,5.75-3.22,1.89-6.31,4.14-9.55,6.28-3.21,2.19-6.52,4.36-9.8,6.69-3.23,2.4-6.52,4.85-9.86,7.33-1.66,1.25-3.37,2.47-5.03,3.78-1.64,1.33-3.29,2.68-4.96,4.03-2.41,1.98-4.88,3.97-7.34,6,.55-1.19,1.1-2.5,1.62-4.01,1.28-3.62,2.28-8.08,3-13.03.72-4.95,1.15-10.39,1.66-16.01.51-5.58,1.16-10.84,2.14-15.54.99-4.68,2.28-8.82,3.82-12.1,1.53-3.29,3.15-5.8,4.46-7.41.6-.85,1.19-1.4,1.53-1.84.36-.42.55-.64.55-.64,0,0-.23.17-.68.49-.43.34-1.15.77-1.92,1.49-1.64,1.34-3.8,3.59-5.94,6.79-2.15,3.19-4.09,7.4-5.57,12.26-1.47,4.86-2.43,10.34-2.95,16.08-.51,5.71-.81,11.08-1.28,15.91-.47,4.83-1.1,9.12-1.92,12.65-.77,3.46-1.68,6.2-2.34,8.14-2.95,2.63-5.93,5.28-8.95,7.97-3.45,2.95-6.65,6.24-9.99,9.45-3.31,3.26-6.76,6.44-9.95,9.96-3.25,3.46-6.53,6.95-9.85,10.48-3.16,3.67-6.34,7.38-9.56,11.12-4.8,5.77-9.53,11.74-14.15,17.9,0-.2.02-.39.02-.6-.05-.74-.1-1.5-.16-2.29-.07-1.61-.45-3.23-.73-4.99-.75-3.44-1.87-7.11-3.17-10.84-1.33-3.65-2.6-7.14-3.76-10.31-.51-1.58-1.08-3.07-1.45-4.48-.2-.71-.43-1.39-.6-2.05-.15-.67-.29-1.31-.43-1.92-.33-1.23-.43-2.35-.59-3.36-.07-.5-.15-.97-.2-1.4-.02-.43-.03-.83-.05-1.19-.08-1.45-.12-2.26-.12-2.26,0,0-.21.78-.6,2.19-.09.36-.19.76-.3,1.2-.08.44-.12.93-.19,1.45-.11,1.05-.3,2.26-.24,3.58,0,.67.01,1.37.02,2.1.04.73.14,1.47.21,2.26.13,1.58.47,3.2.8,4.92.76,3.41,1.85,7.06,3.15,10.76,1.29,3.7,2.47,7.17,3.4,10.34.36,1.59.86,3.09,1.07,4.51.14.71.27,1.4.4,2.06.07.66.14,1.3.2,1.91.1.96.14,1.82.17,2.63-6.4,8.75-12.59,17.87-18.46,27.37-10.86,17.91-20.11,36.18-27.91,54.31-1.88,4.56-3.74,9.08-5.59,13.56-1.65,4.56-3.28,9.07-4.89,13.53-1.7,4.43-2.98,8.96-4.39,13.38-1.35,4.44-2.84,8.78-3.92,13.19-.35,1.34-.7,2.63-1.05,3.96-.2-3.53-.8-7.62-1.91-11.99-1.15-4.69-2.82-9.69-4.59-14.85-7.1-20.67-15.02-36.69-15.02-36.69,0,0,3.59,17.5,10.68,38.17,1.78,5.18,3.53,10.02,4.85,14.47,1.36,4.44,2.26,8.49,2.81,11.93.53,3.4.66,6.2.74,8.17-1.02,4.22-1.87,8.43-2.79,12.56-.46,2.1-.91,4.18-1.36,6.25-.42,2.07-.73,4.15-1.1,6.2-.71,4.1-1.4,8.14-2.09,12.11-.6,3.98-1.04,7.92-1.55,11.77-.46,3.86-1.07,7.63-1.3,11.36-.31,3.73-.61,7.38-.91,10.95-.13,1.79-.32,3.55-.4,5.3-.07,1.75-.13,3.48-.2,5.19-.24,6.84-.61,13.36-.44,19.53.09,6.17-.04,11.98.37,17.41.32,5.43.51,10.48.89,15.12.48,4.63.91,8.86,1.31,12.67.21,1.9.37,3.7.6,5.38.26,1.68.51,3.24.73,4.7.47,2.9.88,5.36,1.2,7.35.68,3.97,1.11,6.03,1.27,6.01.16-.02.03-2.14-.35-6.14-.21-2-.46-4.47-.76-7.39-.16-1.46-.33-3.03-.52-4.7-.16-1.68-.25-3.48-.39-5.38-.27-3.8-.57-8.02-.91-12.64-.25-4.62-.32-9.66-.51-15.06-.29-5.4-.04-11.18-.02-17.31-.06-6.13.42-12.59.76-19.38.09-1.7.18-3.41.27-5.15.1-1.74.32-3.48.47-5.26.34-3.54.69-7.16,1.04-10.85.28-3.7.92-7.43,1.42-11.25.55-3.82,1.03-7.71,1.66-11.66.72-3.93,1.45-7.92,2.19-11.99.38-2.03.71-4.08,1.15-6.13.22-.98.45-1.97.67-2.96.15-.35.3-.71.46-1.07.43-.88.87-1.84,1.42-2.64.49-.83,1.29-1.44,1.22-1.3,1.77-.24,3.92.1,6,.95,5.61,2.35,10.04,6.67,13.19,9.76,1.59,1.59,2.87,2.88,3.77,3.78.91.89,1.42,1.38,1.42,1.38,0,0-.3-.64-.83-1.8-.55-1.15-1.37-2.8-2.54-4.77-1.17-1.97-2.71-4.27-4.84-6.57-2.14-2.27-4.88-4.57-8.45-6.03-2.69-1.08-5.65-1.55-8.51-1l-.21.08c.49-2.19,1-4.4,1.55-6.61,1.15-4.22,2.31-8.5,3.49-12.83,1.09-4.36,2.59-8.65,3.96-13.04,1.42-4.37,2.71-8.84,4.41-13.22,1.62-4.41,3.25-8.87,4.9-13.37,1.84-4.43,3.7-8.89,5.58-13.4,2.62-6.04,5.42-12.11,8.38-18.17,1.14-1.25,2.53-2.59,4.23-3.93,3.3-2.68,7.66-5.36,12.76-7.64,5.12-2.26,11.11-3.97,17.54-4.7,6.43-.74,12.65-.53,18.24.28,5.59.85,10.49,2.39,14.53,3.93,4,1.64,7.12,3.33,9.2,4.62,2.08,1.33,3.23,2.06,3.23,2.06,0,0-1-.94-2.81-2.64-1.85-1.65-4.73-3.87-8.64-6.11-3.95-2.13-8.93-4.32-14.8-5.66-5.86-1.3-12.55-1.83-19.48-1.04-6.92.78-13.37,2.76-18.79,5.42-4.39,2.17-8.15,4.67-11.16,7.25,4.69-9.16,9.77-18.31,15.25-27.36,10.9-17.61,22.8-34.01,35.2-49.1,3.16-3.73,6.29-7.42,9.39-11.08,3.25-3.52,6.48-7.01,9.67-10.46,3.12-3.52,6.51-6.7,9.76-9.97,3.28-3.22,6.42-6.52,9.8-9.48,3.32-3.03,6.59-6.02,9.82-8.97,1.57-1.38,3.16-2.71,4.74-4.04.66.24,3.11-1.64,7.48-3.2,4.56-1.7,11.39-2.71,18.79-1.58,7.42,1.14,14.11,3.41,19.03,5.01,4.91,1.63,8.03,2.57,8.03,2.57,0,0-2.59-1.95-7.08-4.65-4.48-2.64-11.06-6.16-19.3-7.45-6.84-1.05-13.32-.05-18.07,1.87.38-.32.76-.64,1.13-.95,1.63-1.32,3.3-2.56,4.93-3.83,3.28-2.52,6.5-4.99,9.67-7.43,3.22-2.37,6.47-4.58,9.61-6.81,3.17-2.19,6.2-4.48,9.37-6.42,3.12-2.01,6.19-3.97,9.18-5.89,1.51-.95,2.96-1.94,4.46-2.83,1.5-.88,2.99-1.74,4.46-2.6,5.89-3.41,11.43-6.79,16.91-9.54,5.45-2.82,10.49-5.68,15.43-7.89,4.9-2.29,9.42-4.52,13.66-6.4,4.28-1.8,8.18-3.44,11.7-4.92,1.76-.73,3.41-1.46,4.98-2.07,1.59-.59,3.07-1.13,4.45-1.64,2.75-1.02,5.09-1.88,6.97-2.58,3.77-1.4,5.75-2.13,5.75-2.13,0,0-2,.67-5.81,1.95Z"/>
        <path class="cls-28" d="M538.43,139.44c2.87-1.51,5.83-2.84,8.77-3.99,13.26-5.21,27.83-9.02,37.72-19.26,15.35-15.89,14.05-41.41,8.33-62.74-3.74-13.94-8.93-27.93-11.26-42.05-7.83,10.1-17.32,18.91-28.04,25.87-12.54,8.14-27.21,14.27-35.64,26.62-8.64,12.66-8.74,29.8-3.09,44.05,4.85,12.24,13.44,22.59,23.2,31.52Z"/>
        <path class="cls-28" d="M510.21,360.59c22.16,20.86,55.22,28.07,85.06,22.07,5.03-1.01,9.99-2.36,14.94-3.77-8.29-2.03-15.88-7.61-21.29-14.41-7.47-9.37-11.7-20.82-16.38-31.84-4.68-11.02-10.18-22.17-19.37-29.85-18.19-15.21-45.5-12.45-67.16-2.2-1.16,21.97,8.01,44.74,24.21,59.99Z"/>
        <path class="cls-28" d="M459.58,226.08c6.33-16.98,9.94-34.53,6.12-51.99-5.04-23.07-22.09-41.24-37.06-59.5-6.3-7.68-12.44-16-17.27-24.8-2.59,13.77-8.26,27.47-13.2,40.69-8.36,22.38-14.36,49.05-1.09,68.92,13.03,19.51,38.91,24.24,62.5,26.69Z"/>
        <path class="cls-28" d="M705.22,119.94c17.54,3.25,38.07-.87,48.06-15.65,9.24-13.67,7.38-32.83,14.03-47.39-20.19-1.54-39.47-12.21-59.92-13.84-12.49-.99-25.23,1.51-36.42,7.14-4.41,2.22-8.65,4.98-11.71,8.84-2.54,3.21-4.16,7.04-5.5,10.91-3.18,9.17-4.91,18.84-5.15,28.54,2.26.77,4.49,1.62,6.71,2.51,16.55,6.65,32.38,15.7,49.92,18.94Z"/>
        <path class="cls-28" d="M580.76,224.05c4.77,8.44,11.08,16.41,19.73,20.8,6.92,3.51,14.89,4.49,22.65,4.2,24.9-.92,47.49-13.97,71.14-21.95-9.84-4.57-18.57-12.07-26.37-19.81-11.41-11.33-22.23-23.89-36.66-30.98-19.3-9.47-41.83-7.65-63.22-3.96-.51,17.96,3.89,36.06,12.74,51.71Z"/>
        <path class="cls-28" d="M361.5,240.7c-8.84-6.87-18.99-11.93-27.67-19-4.61-3.76-8.72-8.1-12.29-12.84-4.27,33.61-22.62,68.13-12.38,100.58,5.96,18.9,21.91,34.33,40.99,39.67,10.48,2.93,21.59,2.98,32.29,4.82,6.65-13.95,11.24-28.54,11.7-43.98.79-26.47-11.72-53.01-32.64-69.25Z"/>
        <path class="cls-28" d="M513.84,490.79c-3.98-5.64-6.05-12.36-8.2-18.92-5.22-15.97-11.51-32.08-22.8-44.51-18.68-20.56-50.68-27.42-76.33-17.06-3.68,21.79-2.36,44.43,3.91,65.63,1.58,5.35,3.57,10.76,7.36,14.85,5.02,5.4,12.51,7.73,19.78,8.96,26.55,4.49,53.76-2.79,80.6-4.17-1.63-1.41-3.09-3.04-4.32-4.78Z"/>
        <g>
          <path class="cls-7" d="M665.87,93.83c17.23-10.67,36.26-16.9,56.47-18.42,1.31-.1,1.32-2.15,0-2.05-20.56,1.55-39.97,7.85-57.51,18.7-1.12.69-.09,2.47,1.04,1.77h0Z"/>
          <path class="cls-7" d="M692.5,64.4c-1.07,7.96-7.94,15.57-14.1,20.21-1.04.79-.02,2.57,1.04,1.77,6.84-5.16,13.94-13.18,15.12-21.99.18-1.31-1.88-1.29-2.05,0h0Z"/>
          <path class="cls-7" d="M690.2,82.5c9.31-1.54,17.86,3.77,26.3,7.15,1.23.49,1.76-1.49.55-1.98-9.04-3.62-17.47-8.79-27.39-7.15-1.3.22-.75,2.2.55,1.98h0Z"/>
          <path class="cls-7" d="M542.02,128.28c2.78-20.15,9.62-39.09,20.39-56.36.7-1.12-1.08-2.16-1.78-1.04-10.86,17.41-17.79,36.52-20.6,56.85-.18,1.29,1.8,1.85,1.98.55h0Z"/>
          <path class="cls-7" d="M544.23,77.37c2.74,6.17,3.93,12.66,3.66,19.4-.05,1.32,2,1.32,2.05,0,.29-7.12-1.05-13.93-3.94-20.43-.54-1.21-2.31-.16-1.77,1.04h0Z"/>
          <path class="cls-7" d="M545.28,112.08c7.2-7.35,14.88-14.16,23.07-20.39,1.04-.79.02-2.58-1.04-1.77-8.33,6.34-16.17,13.23-23.49,20.71-.93.95.53,2.4,1.45,1.45h0Z"/>
          <path class="cls-7" d="M532.91,110.42c3.04,4.26,7.44,7.92,7.67,13.54.05,1.32,2.11,1.33,2.05,0-.25-6.11-4.64-9.93-7.95-14.58-.76-1.07-2.55-.04-1.78,1.04h0Z"/>
          <path class="cls-7" d="M593.61,183.88c7.12,8.65,15.69,15.86,25.71,20.95,11.61,5.9,24.72,7.77,36.27,13.8,1.17.61,2.21-1.16,1.04-1.77-10.82-5.64-22.97-7.52-33.98-12.68-10.81-5.07-20.02-12.56-27.58-21.75-.84-1.02-2.29.44-1.45,1.45h0Z"/>
          <path class="cls-7" d="M603.44,193.39c7.83.99,15.65,1.28,23.53.86,1.32-.07,1.32-2.13,0-2.05-7.88.42-15.7.14-23.53-.86-1.31-.17-1.3,1.89,0,2.05h0Z"/>
          <path class="cls-7" d="M612.9,201.16c8.7,6.14,15.83,14.09,19.84,24.04.49,1.21,2.48.68,1.98-.55-4.22-10.5-11.6-18.79-20.78-25.27-1.08-.77-2.11,1.02-1.04,1.77h0Z"/>
          <path class="cls-7" d="M633.74,210.51c5.63,2.89,10.55,7.31,13.73,12.81.66,1.15,2.44.11,1.78-1.04-3.34-5.79-8.54-10.5-14.47-13.55-1.17-.6-2.22,1.17-1.04,1.77h0Z"/>
          <path class="cls-7" d="M428.57,140.95c5.85,25.5,8.98,55.45,26.69,76.01.86,1,2.31-.45,1.45-1.45-17.37-20.17-20.41-50.05-26.16-75.11-.29-1.29-2.28-.74-1.98.55h0Z"/>
          <path class="cls-7" d="M439.04,178.7c.14-10.6,2.22-20.19,6.76-29.79.56-1.19-1.21-2.23-1.78-1.04-4.67,9.89-6.9,19.9-7.04,30.83-.02,1.32,2.04,1.32,2.05,0h0Z"/>
          <path class="cls-7" d="M441.97,188.46c-2.86-11.18-11.03-19.22-19.67-26.35-1.01-.83-2.47.61-1.45,1.45,8.35,6.89,16.37,14.61,19.14,25.44.33,1.28,2.31.74,1.98-.55h0Z"/>
          <path class="cls-7" d="M450.17,206.21c-2.7-9.91-.66-20.18,4.42-28.97.66-1.15-1.11-2.18-1.78-1.04-5.35,9.25-7.47,20.14-4.63,30.55.35,1.27,2.33.73,1.98-.55h0Z"/>
          <path class="cls-7" d="M446.84,200.33c-9.41-12.94-23.73-19.2-38.27-24.71-1.24-.47-1.77,1.52-.55,1.98,13.98,5.3,27.98,11.3,37.04,23.77.77,1.06,2.55.04,1.77-1.04h0Z"/>
          <path class="cls-7" d="M499.39,321.84c22.29,19.72,48,34.77,76.11,44.54,1.25.43,1.79-1.55.55-1.98-27.79-9.66-53.17-24.51-75.2-44.01-.99-.87-2.45.57-1.45,1.45h0Z"/>
          <path class="cls-7" d="M541.04,351.22c9.54,1.88,19.76.93,29.47.96,1.32,0,1.32-2.05,0-2.06-9.48-.04-19.61.94-28.92-.89-1.29-.25-1.84,1.73-.55,1.98h0Z"/>
          <path class="cls-7" d="M529.86,344.62c5.91,6.71,10.54,14.07,13.3,22.61.41,1.25,2.39.72,1.98-.55-2.86-8.86-7.7-16.56-13.83-23.52-.87-1-2.32.46-1.45,1.45h0Z"/>
          <path class="cls-7" d="M503.2,325.16c5.85,2.72,11.99,5.03,18.12,7.02,8.34,2.71,15.89,1.27,24.23-1.04,1.27-.35.73-2.34-.55-1.98-8.65,2.39-16.22,3.42-24.77.49-5.39-1.85-10.82-3.86-16-6.26-1.19-.55-2.24,1.22-1.04,1.77h0Z"/>
          <path class="cls-7" d="M332.68,269.86c18.02,17.99,27.21,41.74,35.92,65.17.46,1.23,2.44.7,1.98-.55-8.83-23.76-18.17-47.84-36.45-66.08-.94-.94-2.39.52-1.45,1.45h0Z"/>
          <path class="cls-7" d="M358.06,302.95c-.75-10.86,2.79-21.59-.01-32.33-.33-1.28-2.32-.74-1.98.55,2.74,10.53-.8,21.13-.06,31.78.09,1.31,2.15,1.32,2.06,0h0Z"/>
          <path class="cls-7" d="M320.85,275.47c8.42,6.22,17.61,10.99,27.53,14.34,1.26.43,1.79-1.56.55-1.98-9.78-3.31-18.74-8.01-27.04-14.13-1.07-.79-2.09,1-1.04,1.77h0Z"/>
          <path class="cls-7" d="M368.21,328.93c5.05-11.2,11.13-22.5,9.32-35.15-.19-1.3-2.17-.75-1.98.55,1.71,12.01-4.34,22.97-9.12,33.57-.54,1.2,1.23,2.24,1.78,1.04h0Z"/>
          <path class="cls-7" d="M365.65,321.13c-2.48-4.11-6.38-5.87-10.77-7.41-7.27-2.54-13.28-5.46-18.57-11.22-.9-.98-2.35.48-1.45,1.45,3.68,4,7.93,7.23,12.93,9.41,5.64,2.46,12.63,3.07,16.09,8.8.68,1.13,2.46.1,1.77-1.04h0Z"/>
          <path class="cls-7" d="M419.21,420.6c5.24,11.58,16.35,22.89,26.89,29.8,11.61,7.61,25.35,11.05,38.64,14.39,1.28.32,1.83-1.66.55-1.98-25.67-6.45-52.55-17.28-64.3-43.25-.54-1.2-2.32-.16-1.77,1.04h0Z"/>
          <path class="cls-7" d="M427.1,433.01c2.62,2.56,5.87,3.99,9.43,2.68,4.95-1.81,9.73-4.96,14.42-7.38,1.18-.61.14-2.38-1.04-1.78-2.87,1.48-5.74,2.96-8.61,4.45-4.4,2.27-8.58,4.64-12.75.57-.95-.92-2.41.53-1.46,1.45h0Z"/>
          <path class="cls-7" d="M453.96,454.33c4.23-.91,8.67.75,13.02.06,4.01-.64,7.6-2.32,10.83-4.75,1.04-.79.02-2.57-1.04-1.77-3.81,2.87-8.15,4.65-12.97,4.76-3.57.08-6.84-1.04-10.38-.28-1.29.28-.75,2.26.55,1.98h0Z"/>
          <path class="cls-7" d="M441.59,446.36c-2.47,15.43.99,30.22,9.88,43.07.75,1.08,2.53.05,1.78-1.04-8.56-12.38-12.06-26.56-9.67-41.49.21-1.29-1.77-1.85-1.98-.55h0Z"/>
        </g>
      </g>
      <path class="cls-11" d="M1105.46,242.83s-1.33-.88-3.92-2.61c-2.6-1.71-6.37-4.41-11.72-7.29-10.49-6.02-26.79-13.89-49.18-19.28-11.2-2.51-23.86-4.64-37.84-5.06-13.96-.4-29.19.6-45.12,3.95-1.98.45-4.03.71-6.01,1.31-1.99.55-4.01,1.1-6.04,1.65-4.09.99-8.09,2.5-12.2,3.92-4.15,1.29-8.11,3.25-12.24,4.96-4.14,1.7-8.14,3.82-12.04,6.15-3.86,2.39-7.61,5.09-10.82,8.37-3.24,3.24-5.92,7.09-7.53,11.39-.89,2.17-1.21,4.32-1.33,6.6-.05,2.27.33,4.57.94,6.81.72,2.21,1.67,4.37,2.97,6.31,1.33,1.91,2.92,3.65,4.77,5,1.89,1.29,4.01,2.14,6.21,2.4,2.19.3,4.49-.19,6.52-1.13,4.08-1.92,6.99-6.18,8.2-10.92,1.2-4.74.95-10.02-1.05-14.49-2.12-4.63-5.58-8.67-9.73-12.07-8.33-6.8-19-11.39-29.51-16.18-10.62-4.64-21.72-8.73-33.24-12.07-23.04-6.57-47.91-10.17-73.29-8.54-12.67.83-25.45,2.96-37.91,6.69-12.44,3.74-24.56,9.18-35.9,16.19-11.34,7.01-21.91,15.58-31.14,25.59-9.22,10-17.1,21.47-22.83,34.07-1.4,3.16-2.57,6.43-3.88,9.65-.96,3.33-2.07,6.64-2.92,10.02-.66,3.41-1.51,6.84-2.03,10.26-.48,3.4-.67,6.73-.25,9.8.73,6.18,4.8,10.96,10.67,12.99,5.86,2.13,12.93,1.7,19.33-.21,3.23-.96,6.29-2.43,9.06-4.23,2.77-1.79,5.44-4.16,7.76-6.64,4.67-5.02,8.11-11.21,9.23-17.69.22-1.62.39-3.25.31-4.87l-.05-1.22c-.04-.4-.12-.81-.18-1.21-.14-.8-.23-1.62-.38-2.42-.8-3.17-2.16-6.17-4.01-8.95-1.98-2.7-4.34-5.2-7.07-7.38-2.79-2.1-5.73-4.1-8.99-5.65-1.57-.86-3.28-1.51-4.93-2.25-1.71-.62-3.39-1.33-5.15-1.84-3.47-1.17-7.07-1.97-10.68-2.67-3.58-.69-7.41-.9-11.15-1.31-1.88-.15-3.76-.45-5.65-.48l-5.68-.13c-15.16-.3-30.47,1.48-45.48,5.02-15.01,3.55-29.57,8.73-43.44,15.19-13.87,6.47-27.1,14.1-39.66,22.53-25.14,16.86-47.52,37.03-67.49,58.62-19.97,21.61-37.47,44.77-52.73,68.64-15.26,23.88-28.29,48.47-39.47,73.17-21.93,49.6-36.8,99.31-46.25,146.66-9.64,47.35-14.19,92.3-16.85,133.34-2.43,41.09-2.7,78.38-2.35,111.11.39,32.74,1.42,60.93,2.31,83.98.97,23.05,1.72,40.94,2.23,53.08.24,6.07.39,10.7.44,13.82.05,3.12.01,4.72-.13,4.72s-.38-1.57-.71-4.67-.75-7.71-1.26-13.77c-1.01-12.11-2.32-29.98-3.77-53.02-1.38-23.04-2.88-51.25-3.7-84.06-.79-32.8-.92-70.21,1.15-111.51,2.3-41.27,6.54-86.52,15.97-134.34,9.24-47.82,24-98.11,46.02-148.4,11.22-25.04,24.34-50.01,39.77-74.29,15.42-24.27,33.15-47.85,53.44-69.88,20.27-21.99,43.05-42.6,68.84-59.93,12.87-8.66,26.46-16.51,40.77-23.19,14.3-6.67,29.38-12.04,45-15.74,15.61-3.68,31.62-5.55,47.53-5.22l5.96.14c1.99.04,3.96.35,5.93.51,3.96.43,7.86.65,11.87,1.42,3.96.77,7.9,1.66,11.73,2.95,1.93.57,3.8,1.36,5.7,2.05,1.85.83,3.74,1.56,5.53,2.54,3.66,1.76,7.1,4.06,10.38,6.57,3.24,2.6,6.16,5.66,8.65,9.12,2.37,3.56,4.18,7.54,5.2,11.74.21,1.05.34,2.12.51,3.18.07.53.17,1.06.22,1.6l.07,1.62c.09,2.16-.12,4.3-.43,6.42-1.48,8.44-5.8,15.87-11.3,21.76-2.8,2.96-5.76,5.59-9.25,7.85-3.48,2.24-7.21,3.99-11.09,5.14-7.74,2.23-16.18,2.89-24.24,0-3.99-1.43-7.82-3.9-10.61-7.36-.64-.9-1.39-1.74-1.9-2.72l-1.48-2.94c-.82-2.03-1.34-4.13-1.62-6.21-.55-4.16-.24-8.16.3-11.92.24-1.89.69-3.7,1.06-5.53l1.16-5.48c.93-3.6,2.12-7.13,3.18-10.68,1.4-3.42,2.68-6.9,4.18-10.25,6.17-13.37,14.57-25.43,24.33-35.88,9.77-10.46,20.9-19.36,32.8-26.6,11.91-7.24,24.6-12.83,37.63-16.64,13.03-3.8,26.29-5.89,39.4-6.63,26.27-1.46,51.76,2.5,75.24,9.44,11.74,3.53,23.02,7.81,33.79,12.66,1.35.6,2.69,1.21,4.03,1.81,1.32.65,2.64,1.29,3.95,1.93,2.62,1.3,5.25,2.53,7.82,3.92,5.15,2.74,10.19,5.77,14.7,9.57,4.5,3.77,8.46,8.43,10.88,13.89,2.44,5.67,2.61,11.89,1.12,17.56-.75,2.85-2.04,5.57-3.82,7.96-1.78,2.39-4.14,4.42-6.9,5.69-2.75,1.24-5.81,1.83-8.8,1.41-2.98-.37-5.77-1.57-8.11-3.23-2.31-1.72-4.18-3.84-5.73-6.12-1.51-2.32-2.58-4.84-3.39-7.43-.69-2.62-1.09-5.31-1-8.01.15-2.66.66-5.45,1.67-7.82,1.89-4.87,4.96-9.1,8.51-12.56,3.53-3.51,7.53-6.29,11.59-8.74,4.1-2.38,8.25-4.51,12.48-6.17,4.23-1.69,8.29-3.61,12.53-4.87,4.19-1.38,8.28-2.86,12.45-3.81,2.07-.53,4.12-1.06,6.15-1.58,2.02-.57,4.1-.82,6.12-1.24,16.2-3.16,31.62-3.93,45.71-3.31,14.11.65,26.83,3,38.07,5.72,22.45,5.8,38.66,14,49.05,20.22,5.3,2.98,9.03,5.76,11.59,7.52,2.56,1.78,3.87,2.69,3.87,2.69Z"/>
      <g>
        <path class="cls-1" d="M157.33,939.23s.2-1.58.58-4.59c.52-2.96,1.27-7.36,2.95-12.73,1.65-5.39,4.24-11.73,7.99-18.67,3.73-6.95,8.71-14.4,14.69-22.24,11.96-15.67,27.76-33.11,45.98-51.78,18.14-18.72,38.75-38.67,58.09-61.34,9.66-11.34,18.47-22.88,26.14-34.59,7.54-11.78,13.95-23.71,19.32-35.55,10.77-23.65,18.57-46.12,25.76-64.66,7.09-18.6,12.95-33.58,17.18-43.85,4.23-10.27,6.81-15.83,7.34-15.58.53.25-1.05,6.3-4.37,17.02-3.31,10.71-8.36,26.1-14.75,45.03-6.5,18.87-13.73,41.63-24.27,65.82-5.25,12.1-11.65,24.38-19.26,36.48-7.72,12.01-16.63,23.78-26.42,35.26-19.6,22.97-40.68,42.61-59.38,60.77-18.77,18.09-35.26,34.71-47.98,49.61-6.34,7.45-11.68,14.48-15.78,21.07-4.11,6.58-7.08,12.62-9.08,17.79-2.02,5.15-3.08,9.41-3.81,12.28-.6,2.93-.92,4.46-.92,4.46Z"/>
        <path class="cls-20" d="M639.99,363.39c3.07-19.8-7.94-42.72-27.47-47.23-6.25-1.44-13.09-.88-18.65,2.3,7.97-7.84,7.33-22.03-.07-30.41s-19.91-11.1-30.78-8.47-20.16,9.9-27.21,18.58c-5.38,6.62-9.76,14.55-9.91,23.09,1.18-14.01,1.89-28.62-3.47-41.61-5.36-12.99-18.57-23.81-32.49-21.86-18.57,2.6-27.17,23.99-32.19,42.06-3.15,11.32-6.29,22.64-9.43,33.96-7.33,26.36-14.65,52.73-21.98,79.09,9.88-3.86,20.29-5.55,30.63-3.36,6.21,1.32,12.06,3.98,17.59,7.09,15.52,8.72,29.16,21.48,36.78,37.57,2.33,4.91,4.01,10.06,5.16,15.32.99-.6,1.98-1.18,2.97-1.76,29-16.86,59.77-31.31,85.64-52.59.96-.79,1.92-1.56,2.87-2.37,15.23-13.03,28.93-29.58,32-49.39Z"/>
        <path class="cls-2" d="M373.79,444.88c3.23-1.01,6.66-1.48,10.09-1.45,5.12-5.63,10.85-10.76,16.83-15.44,7.74-6.05,16.45-11.53,25.63-15.12,7.33-26.36,14.65-52.73,21.98-79.09-2.23-18.62-6.77-38.25-21.07-50.13-12.98-10.78-31.5-12.63-48.06-9.36-12.2,2.41-25.57,9.36-27.42,21.65-.67,4.43.33,8.77,2.06,12.94,2.38,3.16,4.33,6.63,5.63,10.37-2.08-3.28-4.13-6.76-5.63-10.37-4.78-6.34-11.43-11.28-18.99-13.72-11.33-3.66-24.32-1.7-34.06,5.14-4.46,3.13-8.38,7.47-9.61,12.78-1.08,4.67.01,9.53,1.1,14.19,1.59,6.82,3.19,13.65,4.78,20.47-6.92-2.37-14.51-2.74-21.63-1.05-2.8.67-5.59,1.68-7.77,3.56-4.32,3.73-5.32,10.03-5.1,15.72.94,24.57,18.6,44.92,35.81,62.48,16.26,16.58,33.81,34.25,39.04,56.6,1.73-4.78,3.97-9.41,6.57-13.78,6.93-11.68,16.85-22.37,29.82-26.42Z"/>
        <path class="cls-9" d="M509.18,526.92c8.34-17.77,11.49-38.43,7.33-57.43-1.15-5.26-2.83-10.41-5.16-15.32-7.63-16.09-21.26-28.85-36.78-37.57-5.53-3.11-11.39-5.77-17.59-7.09-10.34-2.19-20.76-.51-30.63,3.36-9.18,3.59-17.89,9.06-25.63,15.12-5.98,4.68-11.71,9.81-16.83,15.44,10.33.11,20.61,4.91,25.23,14,2.11,4.16,2.94,8.85,3.4,13.49.42,4.21.54,8.54-.11,12.7,1.78-4.28,4.38-8.2,7.84-11.27,5.41-4.8,12.98-7.35,20.08-5.93,1.66.33,3.34.91,4.58,2.07,1.67,1.58,2.27,3.98,2.48,6.26.53,5.68-.86,11.53-3.9,16.35,3.49-6.67,12.7-8.03,19.99-6.11,6.04,1.59,11.95,5.21,14.43,10.95,1.33,3.09,1.57,6.55,1.38,9.91-.31,5.44-1.72,10.65-3.7,15.71,1.4-.43,2.82-.8,4.28-1.02,8.96-1.38,19.41,2.72,22.35,11.3.74,2.16.94,4.3.8,6.43,2.26-3.67,4.34-7.45,6.18-11.37Z"/>
        <path class="cls-20" d="M475.56,521.57c1.98-5.05,3.39-10.27,3.7-15.71.2-3.36-.04-6.82-1.38-9.91-2.47-5.74-8.38-9.36-14.43-10.95-7.28-1.92-16.49-.56-19.99,6.11,3.04-4.83,4.43-10.67,3.9-16.35-.22-2.29-.81-4.69-2.48-6.26-1.46-1.38-3.55-1.93-5.5-2.23-2.57-.4-5.2-.39-7.73.2-9.54,2.21-15.88,9.03-19.26,17.16.65-4.16.54-8.49.11-12.7-.47-4.64-1.29-9.33-3.4-13.49-4.62-9.09-14.91-13.89-25.23-14-3.43-.04-6.86.44-10.09,1.45-12.97,4.04-22.89,14.73-29.82,26.42-2.59,4.37-4.84,8.99-6.57,13.78-2.19,6.06-3.54,12.38-3.52,18.81.06,17.64,9.91,33.52,15.76,50.16,6.34,18.03,8.03,37.67,4.85,56.51-.78,4.63-1.85,9.34-1.11,13.98s3.83,9.29,8.45,10.17c.98.19,1.96.18,2.92.05,2.87-7.57,7.57-14.39,12.4-20.94,22.43-30.37,49.04-57.65,78.84-80.83,5.99-4.66,12.39-9.23,19.56-11.42Z"/>
        <path class="cls-14" d="M654.71,610.92c5.92-9.73,10.36-20.92,9.32-32.25-1.04-11.34-8.79-22.59-19.96-24.84,17.23,2.12,38.45,2.45,47.53-12.34,3.36-5.48,4.26-12.11,4.55-18.53.36-7.99-.23-16.47-4.74-23.07-4.51-6.6-14.03-10.32-20.83-6.11,13.13-8.61,18.05-26.8,13.39-41.78-4.66-14.99-17.48-26.55-32.07-32.33-14.59-5.78-30.79-6.35-46.39-4.56-.14.02-.27.04-.41.05-25.87,21.28-56.64,35.73-85.64,52.59-.99.57-1.98,1.16-2.97,1.76,4.16,19,1,39.66-7.33,57.43-1.84,3.92-3.92,7.7-6.18,11.37-.66,9.83-9.09,19.45-10.69,29.87,9.34-14.29,22.76-25.88,38.26-33.03,6.84-3.16,14.67-5.48,21.84-3.17,10.35,3.32,15.74,15.78,13.81,26.48-1.93,10.7-9.55,19.57-18.2,26.15,8.7-5.13,19.06-9.22,28.74-6.33,13.82,4.14,18.98,21.38,14.76,35.35,6.68,2.34,13.34,4.75,19.93,7.31,9.77,3.78,20.84,7.78,30.32,3.35,5.7-2.66,9.68-7.96,12.95-13.34Z"/>
        <path class="cls-2" d="M591.5,613.6c4.23-13.97-.93-31.21-14.76-35.35-9.68-2.9-20.04,1.2-28.74,6.33,10.15-7.72,18.88-18.59,18.67-31.87-.1-6.19-2.48-12.26-7.03-16.47-8.8-8.13-19.84-5.39-29.09-1.13-15.5,7.15-28.92,18.74-38.26,33.03,1.6-10.41,10.03-20.04,10.69-29.87.14-2.13-.06-4.27-.8-6.43-2.93-8.58-13.38-12.68-22.35-11.3-1.46.22-2.88.59-4.28,1.02-7.18,2.19-13.57,6.76-19.56,11.42-29.8,23.18-56.41,50.46-78.84,80.83-4.83,6.54-9.52,13.37-12.4,20.94.69.71.4.41,1.1,1.12,4.56-1.44,9.37-2.2,14.14-2.72,53.7-5.8,107.47,16.1,161.2,10.64,17.47-1.78,36.05-7.4,46.21-21.73,1.81-2.56,3.17-5.44,4.09-8.48Z"/>
        <g>
          <path class="cls-8" d="M354.44,441.91s-.37-1.01-1.03-2.84c-.64-1.83-1.63-4.46-2.89-7.68-2.52-6.44-6.35-15.16-11.22-24.44-9.71-18.64-20.93-31.7-20.21-32.3.29-.25,3.47,2.69,7.91,8.09,4.44,5.39,10.01,13.34,14.99,22.8,4.97,9.47,8.16,18.65,9.97,25.38.91,3.37,1.54,6.12,1.91,8.03.37,1.91.57,2.97.57,2.97Z"/>
          <path class="cls-8" d="M410.2,382.9s-1.73-4.35-4.31-11.45c-2.62-7.08-5.88-17-9.56-27.84-3.67-10.84-7.75-20.33-11.37-26.87-3.53-6.59-6.32-10.33-5.93-10.63.26-.23,3.69,3.09,7.78,9.54,4.18,6.4,8.68,16.01,12.39,26.97,3.72,10.97,6.24,21.07,8.14,28.38,1.85,7.32,2.86,11.89,2.86,11.89Z"/>
          <path class="cls-8" d="M464.59,400.6s.64-1.19,1.8-3.35c1.15-2.15,2.78-5.29,4.63-9.23,3.74-7.86,8.25-19,11.84-31.72,3.65-12.71,5.38-24.6,6.24-33.24.38-4.34.91-7.96,1.76-10.33.82-2.38,1.69-3.51,1.85-3.42.21.1-.27,1.37-.71,3.72-.46,2.35-.65,5.79-.76,10.18-.32,8.78-1.74,20.97-5.46,33.92-3.66,12.97-8.97,24.03-13.42,31.6-2.21,3.8-4.17,6.76-5.57,8.77-1.42,1.99-2.2,3.1-2.2,3.1Z"/>
          <path class="cls-8" d="M498.59,396.67s3.32-4.23,8.68-11.07c5.33-6.85,12.53-16.41,20.23-27.14,7.69-10.74,14.27-20.73,18.95-28.02,4.69-7.29,7.58-11.82,7.97-11.61.35.19-1.88,5.11-6.13,12.72-4.24,7.61-10.58,17.87-18.33,28.68-7.76,10.81-15.62,19.97-21.54,26.35-5.92,6.39-9.84,10.08-9.84,10.08Z"/>
          <path class="cls-8" d="M525.62,429.09s4.49-4.14,11.73-10.82c7.21-6.72,16.98-16.16,27.5-26.85,10.51-10.71,19.6-20.79,26.11-28.18,6.51-7.38,10.5-12,10.85-11.73.31.24-3.09,5.33-9.2,13.11-6.11,7.77-15.02,18.16-25.59,28.93-10.59,10.77-20.95,19.71-28.67,25.87-7.72,6.17-12.73,9.67-12.73,9.67Z"/>
          <path class="cls-8" d="M532.4,485.1s6.44-.63,16.85-1.65c10.39-1.04,24.76-2.42,40.29-5.51,15.53-3.08,29.07-8.01,38.31-12.68,9.28-4.61,14.47-8.51,14.78-8.1.12.15-1.04,1.31-3.35,3.14-2.31,1.84-5.83,4.27-10.42,6.86-9.16,5.26-22.92,10.63-38.71,13.76-15.79,3.14-30.34,3.76-40.79,4.05-10.47.24-16.95.14-16.95.14Z"/>
          <path class="cls-8" d="M628.78,549.03s-.94-.61-2.64-1.72c-1.68-1.13-4.18-2.67-7.28-4.49-6.22-3.66-15.07-8.17-25.27-12.09-20.47-7.94-38.53-8.9-38.43-9.87.02-.37,4.54-.62,11.81.19,7.26.79,17.24,2.85,27.7,6.84,10.46,4.01,19.16,9.32,25.02,13.66,2.94,2.16,5.22,4.02,6.74,5.38,1.52,1.35,2.36,2.1,2.36,2.1Z"/>
          <path class="cls-8" d="M393.91,613.82s4.63-2.57,12.11-6.73c7.46-4.16,17.8-9.84,28.41-17.22,10.61-7.37,19.04-15.56,24.32-22.16,5.33-6.57,7.82-11.26,8.26-11.02.31.14-1.52,5.24-6.55,12.33-4.96,7.11-13.43,15.82-24.28,23.35-10.85,7.54-21.66,12.6-29.47,16.09-7.85,3.46-12.79,5.37-12.79,5.37Z"/>
          <path class="cls-8" d="M419.32,622.26s1.65-.46,4.63-1.3c2.98-.8,7.27-2.09,12.51-3.78,5.25-1.67,11.43-3.88,18.21-6.51,6.76-2.68,14.11-5.82,21.69-9.41,7.56-3.63,14.59-7.43,20.89-11.05,6.27-3.68,11.82-7.16,16.39-10.23,9.16-6.11,14.61-10.25,14.91-9.88.23.28-4.76,5.01-13.67,11.64-4.45,3.32-9.93,7.03-16.19,10.88-6.29,3.8-13.37,7.71-21.02,11.39-7.67,3.63-15.18,6.63-22.11,9.07-6.95,2.38-13.29,4.24-18.68,5.56-5.38,1.34-9.77,2.26-12.83,2.79-3.05.54-4.73.84-4.73.84Z"/>
          <path class="cls-8" d="M515.97,626.18s10.5-4.12,23.76-7.86c13.27-3.73,24.11-6.49,24.38-5.68.25.79-10.22,4.87-23.55,8.61-13.33,3.76-24.59,4.93-24.59,4.93Z"/>
          <path class="cls-8" d="M369.87,549.89s-2.23-16.29-1.87-36.5c.21-10.12.65-19.17,1.46-25.86.49-3.36,1.55-6.08,2.75-7.63,1.17-1.58,2.18-2.06,2.29-1.93.17.18-.53.94-1.28,2.54-.78,1.58-1.42,4.05-1.63,7.26-.24,6.46-.36,15.66-.56,25.68-.36,20.08-1.17,36.45-1.17,36.45Z"/>
          <path class="cls-8" d="M407.17,540.58s4.29-8.98,11.14-19c6.85-10.02,12.96-17.76,13.65-17.29.69.47-4.29,8.98-11.14,19-6.85,10.02-13.65,17.29-13.65,17.29Z"/>
          <path class="cls-8" d="M360.25,359.73s-5.8-6.84-12.01-15.75c-6.19-8.94-11.23-16.21-10.57-16.75.64-.52,6.8,5.97,13.06,15.02,6.29,9.04,9.51,17.49,9.51,17.49Z"/>
        </g>
        <g>
          <path class="cls-21" d="M435.3,425.88s-.1-.08-.15-.12c-.62-1.03-1.83-1.78-3.03-1.47-4.3,1.12-5.71,6.51-2.22,9.43,1.06.88,2.58.65,3.63-.07,1.27-.87,2.22-2.09,2.42-3.63.59-1.38.43-3.01-.65-4.12ZM433.49,430.01c-.13.08-.26.14-.45.19.16-.04.3-.13.45-.19Z"/>
          <path class="cls-21" d="M474.96,441.24c.47-.59.71-1.34.58-2.21-.23-1.47-1.85-2.92-3.42-2.5-.55.15-1.05.35-1.53.58-.04,0-.08,0-.12,0-.97.05-1.71.75-2.14,1.61-.97,1.03-1.63,2.35-1.92,3.92-.35,1.94,1.65,3.52,3.44,3.27,2.36-.33,4.77-1.53,5.1-4.15.02-.18,0-.34.01-.51Z"/>
          <path class="cls-21" d="M459.2,458.73c-.36-1.17-2.03-2.05-3.21-1.77-1.66.4-2.88,1.3-3.51,2.91-.19.49-.24.95-.2,1.37-.82,1.95.41,4.72,3.08,4.2,3.25-.63,4.76-3.69,3.84-6.73Z"/>
          <path class="cls-21" d="M454.54,426.68c1.8.17,3.53-.77,4.37-2.29.49-.55.85-1.2.92-1.91.14-1.33-.52-2.4-1.48-3.06-.36-.44-.8-.82-1.31-1.1-.68-1.17-2.04-1.92-3.64-1.19-1.98.9-3.33,2.84-3.22,5.06.12,2.38,1.99,4.28,4.36,4.5ZM455.94,422.51h0c.03-.09.06-.14.07-.16-.02.05-.05.09-.07.16Z"/>
          <path class="cls-21" d="M414.19,438.28c-1-2.11-3.51-3.15-5.62-1.91-2.16,1.27-2.32,3.92-1.03,5.85.72,1.09,2.23,1.34,3.42.91,1.17-.24,2.18-.91,2.91-1.88.61-.82.77-2.03.33-2.96Z"/>
          <path class="cls-21" d="M443.49,445.46c.22-.27.46-.52.65-.82,1.48-2.28-.27-4.89-2.88-4.73-4.12.26-7,5.45-4.94,9.06.8,1.41,2.35,2.24,3.94,1.55.6-.26,1.11-.78,1.45-1.4.26-.1.53-.19.77-.39.91-.72,1.37-2.14,1.01-3.29Z"/>
          <path class="cls-21" d="M498.94,463.5c.05,0,.09-.04.15-.05.79.13,1.62.06,2.39-.31,2.05-.99,2.65-3.22,1.98-5.08.11-1.18-.4-2.4-1.83-2.96-2.79-1.09-6.08.78-6.34,3.83-.05.55.06,1.06.23,1.55,0,.18,0,.35,0,.52.12,1.61,1.91,2.73,3.42,2.5Z"/>
          <path class="cls-21" d="M485.14,456.36c-.52-1.2-1.94-1.94-3.25-1.72-.75-.34-1.6-.46-2.33-.05-2.16,1.23-3.3,3.58-2.21,5.98,1.16,2.55,4.37,1.98,5.43.14.27-.14.54-.27.8-.41,1.44-.73,2.23-2.39,1.55-3.94Z"/>
          <path class="cls-21" d="M488.24,486.89c1.44-3.41-2.05-6.74-5.44-5.38-1.18.48-1.9,1.29-2.29,2.22-1.09,1.2-1.35,3.02-.56,4.44.59,1.06,1.55,1.59,2.62,1.75,1.24.69,2.98.22,3.8-.9,0-.01,0-.02.02-.03.82-.54,1.5-1.25,1.85-2.09Z"/>
          <path class="cls-21" d="M507.84,486.71c1.17.35,2.61-.15,3.32-1.11.82-1.11.67-2.4-.02-3.43-.15-1.86-1.57-3.57-3.84-3.54-1.37.02-2.69.76-3.48,1.88-.93,1.31-.95,2.85-.88,4.38.08,1.62,1.94,2.73,3.42,2.5.61-.09,1.09-.35,1.48-.69ZM508.87,483.67c.02-.15.04-.11,0,0h0Z"/>
          <path class="cls-21" d="M497.54,506.45c-2.18-2.58-5.57-1.42-6.84.95-.53.67-.9,1.49-.96,2.43-.09,1.38.66,2.56,1.92,3.11,1.83.79,4.36.63,5.81-.86,1.47-1.52,1.42-4.04.07-5.63Z"/>
        </g>
      </g>
      <g>
        <path class="cls-29" d="M491.93,781.71c-8.03-28.19-44.85-43.73-70.66-29.83,2.94-10.75,5.91-21.7,5.5-32.83s-4.75-22.69-13.82-29.16c-11.29-8.06-26.74-6.47-40.12-2.79-14.76,4.06-29.16,10.4-40.62,20.55-4.34,3.85-8.23,8.3-11.42,13.17,3.71,17.21,2.81,35.24.93,52.82-.2,1.85-.47,3.7-.69,5.55,7.58-6.08,17.64-9.23,27.3-7.89,16.02,2.23,29.49,15.91,32.38,31.82,1.29,7.1.52,14.42-1.86,21.21,7.48,2.86,14.24,7.26,18.98,13.67,8.22,11.11,8.09,28.86-2.84,37.32,1.35-.16,2.7-.15,4.03-.02,17.65-3.84,35.01-8.43,50.92-16.84,2.01-1.06,3.99-2.22,5.94-3.46,25.08-15.86,44.05-45.12,36.03-73.29Z"/>
        <path class="cls-5" d="M416.95,887.37c-3.67-6.53-10.55-11.36-17.91-12.07-1.34-.13-2.68-.14-4.03.02,10.93-8.46,11.06-26.21,2.84-37.32-4.74-6.41-11.49-10.81-18.98-13.67-2.96,8.44-8.42,16.05-15.63,21.37-6.53,4.82-14.18,7.83-21.44,11.46-12.67,6.34-23.99,14.73-34.17,24.54-10.8,10.39-14.09,8.66-19.28-.19,5.12,18.14,20.8,33.06,38.62,40.34,7,2.86,14.27,4.74,21.68,5.94,15.25,2.46,31.14,1.99,46.63.85,6.12-.45,12.66-1.17,17.33-5.16,3.11-2.65,5-6.47,6.22-10.37,2.66-8.44,2.45-18.03-1.88-25.74Z"/>
        <path class="cls-10" d="M366.25,964.33c-4.71-12.7-10.63-24.94-17.61-36.54-7.42-1.2-14.69-3.08-21.68-5.94-17.82-7.28-33.5-22.21-38.62-40.34-1.46-2.49-3.07-5.52-5.04-9.05-1.9-3.38-3.27-6.75-4.32-10.1-20.68,18.15-37.15,41.12-47.42,66.66-.73,1.81-1.41,3.66-2.07,5.51-6.23,17.54-9.04,36.86-2.43,54.09,2.8,7.3,7.52,14.23,14.49,17.78,11.73,5.96,26.66.51,35.58-9.16,8.92-9.67,13.21-22.61,17.25-35.13.75,9.45,5.1,18.47,11.71,25.25.73.76,1.5,1.48,2.29,2.18,3,2.64,6.36,4.86,10.01,6.48,13.28,5.91,29.73,3.95,41.26-4.9,4.36-3.35,8.17-7.89,8.99-13.33.68-4.56-.8-9.14-2.4-13.46Z"/>
        <path class="cls-22" d="M380.72,803.12c-2.88-15.91-16.36-29.59-32.38-31.82-9.67-1.34-19.73,1.81-27.3,7.89-4.97,3.99-8.89,9.22-10.88,15.31-5.61-15.82-25.45-24.86-41.07-18.7-2.37.93-4.71,2.23-6.16,4.33-1.83,2.64-1.96,6.06-1.92,9.27.07,7.14.6,14.27,1.56,21.34,2.37,3.03,4.46,6.26,6.22,9.65,7.2,13.86,5.76,27.81,10.19,41.97,1.05,3.35,2.42,6.72,4.32,10.1,1.98,3.52,3.58,6.55,5.04,9.05,5.19,8.85,8.47,10.59,19.28.19,10.19-9.8,21.51-18.19,34.17-24.54,7.26-3.64,14.91-6.65,21.44-11.46,7.21-5.32,12.67-12.93,15.63-21.37,2.38-6.79,3.15-14.11,1.86-21.21Z"/>
        <path class="cls-29" d="M294.39,962.11c-4.05,12.52-8.34,25.46-17.25,35.13s-23.85,15.12-35.58,9.16c-6.97-3.54-11.69-10.47-14.49-17.78-6.61-17.23-3.8-36.55,2.43-54.09-19.9,1.37-40.22-2.83-57.69-12.5-14.18-7.85-27.39-20.93-27.95-37.13-.51-14.82,10.16-28.36,23.43-34.98,7.15-3.57,14.93-5.42,22.9-6.28-16.37-6.97-33.95-10.9-51.64-11.39-12.08-.34-24.33.92-35.69,5.18-28.3,10.62-48.35,40.83-48.51,71.95s19.15,61.22,46.62,73.94,61.59,7.81,85.17-11.54c-19.14,18.98-31.61,45.85-30.75,73.24.86,27.4,16.24,54.58,40.32,66.04,11.85,5.64,25.1,7.42,38.14,7.73,16.1.38,32.85-1.59,46.6-10.25,22.98-14.47,32.52-44.45,33.05-72.26.26-13.75-1.24-27.32-3.88-40.71-1.19-2.73-2.38-5.47-3.54-8.21-6.6-6.78-10.95-15.8-11.71-25.25Z"/>
        <path class="cls-18" d="M268.79,820.39c-1.76-3.39-3.85-6.62-6.22-9.65-10.02-12.82-25.01-21.93-41.26-23.53-8.58-.85-17.83.39-24.51,5.84-8.1,6.61-10.69,18.63-7.4,28.56,3.29,9.93,11.69,17.66,21.36,21.64-4.41-.23-8.87-.29-13.31-.13-2.43.09-4.86.26-7.27.52-7.97.86-15.74,2.71-22.9,6.28-13.27,6.62-23.94,20.16-23.43,34.98.56,16.2,13.76,29.28,27.95,37.13,17.47,9.67,37.78,13.88,57.69,12.5.66-1.86,1.34-3.7,2.07-5.51,10.27-25.54,26.74-48.51,47.42-66.66-4.42-14.16-2.98-28.1-10.19-41.97Z"/>
        <path class="cls-15" d="M524.06,908.27c-7.09-12.62-18.04-22.66-29.73-31.21-11.95-8.74-24.87-16.13-38.43-22.06-1.95,1.23-3.93,2.39-5.94,3.46-15.91,8.41-33.27,13-50.92,16.84,7.36.72,14.25,5.54,17.91,12.07,4.33,7.71,4.54,17.3,1.88,25.74-1.23,3.89-3.12,7.71-6.22,10.37-4.67,3.98-11.21,4.7-17.33,5.16-15.5,1.15-31.38,1.62-46.63-.85,6.98,11.6,12.9,23.84,17.61,36.54,1.6,4.32,3.09,8.9,2.4,13.46-.82,5.43-4.64,9.98-8.99,13.33-11.53,8.85-27.98,10.81-41.26,4.9-3.66-1.62-7.02-3.84-10.01-6.48-.79-.7-1.55-1.42-2.29-2.18,1.16,2.75,2.35,5.48,3.54,8.21,2.55,5.84,5.16,11.66,7.89,17.43,13.71,28.99,33.72,60.03,65.37,65.22,11.12,1.82,22.48.13,33.58-1.8,11.93-2.08,24.67-4.88,32.89-13.78,7.16-7.75,9.54-18.82,9.79-29.37.56-23.79-9.23-48.38-28.29-62.64,17.2,7.7,36.05,13.22,54.76,10.95,18.71-2.28,37.16-13.73,43.49-31.49,4.86-13.64,2.02-29.19-5.06-41.81Z"/>
        <path class="cls-23" d="M320.8,720.82c-.48-2.25-1.04-4.48-1.69-6.7-5.62-19.18-18.76-37.09-37.53-43.96-15.63-5.71-34.1-2.89-47.3,7.24s-20.73,27.23-19.26,43.81c-14.98-9.64-32.23-16.94-50.02-16.25-17.8.69-35.99,10.87-42.19,27.56-4.26,11.47-2.54,24.26.39,36.14,3.44,14,8.58,27.82,17.27,39.32,13.86,18.35,34.56,28.54,57,35.14,4.44-.16,8.9-.11,13.31.13-9.67-3.98-18.08-11.72-21.36-21.64-3.29-9.93-.7-21.94,7.4-28.56,6.68-5.45,15.93-6.68,24.51-5.84,16.25,1.61,31.24,10.71,41.26,23.53-.97-7.07-1.5-14.2-1.56-21.34-.03-3.21.09-6.64,1.92-9.27,1.45-2.09,3.79-3.39,6.16-4.33,15.62-6.16,35.46,2.88,41.07,18.7,2-6.09,5.91-11.32,10.88-15.31.22-1.85.49-3.7.69-5.55,1.88-17.58,2.78-35.61-.93-52.82Z"/>
        <g>
          <path class="cls-17" d="M286.03,825.02c.44,15.61.53,31.22.27,46.83-.03,2.02,3.1,2.02,3.14,0,.26-15.61.17-31.22-.27-46.83-.06-2.02-3.19-2.02-3.14,0h0Z"/>
          <path class="cls-17" d="M296.92,829.61c-1.82,15.38-6.72,30.21-5.26,45.84.19,1.99,3.33,2.01,3.14,0-1.46-15.58,3.44-30.51,5.26-45.84.24-2-2.9-1.98-3.14,0h0Z"/>
          <path class="cls-17" d="M302.62,839.1c-2.92,12.12-6.69,23.94-11.31,35.53-.75,1.88,2.28,2.69,3.03.83,4.62-11.58,8.38-23.4,11.31-35.53.47-1.96-2.55-2.8-3.03-.83h0Z"/>
          <path class="cls-17" d="M327.34,821.49c-9.03,20.32-19.79,39.63-32.33,58-1.14,1.67,1.58,3.24,2.71,1.58,12.53-18.36,23.3-37.68,32.33-58,.81-1.83-1.89-3.43-2.71-1.58h0Z"/>
          <path class="cls-17" d="M321.21,851.75c-6.54,9.97-13.7,19.45-21.5,28.47-1.32,1.52.9,3.75,2.22,2.22,7.97-9.22,15.3-18.91,21.99-29.1,1.11-1.69-1.61-3.27-2.71-1.58h0Z"/>
          <path class="cls-17" d="M303.91,883.1c12.39-2.85,24.88-4.59,37.58-5.23,2.01-.1,2.02-3.24,0-3.14-12.98.66-25.74,2.43-38.41,5.35-1.97.45-1.13,3.48.83,3.02h0Z"/>
          <path class="cls-17" d="M301.88,888.15c10.13.62,20.25-2.06,30.27.26,1.97.45,2.8-2.57.83-3.02-10.33-2.39-20.67.27-31.1-.37-2.02-.12-2.01,3.01,0,3.14h0Z"/>
          <path class="cls-17" d="M300.74,893.86c12.95,7.81,28.35,7.61,42.41,12.31,1.92.64,2.74-2.39.83-3.02-13.77-4.61-28.96-4.34-41.66-11.99-1.73-1.04-3.31,1.67-1.58,2.71h0Z"/>
          <path class="cls-17" d="M300.37,895.49c.15,3.54,4.21,5.7,6.69,7.71,3.59,2.92,7.27,5.73,11,8.47,1.63,1.2,3.2-1.52,1.58-2.71-3.02-2.22-6.01-4.49-8.93-6.83-1.28-1.02-2.54-2.05-3.8-3.1-.94-.78-3.34-2.16-3.4-3.54-.08-2.01-3.22-2.02-3.14,0h0Z"/>
          <path class="cls-17" d="M293.06,900.64c5.44,15.18,9.6,30.66,12.51,46.52.36,1.98,3.39,1.14,3.03-.83-2.91-15.86-7.07-31.34-12.51-46.52-.67-1.89-3.71-1.07-3.03.83h0Z"/>
          <path class="cls-17" d="M288.93,901.09c1.6,8.13,2.29,16.28,2.14,24.56-.04,2.02,3.1,2.02,3.14,0,.16-8.56-.59-16.99-2.25-25.39-.39-1.98-3.41-1.14-3.03.83h0Z"/>
          <path class="cls-17" d="M250.69,920.86c6.45-14.8,15.42-27.97,26.89-39.36,1.43-1.42-.78-3.64-2.22-2.22-11.64,11.57-20.82,24.94-27.38,39.99-.8,1.83,1.9,3.43,2.71,1.58h0Z"/>
          <path class="cls-17" d="M257.35,934.29c5.71-15.22,13.25-29.38,22.63-42.65,1.17-1.65-1.55-3.22-2.71-1.58-9.53,13.48-17.15,27.95-22.95,43.4-.71,1.89,2.32,2.71,3.02.83h0Z"/>
          <path class="cls-17" d="M270.65,920.6c4.62-12.27,11.25-23.3,19.91-33.14,1.33-1.51-.88-3.74-2.22-2.22-9.01,10.24-15.91,21.77-20.72,34.53-.71,1.89,2.32,2.71,3.03.83h0Z"/>
          <path class="cls-17" d="M276.37,946.96c2.27-17.6,7.19-34.37,14.77-50.41.86-1.82-1.85-3.41-2.71-1.58-7.82,16.55-12.86,33.85-15.2,52-.26,2,2.88,1.98,3.14,0h0Z"/>
          <path class="cls-17" d="M236.98,892.31c15.58-7.19,31.93-10.76,49.09-10.79,2.02,0,2.02-3.14,0-3.14-17.7.03-34.6,3.8-50.67,11.22-1.83.84-.24,3.55,1.58,2.71h0Z"/>
          <path class="cls-17" d="M223.07,871.92c21.48-1.26,42.11,2.45,61.74,11.25,1.83.82,3.42-1.88,1.58-2.71-20.15-9.03-41.28-12.98-63.32-11.68-2.01.12-2.02,3.26,0,3.14h0Z"/>
          <path class="cls-17" d="M231.21,854.2c9.82,2.86,19.77,5.72,28.7,10.84,8.95,5.13,15.85,12.56,22.69,20.13,1.36,1.5,3.57-.72,2.22-2.22-7.02-7.78-14.15-15.36-23.32-20.62-9.16-5.25-19.38-8.22-29.45-11.15-1.94-.57-2.77,2.46-.83,3.03h0Z"/>
          <path class="cls-17" d="M250.64,836.6c12.79,11.14,22.12,25.02,27.5,41.11.64,1.9,3.67,1.09,3.03-.83-5.55-16.6-15.1-30.99-28.3-42.49-1.52-1.32-3.74.89-2.22,2.22h0Z"/>
          <path class="cls-17" d="M253.45,850.77c9.51,7.79,21.42,16.09,27.17,27.22.93,1.79,3.64.21,2.71-1.58-5.93-11.46-17.9-19.86-27.66-27.86-1.55-1.27-3.78.94-2.22,2.22h0Z"/>
          <path class="cls-17" d="M269.82,846.82c4.58,8.9,7.89,18.2,10.01,27.98.43,1.97,3.45,1.14,3.03-.83-2.18-10.04-5.63-19.59-10.33-28.73-.92-1.8-3.63-.21-2.71,1.58h0Z"/>
          <path class="cls-17" d="M243.91,876.92c9.51.98,18.99,2.15,28.45,3.53,1.97.29,2.83-2.73.83-3.02-9.74-1.42-19.49-2.64-29.28-3.64-2.01-.21-1.99,2.93,0,3.14h0Z"/>
          <path class="cls-17" d="M303.52,879.71c8.83-4.59,17.93-8.54,27.32-11.85,1.89-.67,1.08-3.7-.83-3.02-9.64,3.4-18.99,7.45-28.07,12.17-1.79.93-.21,3.64,1.58,2.71h0Z"/>
          <path class="cls-17" d="M252.56,897.67c4.88-4.81,10.56-8.44,17-10.79,1.88-.69,1.07-3.72-.83-3.02-6.95,2.54-13.11,6.4-18.38,11.6-1.44,1.42.78,3.64,2.22,2.22h0Z"/>
          <path class="cls-17" d="M296.73,898.36c2.06,4.53,4.59,8.78,7.59,12.75,1.2,1.59,3.93.03,2.71-1.58-3-3.97-5.53-8.22-7.59-12.75-.83-1.84-3.54-.24-2.71,1.58h0Z"/>
          <path class="cls-17" d="M279.02,849.66c.66,5.75,1.6,11.44,2.84,17.1.43,1.97,3.46,1.14,3.03-.83-1.18-5.38-2.1-10.79-2.73-16.26-.23-1.98-3.37-2.01-3.14,0h0Z"/>
        </g>
        <circle class="cls-15" cx="286.95" cy="883.29" r="18.96"/>
      </g>
      <g>
        <path class="cls-13" d="M619.13,123.05c-4.35-15.26-24.28-23.67-38.25-16.14,1.59-5.82,3.2-11.75,2.98-17.77s-2.57-12.28-7.48-15.79c-6.11-4.36-14.48-3.5-21.72-1.51-7.99,2.2-15.79,5.63-21.99,11.12-2.35,2.08-4.45,4.49-6.18,7.13,2.01,9.31,1.52,19.08.51,28.59-.11,1-.25,2-.37,3,4.1-3.29,9.55-5,14.78-4.27,8.67,1.2,15.96,8.61,17.53,17.22.7,3.84.28,7.8-1.01,11.48,4.05,1.55,7.71,3.93,10.27,7.4,4.45,6.01,4.38,15.62-1.54,20.2.73-.08,1.46-.08,2.18,0,9.56-2.08,18.95-4.56,27.57-9.11,1.09-.58,2.16-1.2,3.22-1.87,13.57-8.58,23.85-24.43,19.5-39.67Z"/>
        <path class="cls-6" d="M578.54,180.25c-1.98-3.53-5.71-6.15-9.7-6.54-.72-.07-1.45-.08-2.18,0,5.92-4.58,5.99-14.19,1.54-20.2-2.57-3.47-6.22-5.85-10.27-7.4-1.6,4.57-4.56,8.69-8.46,11.57-3.54,2.61-7.68,4.24-11.61,6.21-6.86,3.43-12.98,7.98-18.5,13.28-5.85,5.63-7.63,4.69-10.43-.11,2.77,9.82,11.26,17.9,20.91,21.84,3.79,1.55,7.72,2.57,11.74,3.22,8.26,1.33,16.85,1.08,25.24.46,3.31-.24,6.86-.64,9.38-2.79,1.68-1.44,2.7-3.5,3.37-5.61,1.44-4.57,1.33-9.76-1.02-13.93Z"/>
        <path class="cls-4" d="M551.1,221.91c-2.55-6.87-5.75-13.5-9.53-19.78-4.02-.65-7.95-1.67-11.74-3.22-9.65-3.94-18.14-12.02-20.91-21.84-.79-1.35-1.66-2.99-2.73-4.9-1.03-1.83-1.77-3.65-2.34-5.47-11.19,9.83-20.11,22.26-25.67,36.08-.4.98-.77,1.98-1.12,2.98-3.37,9.49-4.89,19.95-1.32,29.28,1.52,3.95,4.07,7.7,7.85,9.62,6.35,3.23,14.43.28,19.26-4.96,4.83-5.24,7.15-12.24,9.34-19.02.41,5.12,2.76,10,6.34,13.67.4.41.81.8,1.24,1.18,1.62,1.43,3.44,2.63,5.42,3.51,7.19,3.2,16.09,2.14,22.34-2.65,2.36-1.81,4.42-4.27,4.87-7.21.37-2.47-.43-4.95-1.3-7.29Z"/>
        <path class="cls-24" d="M558.93,134.64c-1.56-8.61-8.86-16.02-17.53-17.22-5.23-.73-10.68.98-14.78,4.27-2.69,2.16-4.81,4.99-5.89,8.29-3.04-8.57-13.78-13.46-22.23-10.12-1.28.51-2.55,1.21-3.34,2.34-.99,1.43-1.06,3.28-1.04,5.02.04,3.86.32,7.73.85,11.55,1.28,1.64,2.41,3.39,3.37,5.22,3.9,7.51,3.12,15.05,5.51,22.72.57,1.82,1.31,3.64,2.34,5.47,1.07,1.91,1.94,3.55,2.73,4.9,2.81,4.79,4.59,5.73,10.43.11,5.52-5.31,11.64-9.85,18.5-13.28,3.93-1.97,8.07-3.6,11.61-6.21,3.9-2.88,6.86-7,8.46-11.57,1.29-3.68,1.7-7.64,1.01-11.48Z"/>
        <path class="cls-13" d="M512.19,220.7c-2.19,6.78-4.51,13.78-9.34,19.02-4.83,5.24-12.91,8.18-19.26,4.96-3.77-1.92-6.33-5.67-7.85-9.62-3.58-9.33-2.06-19.78,1.32-29.28-10.77.74-21.77-1.53-31.23-6.77-7.68-4.25-14.82-11.33-15.13-20.1-.28-8.02,5.5-15.35,12.68-18.93,3.87-1.93,8.08-2.94,12.4-3.4-8.86-3.77-18.38-5.9-27.96-6.17-6.54-.18-13.17.5-19.32,2.8-15.32,5.75-26.17,22.11-26.26,38.95s10.36,33.14,25.24,40.02c14.87,6.89,33.34,4.23,46.1-6.25-10.36,10.27-17.11,24.82-16.64,39.65.47,14.83,8.79,29.54,21.83,35.75,6.41,3.05,13.59,4.02,20.65,4.18,8.72.2,17.78-.86,25.23-5.55,12.44-7.83,17.6-24.06,17.89-39.12.14-7.44-.67-14.79-2.1-22.04-.65-1.48-1.29-2.96-1.92-4.45-3.58-3.67-5.93-8.55-6.34-13.67Z"/>
        <path class="cls-32" d="M498.34,143.99c-.95-1.84-2.09-3.58-3.37-5.22-5.42-6.94-13.54-11.87-22.34-12.74-4.64-.46-9.65.21-13.27,3.16-4.38,3.58-5.79,10.08-4.01,15.46,1.78,5.37,6.33,9.56,11.56,11.72-2.39-.13-4.8-.16-7.2-.07-1.32.05-2.63.14-3.94.28-4.31.47-8.52,1.47-12.4,3.4-7.18,3.58-12.96,10.91-12.68,18.93.3,8.77,7.45,15.85,15.13,20.1,9.46,5.23,20.45,7.51,31.23,6.77.36-1.01.73-2,1.12-2.98,5.56-13.82,14.47-26.26,25.67-36.08-2.4-7.67-1.62-15.21-5.52-22.72Z"/>
        <path class="cls-27" d="M636.52,191.57c-3.84-6.83-9.77-12.27-16.09-16.89-6.47-4.73-13.46-8.73-20.8-11.94-1.05.67-2.13,1.3-3.22,1.87-8.61,4.55-18.01,7.04-27.57,9.11,3.98.39,7.71,3,9.7,6.54,2.34,4.18,2.46,9.37,1.02,13.93-.66,2.11-1.69,4.18-3.37,5.61-2.53,2.16-6.07,2.55-9.38,2.79-8.39.62-16.99.88-25.24-.46,3.78,6.28,6.98,12.91,9.53,19.78.87,2.34,1.67,4.82,1.3,7.29-.44,2.94-2.51,5.4-4.87,7.21-6.24,4.79-15.14,5.85-22.34,2.65-1.98-.88-3.8-2.08-5.42-3.51-.43-.38-.84-.77-1.24-1.18.63,1.49,1.27,2.97,1.92,4.45,1.38,3.16,2.79,6.31,4.27,9.43,7.42,15.7,18.26,32.5,35.39,35.3,6.02.99,12.17.07,18.18-.98,6.46-1.12,13.35-2.64,17.81-7.46,3.88-4.19,5.17-10.19,5.3-15.9.3-12.88-5-26.19-15.31-33.91,9.31,4.17,19.51,7.16,29.64,5.93s20.11-7.43,23.54-17.04c2.63-7.38,1.09-15.8-2.74-22.63Z"/>
        <path class="cls-12" d="M526.49,90.09c-.26-1.22-.56-2.43-.91-3.63-3.04-10.39-10.15-20.08-20.32-23.79-8.46-3.09-18.46-1.56-25.61,3.92s-11.22,14.74-10.43,23.71c-8.11-5.22-17.44-9.17-27.08-8.79-9.63.37-19.48,5.88-22.84,14.92-2.31,6.21-1.37,13.13.21,19.57,1.86,7.58,4.64,15.06,9.35,21.28,7.5,9.93,18.71,15.45,30.86,19.02,2.4-.09,4.82-.06,7.2.07-5.23-2.16-9.78-6.34-11.56-11.72-1.78-5.37-.38-11.88,4.01-15.46,3.61-2.95,8.62-3.62,13.27-3.16,8.8.87,16.91,5.8,22.34,12.74-.52-3.83-.81-7.69-.85-11.55-.02-1.74.05-3.59,1.04-5.02.79-1.13,2.05-1.84,3.34-2.34,8.45-3.33,19.19,1.56,22.23,10.12,1.08-3.3,3.2-6.13,5.89-8.29.12-1,.27-2,.37-3,1.02-9.52,1.5-19.28-.5-28.59Z"/>
        <g>
          <path class="cls-26" d="M507.67,146.5c.24,8.45.29,16.9.15,25.35-.02,1.09,1.68,1.09,1.7,0,.14-8.45.09-16.9-.15-25.35-.03-1.09-1.73-1.1-1.7,0h0Z"/>
          <path class="cls-26" d="M513.57,148.98c-.99,8.33-3.64,16.35-2.85,24.82.1,1.08,1.8,1.09,1.7,0-.79-8.43,1.86-16.51,2.85-24.82.13-1.08-1.57-1.07-1.7,0h0Z"/>
          <path class="cls-26" d="M516.65,154.12c-1.58,6.56-3.62,12.96-6.12,19.23-.41,1.02,1.24,1.46,1.64.45,2.5-6.27,4.54-12.67,6.12-19.23.26-1.06-1.38-1.51-1.64-.45h0Z"/>
          <path class="cls-26" d="M530.03,144.59c-4.89,11-10.71,21.45-17.5,31.39-.62.9.85,1.76,1.47.86,6.78-9.94,12.61-20.39,17.5-31.39.44-.99-1.02-1.86-1.47-.86h0Z"/>
          <path class="cls-26" d="M526.71,160.97c-3.54,5.39-7.41,10.53-11.64,15.41-.71.82.48,2.03,1.2,1.2,4.32-4.99,8.28-10.24,11.9-15.75.6-.92-.87-1.77-1.47-.86h0Z"/>
          <path class="cls-26" d="M517.35,177.94c6.7-1.54,13.47-2.48,20.34-2.83,1.09-.05,1.09-1.75,0-1.7-7.03.36-13.93,1.32-20.79,2.89-1.06.24-.61,1.88.45,1.64h0Z"/>
          <path class="cls-26" d="M516.25,180.67c5.48.34,10.96-1.11,16.38.14,1.06.25,1.52-1.39.45-1.64-5.59-1.29-11.19.15-16.84-.2-1.09-.07-1.09,1.63,0,1.7h0Z"/>
          <path class="cls-26" d="M515.64,183.76c7.01,4.23,15.35,4.12,22.96,6.66,1.04.35,1.48-1.29.45-1.64-7.46-2.49-15.68-2.35-22.55-6.49-.94-.57-1.79.9-.86,1.47h0Z"/>
          <path class="cls-26" d="M515.43,184.64c.08,1.92,2.28,3.08,3.62,4.17,1.95,1.58,3.93,3.1,5.96,4.59.88.65,1.73-.83.86-1.47-1.64-1.2-3.25-2.43-4.84-3.7-.69-.55-1.38-1.11-2.06-1.68-.51-.42-1.81-1.17-1.84-1.92-.05-1.09-1.74-1.1-1.7,0h0Z"/>
          <path class="cls-26" d="M511.47,187.43c2.94,8.22,5.2,16.6,6.77,25.18.2,1.07,1.83.62,1.64-.45-1.58-8.59-3.83-16.96-6.77-25.18-.37-1.02-2.01-.58-1.64.45h0Z"/>
          <path class="cls-26" d="M509.24,187.68c.87,4.4,1.24,8.81,1.16,13.29-.02,1.09,1.68,1.09,1.7,0,.09-4.63-.32-9.2-1.22-13.74-.21-1.07-1.85-.62-1.64.45h0Z"/>
          <path class="cls-26" d="M488.54,198.38c3.49-8.01,8.35-15.14,14.55-21.3.78-.77-.42-1.97-1.2-1.2-6.3,6.26-11.27,13.5-14.82,21.65-.43.99,1.03,1.86,1.47.86h0Z"/>
          <path class="cls-26" d="M492.15,205.65c3.09-8.24,7.17-15.9,12.25-23.09.63-.89-.84-1.74-1.47-.86-5.16,7.3-9.28,15.13-12.42,23.49-.38,1.02,1.26,1.47,1.64.45h0Z"/>
          <path class="cls-26" d="M499.35,198.24c2.5-6.64,6.09-12.61,10.78-17.94.72-.82-.48-2.02-1.2-1.2-4.88,5.54-8.61,11.78-11.21,18.69-.39,1.02,1.26,1.47,1.64.45h0Z"/>
          <path class="cls-26" d="M502.44,212.51c1.23-9.53,3.89-18.6,7.99-27.29.46-.98-1-1.85-1.47-.86-4.23,8.96-6.96,18.32-8.23,28.15-.14,1.08,1.56,1.07,1.7,0h0Z"/>
          <path class="cls-26" d="M481.12,182.92c8.43-3.89,17.28-5.82,26.57-5.84,1.09,0,1.09-1.7,0-1.7-9.58.02-18.73,2.06-27.43,6.07-.99.46-.13,1.92.86,1.47h0Z"/>
          <path class="cls-26" d="M473.59,171.89c11.63-.68,22.79,1.33,33.42,6.09.99.44,1.85-1.02.86-1.47-10.91-4.89-22.35-7.02-34.28-6.32-1.09.06-1.09,1.76,0,1.7h0Z"/>
          <path class="cls-26" d="M478,162.29c5.32,1.55,10.7,3.1,15.53,5.87,4.84,2.78,8.58,6.8,12.28,10.9.73.81,1.93-.39,1.2-1.2-3.8-4.21-7.66-8.32-12.62-11.16-4.96-2.84-10.49-4.45-15.94-6.04-1.05-.31-1.5,1.33-.45,1.64h0Z"/>
          <path class="cls-26" d="M488.51,152.77c6.92,6.03,11.97,13.54,14.89,22.25.34,1.03,1.99.59,1.64-.45-3.01-8.98-8.17-16.78-15.32-23-.82-.72-2.03.48-1.2,1.2h0Z"/>
          <path class="cls-26" d="M490.03,160.44c5.15,4.22,11.59,8.71,14.71,14.73.5.97,1.97.11,1.47-.86-3.21-6.2-9.69-10.75-14.97-15.08-.84-.69-2.05.51-1.2,1.2h0Z"/>
          <path class="cls-26" d="M498.89,158.3c2.48,4.82,4.27,9.85,5.42,15.14.23,1.07,1.87.62,1.64-.45-1.18-5.43-3.05-10.61-5.59-15.55-.5-.97-1.97-.11-1.47.86h0Z"/>
          <path class="cls-26" d="M484.87,174.6c5.15.53,10.28,1.16,15.4,1.91,1.07.16,1.53-1.48.45-1.64-5.27-.77-10.55-1.43-15.85-1.97-1.09-.11-1.08,1.59,0,1.7h0Z"/>
          <path class="cls-26" d="M517.14,176.1c4.78-2.49,9.7-4.62,14.79-6.42,1.02-.36.58-2-.45-1.64-5.22,1.84-10.28,4.03-15.19,6.59-.97.5-.11,1.97.86,1.47h0Z"/>
          <path class="cls-26" d="M489.55,185.82c2.64-2.61,5.72-4.57,9.2-5.84,1.02-.37.58-2.01-.45-1.64-3.76,1.37-7.1,3.47-9.95,6.28-.78.77.42,1.97,1.2,1.2h0Z"/>
          <path class="cls-26" d="M513.47,186.2c1.11,2.45,2.48,4.75,4.11,6.9.65.86,2.13.02,1.47-.86-1.62-2.15-2.99-4.45-4.11-6.9-.45-.99-1.92-.13-1.47.86h0Z"/>
          <path class="cls-26" d="M503.87,159.84c.36,3.11.87,6.19,1.54,9.25.23,1.07,1.87.61,1.64-.45-.64-2.91-1.14-5.84-1.48-8.8-.12-1.07-1.82-1.09-1.7,0h0Z"/>
        </g>
        <circle class="cls-27" cx="508.17" cy="178.04" r="10.26"/>
      </g>
    </g>
  </g>
</svg>