<?xml version="1.0" encoding="UTF-8"?>
<svg id="Capa_2" data-name="Capa 2" xmlns="http://www.w3.org/2000/svg" viewBox="0 0 794.42 608.09">
  <defs>
    <style>
      .cls-1 {
        fill: #444458;
      }

      .cls-2 {
        fill: #b7e0ea;
      }

      .cls-3 {
        fill: #def4f9;
      }

      .cls-4 {
        fill: #5c5c6d;
      }

      .cls-5 {
        fill: #b0d1e4;
      }

      .cls-6 {
        fill: #92bfd6;
      }

      .cls-7 {
        fill: #f4becf;
      }

      .cls-8 {
        fill: #81d2cc;
      }

      .cls-9 {
        fill: #f9e5e8;
      }

      .cls-10 {
        fill: #f9d4e2;
      }

      .cls-11 {
        fill: #62c4bb;
      }

      .cls-12 {
        fill: #84848c;
      }

      .cls-13 {
        fill: #cce9f2;
      }

      .cls-14 {
        fill: #eefeff;
      }

      .cls-15 {
        fill: #6fadc6;
      }

      .cls-16 {
        fill: #717180;
      }

      .cls-17 {
        fill: #c9eef4;
      }

      .cls-18 {
        fill: #9ee8e1;
      }

      .cls-19 {
        fill: #f9e8ea;
      }
    </style>
  </defs>
  <g id="Capa_1-2" data-name="Capa 1">
    <g>
      <g>
        <path class="cls-1" d="M711.05,301.51s-2.81-.04-7.9-.11c-1.27-.02-2.68-.05-4.22-.07-1.54.02-3.22.14-5.02.2-3.6.2-7.7.2-12.2.8-2.25.23-4.61.48-7.06.73-2.45.27-4.98.79-7.6,1.19-1.31.21-2.64.43-4,.65-.68.12-1.36.21-2.04.35-.68.15-1.36.31-2.05.46-2.76.62-5.6,1.25-8.51,1.91-11.56,2.96-24.05,7.02-36.67,12.5-12.56,5.63-23.94,12.18-33.86,18.79-2.43,1.73-4.8,3.41-7.1,5.05-.58.41-1.15.81-1.72,1.22-.56.41-1.08.86-1.62,1.29-1.07.86-2.12,1.7-3.15,2.54-2.05,1.68-4.12,3.21-5.95,4.85-1.83,1.65-3.58,3.24-5.26,4.75-3.44,2.94-6.18,5.98-8.74,8.5-1.26,1.28-2.47,2.44-3.52,3.57-1.02,1.15-1.96,2.2-2.8,3.15-3.39,3.77-5.37,5.79-5.58,5.63s1.39-2.48,4.46-6.57c.77-1.02,1.63-2.15,2.58-3.39.98-1.21,2.13-2.44,3.33-3.81,2.44-2.69,5.08-5.89,8.45-8.99,1.65-1.59,3.37-3.26,5.16-5,1.81-1.72,3.86-3.33,5.9-5.09,1.03-.87,2.08-1.75,3.14-2.65.54-.44,1.06-.91,1.62-1.34.57-.42,1.14-.84,1.72-1.27,2.31-1.71,4.69-3.46,7.12-5.26,9.98-6.87,21.52-13.64,34.31-19.37,12.85-5.59,25.65-9.49,37.47-12.15,2.98-.57,5.88-1.12,8.7-1.65.7-.13,1.4-.26,2.1-.4.7-.12,1.4-.18,2.08-.27,1.38-.17,2.74-.34,4.08-.5,2.67-.3,5.24-.71,7.73-.86,2.49-.14,4.88-.27,7.17-.39,4.56-.36,8.7-.13,12.32-.11,1.81.04,3.5.03,5.05.11,1.55.13,2.96.25,4.23.36,5.07.44,7.88.69,7.88.69Z"/>
        <path class="cls-9" d="M759.42,336.13c.85-3.08-.32-6.07-2.24-8.73-1.22-1.7-2.74-3.26-4.24-4.63,5.53-.02,11.05-1.2,16.1-3.45,1.7-.76,3.39-1.67,4.62-3.06,1.47-1.66,2.17-3.88,2.39-6.09.66-6.82-3.26-13.49-8.94-17.38-7.89,10.94-21.04,17.84-34.45,20.48-15.73,3.1-31.96,1.19-47.85-.95-4.45-.6-11.38-1.52-16.79-3.83.94,1.29,2.18,2.38,3.42,3.4,8.66,7.15,18.25,13.06,27.84,18.9,9.39,5.72,19.05,11.5,29.85,13.57,6.55,1.26,13.36,1.09,19.84-.48,4.43-1.08,9.24-3.37,10.45-7.77Z"/>
        <path class="cls-7" d="M789.22,315.76c4.83-7.07,2.83-17.89-4.2-22.78,1.81-2.48,4.38-4.28,6.43-6.56s3.61-5.43,2.7-8.37c-.5-1.64-1.71-2.97-2.98-4.12-5.08-4.6-11.86-7.28-18.71-7.39,3.01-3.85,6.17-8.15,6.01-13.03-.13-4.03-2.64-7.74-5.99-9.97s-7.46-3.11-11.49-3.19c-8.49-.17-16.8,3.44-22.94,9.28,2.91.07,5.81.68,8.48,1.85.8.35,1.64.81,1.98,1.61.42,1.01-.1,2.15-.61,3.12-1.36,2.56-2.71,5.12-4.07,7.68,9.48-3.43,20.32,2.41,25.85,10.84,1.41,2.15,2.6,4.59,2.49,7.15-.07,1.71-.72,3.35-1.46,4.89-1.02,2.13-2.24,4.12-3.6,6,5.68,3.89,9.6,10.56,8.94,17.38-.21,2.21-.92,4.43-2.39,6.09-1.23,1.39-2.92,2.3-4.62,3.06-5.05,2.25-10.57,3.44-16.1,3.45,1.5,1.37,3.02,2.93,4.24,4.63,4.08-.28,8.14-.76,12.17-1.47,7.53-1.33,15.56-3.84,19.87-10.16Z"/>
        <path class="cls-10" d="M770.7,286.79c.74-1.55,1.39-3.18,1.46-4.89.11-2.56-1.08-5.01-2.49-7.15-5.53-8.43-16.37-14.27-25.85-10.84,1.36-2.56,2.71-5.12,4.07-7.68.51-.97,1.04-2.11.61-3.12-.34-.8-1.18-1.26-1.98-1.61-2.67-1.17-5.57-1.78-8.48-1.85-3.1-.08-6.2.45-9.08,1.61,2.42-3.54,4.64-8.86,1.31-11.56-2.05-1.66-5.04-1.13-7.61-.52-7.24,1.74-14.62,3.53-20.94,7.46-5.01,3.11-9.13,7.43-13.06,11.82-5.82,6.5-11.33,13.28-16.68,20.17-3.82,4.93-8.93,10.22-11.2,16.14-2.73,7.11,1.36,11.23,7.21,13.72,5.42,2.31,12.34,3.23,16.79,3.83,15.88,2.14,32.12,4.05,47.85.95,13.41-2.64,26.56-9.55,34.45-20.48,1.36-1.89,2.59-3.88,3.61-6.01Z"/>
        <path class="cls-19" d="M713.98,257.52c-12.26,5.86-22.93,15-30.62,26.2"/>
        <path class="cls-19" d="M747,291.9c-16.18,6.21-33.16,10.31-50.39,12.17"/>
        <path class="cls-19" d="M705.82,324.59c12.32,7.7,26.55,12.31,41.04,13.31"/>
        <path class="cls-19" d="M764.23,253.67c-4.52,1.74-9.05,3.48-13.57,5.22"/>
        <path class="cls-19" d="M783.8,282.19c-2.96.77-5.85,1.8-8.62,3.07"/>
        <path class="cls-19" d="M782.65,305.87c-1.16-.46-2.48-.48-3.65-.05"/>
        <path class="cls-1" d="M672.34,309.79c-1.58-2.32-3.44-4.43-5.39-6.45,2.91-2.99,6.19-5.6,9.75-7.78-2.86-.86-5.91-1.1-8.87-.68.11-2.34-.5-4.87-1.16-7.16-.71-2.44-1.44-4.91-2.33-7.3-.68,4.65-1.79,9.22-3.89,13.4-2.36,4.69-6.13,8.84-10.81,11.08.03.25.06.51.12.76,2.62,11.05,16.35,9.47,25.86,10.67-.76-2.31-1.9-4.51-3.27-6.53Z"/>
      </g>
      <g>
        <path class="cls-16" d="M200.06,378.96c.57.55,1.2,1.17,1.89,1.84.71.65,1.51,1.32,2.36,2.06,1.72,1.45,3.61,3.2,5.9,4.87,1.13.86,2.32,1.76,3.55,2.69,1.24.93,2.61,1.78,3.99,2.72,2.74,1.93,5.85,3.68,9.11,5.58,6.61,3.6,14.16,7.07,22.41,9.86,8.27,2.71,16.38,4.52,23.82,5.68,3.74.47,7.28.97,10.63,1.11,1.67.09,3.28.25,4.83.27,1.55,0,3.04.02,4.47.02.51.01,1.01,0,1.51,0-1.63.19-3.28.37-4.93.55-.29-.17-1.98-.38-4.86-.07-1.46.17-3.21.5-5.18,1.06-25.15,2.22-49.24,2.96-71.28,2.78-5.97-.17-11.79-.32-17.45-.48-1.41-.04-2.82-.08-4.21-.11-1.39-.06-2.77-.17-4.14-.25-2.74-.18-5.43-.35-8.09-.52-2.65-.17-5.26-.34-7.82-.5-2.56-.18-5.07-.27-7.52-.56-4.91-.5-9.62-.97-14.11-1.43-9.01-.76-17.08-2.08-24.21-3-3.56-.5-6.88-.9-9.92-1.37-3.03-.52-5.8-.99-8.3-1.42-4.99-.84-8.87-1.47-11.51-1.86-2.64-.39-4.04-.55-4.06-.44-.02.11,1.33.47,3.93,1.06s6.45,1.42,11.41,2.44c2.48.51,5.24,1.07,8.27,1.69,3.03.56,6.35,1.05,9.9,1.63,7.12,1.09,15.2,2.57,24.22,3.47,4.51.52,9.23,1.06,14.14,1.63,2.46.33,4.98.44,7.54.66,2.57.19,5.18.39,7.84.59,2.66.2,5.37.4,8.11.6,1.38.09,2.76.22,4.16.29,1.4.05,2.81.1,4.23.15,5.68.2,11.52.41,17.52.62,19.24.28,40.05-.18,61.76-1.76-4.61,2.39-9.59,5.67-15.02,9.09-6.22,3.91-13.17,8-20.71,11.82-15.03,7.72-29.66,12.52-40.61,14.27-1.36.28-2.67.44-3.91.6-1.24.15-2.41.34-3.51.44-2.2.15-4.1.35-5.65.4-3.12.07-4.85.11-4.85.11,0,0,1.73.14,4.84.39,1.56.1,3.48.07,5.71.1,1.12,0,2.3-.1,3.57-.16,1.27-.06,2.61-.13,4-.31,11.21-.99,26.52-5.16,41.81-13.02,7.66-3.88,14.66-8.11,20.85-12.19,6.19-4.1,11.55-7.92,16.4-10.52.97-.53,1.91-1.01,2.83-1.45,3.46-.28,6.93-.59,10.43-.93,27.55-2.89,53.57-7.47,76.98-12.69,5.83-1.43,11.51-2.81,17.02-4.16,1.38-.34,2.75-.68,4.11-1.01.79-.2,1.57-.43,2.35-.65-5.28,2.91-11.11,7.05-17.1,12.14-6.14,5.21-12.42,11.42-18.9,17.96-6.47,6.53-12.7,12.64-18.74,17.74-6.04,5.09-11.87,9.22-17.13,12.07-5.24,2.87-9.79,4.65-13.02,5.58-.8.28-1.52.47-2.15.61-.63.16-1.16.29-1.59.4-.86.22-1.32.33-1.32.33,0,0,.46-.07,1.34-.2.44-.07.99-.15,1.63-.25.65-.09,1.39-.21,2.21-.42,3.33-.65,8.07-2.08,13.61-4.66,5.55-2.55,11.74-6.45,18.09-11.41,6.35-4.97,12.8-11.03,19.3-17.58,6.48-6.54,12.63-12.74,18.57-17.98,5.93-5.24,11.6-9.54,16.7-12.62,2.48-1.53,4.79-2.77,6.87-3.79.92-.19,1.69-.4,2.31-.58-1.17.53-1.78.87-1.74,1.01.13.41,6.51-1.3,16.72-4.4,10.21-3.1,24.24-7.6,39.68-12.75,5.23-1.74,10.27-3.47,15.04-5.14.05-.01.1-.02.15-.04,1.24-.31,2.36-.73,3.36-1.2,1.06-.37,2.1-.74,3.13-1.11,1.78-.64,3.51-1.26,5.2-1.86.68-.24,1.36-.48,2.04-.71l.5-.17.24-.09.11-.09.45-.35c.3-.23.6-.46.89-.69.29-.07-.08-.33-.2-.52-.17-.21-.33-.37-.49-.56-.62-.7-1.4-1.21-2.41-1.5-.27-.06-.51-.13-.79-.17-.29-.03-.56-.07-.84-.08h-.88c-.29.03-.61.07-.77.09-1.55.24-2.95.72-4.2,1.22-9.94,3.89-16.03,6.44-16.03,6.44,0,0,4.14-1.18,11.1-3.29-.6.23-1.05.46-1.29.7-.62.24-1.25.49-1.91.75-2.36.92-4.98,1.95-7.84,3.07-2.88,1.07-6.06,2.13-9.45,3.32-6.8,2.32-14.46,5.22-23.15,7.74-4.32,1.33-8.85,2.73-13.56,4.18-2.34.77-4.8,1.35-7.27,2.03-2.48.67-5,1.34-7.57,2.03-1.91.51-3.85,1.04-5.8,1.56-1.11.01-2.3,0-3.58-.04-7.89-.19-18.78-2-30.04-6.35-11.27-4.35-20.9-9.79-27.8-13.84-3.45-2.04-6.22-3.73-8.14-4.91-1.92-1.18-2.98-1.82-2.98-1.82,0,0,.96.79,2.69,2.23,1.75,1.42,4.3,3.44,7.56,5.82,6.5,4.73,15.91,10.97,27.53,15.47,5.81,2.22,11.57,3.78,16.89,4.66,3.3.55,6.43.86,9.3.98-.53.12-1.05.24-1.59.36-5.52,1.27-11.19,2.58-17.01,3.92-16.22,3.41-33.69,6.54-52.01,9.1-.78-.07-2.22-.08-4.25-.03-.79.02-1.66.05-2.61.08-.96.01-2-.03-3.11-.03-2.23-.04-4.76.04-7.56-.17-1.4-.07-2.86-.15-4.39-.22-1.52-.08-3.1-.3-4.74-.45-3.28-.25-6.74-.84-10.4-1.38-7.27-1.29-15.18-3.14-23.28-5.8-8.07-2.73-15.53-5.95-22.16-9.23-3.26-1.73-6.41-3.31-9.21-5.05-1.41-.85-2.81-1.61-4.09-2.45-1.28-.84-2.51-1.65-3.68-2.42-2.39-1.49-4.38-3.06-6.2-4.36-.9-.66-1.76-1.26-2.51-1.84-.74-.6-1.42-1.16-2.04-1.65-2.46-1.98-3.82-3.07-3.82-3.07,0,0,1.24,1.22,3.5,3.44ZM399.1,397.82s-.05-.07-.12-.09c.48-.14.96-.28,1.44-.41-.48.19-.93.37-1.34.54,0-.01.02-.03.02-.04ZM478.54,370.68s.09.11-.03.11l-.41.1s-.09.02-.13.03c.15-.2.28-.36.36-.48.04.04.09.06.12.1.03.05.06.08.08.14ZM477.28,370.1h.21c.14.03.27.05.39.08.02,0,.03.02.05.02-.36.04-.85.09-1.43.17-1.09.16-2.48.38-3.94.77.06-.03.12-.05.18-.08.11-.03.21-.07.33-.1,1.26-.4,2.55-.74,3.89-.85h.32ZM466.14,373.88c.05.12.16.23.31.34-.98.25-1.92.48-2.8.72.31-.13.63-.27.94-.4.53-.23,1.04-.44,1.54-.66Z"/>
        <path class="cls-8" d="M82.89,372.03c-14.16-10.23-31.78-14.79-49.21-15.86-11.23-.69-22.47,0-33.67,1.16,7.1,4.3,14.05,8.85,20.3,14.3,19.44,16.98,32.46,42.87,56.8,51.48,16.55,5.86,34.35,2.21,51.36-3.4-16.65-14.01-27.73-34.79-45.57-47.67Z"/>
        <path class="cls-11" d="M129.04,320.26c5.05,7.86,8.25,16.74,12.55,25.04,17.48,33.69,54.78,55.66,92.54,56.23-7.79-10.12-13.98-21.48-18.18-33.55-5.54-15.92-7.91-33.43-17.85-47.05-16.64-22.82-48.29-27.28-76.42-29.84-10.05-.91-20.09-1.83-30.14-2.74,14.51,8.4,28.51,17.95,37.49,31.91Z"/>
        <path class="cls-18" d="M297.27,381.93c8.22,7.83,19.56,11.74,30.85,12.96,7.65.82,15.35.5,23.02-.18-4.85-17.03-3.27-38.47-16.74-49.94-3.4-2.9-7.49-4.84-11.58-6.66-26.43-11.77-54.64-19.5-83.37-22.91,17.34,13.71,32.45,30.23,44.52,48.75,4.08,6.26,7.88,12.82,13.29,17.98Z"/>
        <path class="cls-8" d="M299.47,445.64c-21.53,8.29-29.53,34.15-45.29,50.99-2,2.14-4.12,4.11-6.34,5.96,12.65-2.36,25.48-3.8,38.34-4.27,10.49-.38,21.63-.3,30.56-5.83,7.74-4.79,12.65-13.24,15.03-22.03,2.11-7.77,2.47-15.88,2.62-23.95-11.7-3.54-23.73-5.18-34.9-.88Z"/>
        <path class="cls-18" d="M171.05,429.61c-19.74,2.28-39.05,8.27-56.62,17.56-11.45,6.05-22.23,13.5-33.32,20.23,16.43-.34,32.92,1.98,48.6,6.93,13.76,4.35,27.16,10.72,41.57,11.5,24.39,1.31,48.22-16.14,55.35-39.3-9.86-6.03-19.32-13.15-30.43-16.05-8.16-2.13-16.77-1.84-25.15-.87Z"/>
      </g>
      <g>
        <path class="cls-16" d="M447.92,268.08c-1.87.8-4.6,1.81-8.08,2.7-3.48.92-7.7,1.7-12.44,2.82-4.7,1.13-10.07,2.64-15.12,5.86-1.23.86-2.44,1.69-3.51,2.72-1.12.94-2.11,2.02-2.99,3.11-.31.39-.6.78-.88,1.17,2.09-6.52,4.83-13.5,8-20.73,3.33-7.57,6.62-14.79,9.39-21.48,2.78-6.69,5.03-12.84,6.6-18.11,1.58-5.26,2.56-9.6,3.09-12.62.3-1.5.43-2.69.56-3.48.12-.8.18-1.21.18-1.21,0,0-.5,1.61-1.4,4.53-.92,2.9-2.41,7.05-4.48,12.06-2.06,5.02-4.78,10.87-7.9,17.34-3.12,6.47-6.65,13.57-10.02,21.23-3.36,7.68-6.19,15.2-8.16,22.25-1.39,4.97-2.37,9.69-2.95,13.98-.5,1.33-.95,2.63-1.29,3.87-.12.44-.23.88-.33,1.31-3.03-10.24-6.3-20-9.68-29.11-3.14-7.89-6.01-15.44-9.24-22.27-1.58-3.43-2.99-6.79-4.56-9.93-1.58-3.12-3.1-6.12-4.55-8.99-2.81-5.77-5.82-10.74-8.32-15.18-1.28-2.2-2.43-4.28-3.57-6.14-1.18-1.83-2.26-3.51-3.24-5.02-3.92-6.01-6.19-9.25-6.45-9.09-.25.16,1.54,3.7,4.99,9.95.87,1.56,1.84,3.29,2.89,5.18,1.03,1.91,2.07,4.03,3.24,6.28,2.28,4.52,5.09,9.56,7.7,15.38,1.36,2.88,2.78,5.9,4.27,9.04,1.47,3.15,2.8,6.52,4.29,9.95,3.06,6.83,5.79,14.36,8.79,22.21,3.09,8.67,6.11,17.91,8.94,27.58-.43-.55-.86-1.1-1.33-1.63-2.43-2.8-5-5.21-7.71-7.1-2.7-1.86-5.47-3.14-7.98-3.66-2.49-.58-4.64-.34-5.99.06-1.37.4-1.98.97-1.9,1.22.18.66,3.04.03,7.01,1.67,1.98.77,4.21,2.12,6.47,3.93,2.24,1.81,4.57,4.15,6.81,6.73,3.23,3.71,5.89,7.47,7.96,10.8,1.12,4.22,2.19,8.51,3.2,12.86,4.26,18.94,7.13,37.23,9.03,53.96.76,8.38,1.63,16.34,1.89,23.83.17,3.74.47,7.35.53,10.83.05,3.48.1,6.82.15,10.01.22,6.38-.09,12.15-.17,17.22-.07,2.54-.08,4.9-.18,7.07,0,.05,0,.09,0,.13-.08.83-.16,1.66-.27,2.44-.28,2.15-.54,4.13-.77,5.93-.56,3.58-1.06,6.43-1.32,8.38l-.31,2.29,1.23-1.79c.24-.35.36-.65.43-.93-.02.37-.03.57-.03.57,0,0,.04-.3.1-.85.04-.21.07-.41.11-.61.53-1.75,1.19-3.98,1.89-6.65.4-1.79.85-3.77,1.33-5.91.48-2.15.8-4.48,1.23-6.96,1.54-9.9,2.43-22.28,1.84-35.43-.38-9.75-1.32-19-2.47-27.34-1.14-8.35-2.43-15.82-3.67-22.06-.06-.3-.12-.58-.18-.88-1.51-11.03-3.51-22.51-6.14-34.22-.97-4.19-2.01-8.3-3.09-12.35.09-2.89.3-6.65.94-11.12.19-1.36.42-2.78.69-4.25,1.12-2.35,2.47-4.88,3.99-7.55,1.18-2.02,2.48-4.04,4.05-5.9.79-.93,1.62-1.81,2.59-2.59.9-.85,1.95-1.56,3-2.3,4.35-2.78,9.23-4.49,13.75-5.97,4.53-1.49,8.73-2.83,12.14-4.29,3.42-1.44,6.02-2.99,7.72-4.16,1.66-1.23,2.52-1.97,2.52-1.97,0,0-1.02.49-2.85,1.38Z"/>
        <path class="cls-8" d="M470.98,226.42c-11.88,3.47-20.94,12.95-28.86,22.46-5.95,7.14-11.77,15.26-14.6,23.93,18.41-4.06,38.15-3.12,57.02-5.92,13.35-1.98,26.33-5.87,39.26-9.75,8.27-2.48,16.82-5.11,23.31-10.81,2.05-1.8,3.83-3.99,5.2-6.39-27.5,4.15-54.54-21.35-81.33-13.52Z"/>
        <path class="cls-8" d="M312.85,141.69c4.04,11.58,5.17,24.35,7.5,36.54,3.13,16.42,10.1,34.06,25.28,41.08,5.57,2.57,11.76,3.45,17.56,5.44.04.01.08.03.12.05-.96-17.22-8.95-34.7-19.5-48.81-9.22-12.34-20.26-23.17-30.95-34.3Z"/>
        <path class="cls-8" d="M352.49,273.98c-13.74-.96-27.05,5.08-38.6,12.58s-22.08,16.62-34.27,23.04c-10.44,5.5-21.98,8.87-33.72,9.95,2.95,4.68,6.43,8.98,10.75,12.41,5.75,4.55,12.71,7.35,19.8,9.22,22.68,5.98,47.67,2.64,67.97-9.1,15.52-8.97,28.15-22.78,35.98-38.89-4.04-10.88-16-18.38-27.91-19.21Z"/>
        <path class="cls-8" d="M469.12,141.4c-.96-16.48-2.61-32.91-4.91-49.25-12.68,17.64-35.39,30.94-43.1,51.95-3.83,10.44-3.57,21.88-3.15,33,.72,19.23,1.73,38.44,3.02,57.64,16.26-19.99,39.58-36.94,46.31-61.78,2.77-10.21,2.45-20.98,1.83-31.55Z"/>
        <g>
          <path class="cls-4" d="M444.88,153.37c-.54,21.89-6.76,42.71-18.28,61.33-1.33,2.14,2.02,4.15,3.35,2.02,11.87-19.17,18.28-40.75,18.84-63.29.06-2.51-3.84-2.57-3.9-.05h0Z"/>
          <path class="cls-4" d="M295.79,321.61c10.35-8.41,21.95-15.16,34.89-18.65,13.41-3.61,27.32-3.31,41.07-2.92,2.51.07,2.57-3.83.05-3.9-14.94-.43-30.06-.65-44.52,3.74-12.66,3.84-24,10.64-34.22,18.94-1.95,1.59.79,4.37,2.72,2.8h0Z"/>
        </g>
      </g>
      <g>
        <path class="cls-4" d="M562.36,75.11c-.19-.08-.75,1.1-2.04,3.02-1.28,1.92-3.34,4.56-6.48,7.22-3.11,2.67-7.31,5.26-12.27,7.58-4.96,2.33-10.66,4.5-16.61,6.93-5.95,2.42-11.59,4.99-16.43,7.88-2.72,1.58-5.18,3.34-7.26,5.2,8.04-15.74,16.2-29.61,23.74-41.25,1.08-1.8,2.28-3.45,3.39-5.11,1.12-1.65,2.21-3.25,3.27-4.81,2.14-3.11,4.06-6.11,6.08-8.76,1.96-2.69,3.79-5.19,5.48-7.49,1.67-2.31,3.19-4.44,4.67-6.26,5.78-7.39,8.87-11.58,8.64-11.78-.23-.2-3.77,3.62-9.98,10.71-1.59,1.75-3.21,3.8-4.99,6.04-1.78,2.25-3.72,4.69-5.8,7.31-2.13,2.59-4.16,5.54-6.4,8.61-1.11,1.54-2.25,3.13-3.43,4.75-1.16,1.64-2.41,3.28-3.54,5.06-4.58,6.72-9.36,14.21-14.2,22.41,1.6-4.86,3.29-10.37,5.06-16.22,1.49-4.98,2.9-9.77,3.87-14.24.97-4.46,1.48-8.58,1.51-12.05.06-3.47-.33-6.26-.74-8.14-.17-.95-.4-1.66-.53-2.15-.14-.48-.21-.74-.21-.74,0,0,.03.26.1.76.06.5.18,1.23.23,2.18.16,1.89.21,4.65-.17,8-.36,3.35-1.17,7.29-2.36,11.6-1.18,4.31-2.73,9.01-4.23,14.01-3.02,9.98-5.51,19.08-7.55,25.56-.04.13-.08.25-.12.37-3.5,6.27-7,12.89-10.44,19.85-7.02,14.23-13.72,29.9-19.68,46.64.03-2.02.02-4.07-.03-6.15-.1-3.66-.23-7.2-.55-10.68-.33-3.47-.94-6.85-2.09-9.93-1.14-3.1-2.81-5.7-4.28-8.07-1.49-2.37-2.77-4.56-3.69-6.72-1.87-4.3-2.58-8.11-2.9-10.73-.16-1.32-.21-2.35-.24-3.05-.02-.7-.03-1.07-.03-1.07,0,0-.03.37-.08,1.07-.04.7-.1,1.74-.06,3.08.07,2.67.46,6.6,2.08,11.19.79,2.3,2,4.7,3.36,7.15,1.35,2.46,2.81,5.02,3.73,7.89,1.91,5.76,1.86,12.71,2.11,19.93.12,5.08.05,9.96-.25,14.57-1.36,4.09-2.69,8.22-3.95,12.42-5.39,17.92-9.34,35.56-12.1,52.36-.59-3.24-1.46-6.61-2.81-9.94-1.4-3.54-3.39-7.05-5.84-10.23-2.43-3.2-5.03-6.03-7.36-8.86-2.34-2.83-4.48-5.64-6.32-8.44-3.72-5.58-6.17-11.17-7.28-16.12-1.17-4.95-1.08-9.14-.74-11.97.19-1.42.41-2.52.59-3.25.19-.73.29-1.12.29-1.12,0,0-.14.38-.4,1.09-.25.72-.58,1.8-.89,3.21-.59,2.83-1.02,7.11-.15,12.3.81,5.19,3.06,11.16,6.69,17.06,1.8,2.96,3.91,5.91,6.24,8.84,2.33,2.94,4.89,5.8,7.22,8.87,4.73,6.05,7.23,13.06,8.47,19.61.49,2.58.79,5.08.97,7.48-.49,3.43-.94,6.84-1.33,10.18-.18,1.38-.35,2.76-.53,4.12-.12,1.37-.24,2.74-.36,4.09-.23,2.71-.46,5.38-.69,8.01-.49,5.26-.78,10.39-.97,15.34-.42,9.91-.48,19.14-.41,27.55.02,1.71.04,3.38.06,5.02-.18,4.38-.42,9.08-.74,13.98-.53,7.99-1.02,15.46-1.43,21.79-.11,1.57-.22,3.07-.31,4.49-.14.56-.19,1.2-.11,1.89,0,.06.04.12.05.19,0,.27.03.53.04.79-.46.78-.7,1.94-.44,3.18.28,1.36,1.35,2.29,2.25,2.65.02,0,.03,0,.05.02.57.66,1.26,1.13,1.92,1.38l.63.24.12-.56c.29-1.4.24-2.53.11-3.43.36-1.2.68-2.75.66-4.44-.03-2.46-.39-4.61-.9-5.82,0-.51,0-1.02,0-1.55,0-1.16,0-2.39-.01-3.68.77-5.13,1.43-10.83,1.81-16.85,1.1-16.85.22-31.42-.8-38.44.14-2.69.3-5.43.5-8.23.11-1.65.25-3.34.38-5.02.26-1.02.56-2.09.92-3.2,1.42-4.65,3.74-9.99,6.87-15.62,3.13-5.64,7.11-11.55,11.57-17.56,4.45-6.02,8.9-11.57,13.61-15.91,4.69-4.34,9.69-7.46,13.71-10.35,4.06-2.84,7.16-5.43,9.11-7.4.97-.99,1.7-1.78,2.16-2.35.47-.56.71-.85.71-.85,0,0-.27.27-.79.78-.51.52-1.31,1.23-2.35,2.12-2.1,1.78-5.35,4.06-9.56,6.61-4.16,2.6-9.39,5.44-14.46,9.79-5.06,4.32-9.76,9.93-14.25,16-4.51,6.08-8.5,12.13-11.59,17.97-1.95,3.68-3.54,7.26-4.77,10.63.03-.28.05-.55.08-.83.28-2.61.56-5.25.85-7.93.14-1.34.29-2.69.44-4.05.2-1.35.4-2.71.6-4.08,2.11-15.6,5.25-32.19,9.52-49.27,1.73-4.87,3.95-10.35,6.8-16.14,3.33-6.81,7.5-14.08,13.5-20.35,5.94-6.32,12.84-11.1,19.53-14.57,6.7-3.51,13.25-5.52,18.83-7.08,5.58-1.57,10.06-3.13,13-4.54,1.47-.71,2.57-1.32,3.3-1.76.73-.45,1.11-.69,1.11-.69,0,0-.4.2-1.16.58-.76.38-1.91.89-3.41,1.48-3.01,1.18-7.51,2.39-13.17,3.64-5.64,1.24-12.48,2.98-19.49,6.37-7,3.35-14.27,8.17-20.46,14.75-5.78,6.04-9.83,12.96-12.99,19.46.08-.31.17-.61.25-.92.29-1.11.55-2.26.79-3.44,7.2-23.59,15.99-45.47,25.28-64.79.92-1.9,1.84-3.77,2.76-5.62,2.56-2.82,6.23-5.37,10.58-7.66,4.83-2.6,10.4-4.97,16.33-7.38,5.92-2.42,11.63-4.67,16.67-7.19,5.04-2.5,9.35-5.38,12.46-8.38,3.13-2.97,5.07-5.94,6.12-8.09,1.06-2.16,1.29-3.48,1.15-3.54ZM449.45,372.66s0,0,0,.01c0,0,0,0,0,0,0,0,0,0,0,0ZM449.64,372.88s.06-.11.1-.2c-.02.07-.05.15-.07.23,0-.01-.02-.02-.03-.03ZM449.67,359.3s-.03-.02-.04-.03c0-.06.02-.12.03-.18,0,.07,0,.14.01.21Z"/>
        <path class="cls-19" d="M475.26,82.93c-4.39-1.39-9.36.36-12.62,3.6-3.26,3.24-4.99,7.76-5.73,12.3-.79-3.99-1.72-8.26-4.67-11.06s-8.65-2.99-10.51.63c-.84,1.65-.7,3.61-.48,5.45.85,6.97,2.62,13.96,6.33,19.92,3.22,5.17,8.05,9.51,13.77,11.49-.03-1.41.14-2.83.51-4.16,1.46-5.28,5.21-9.56,8.66-13.82,2.47-3.05,4.83-6.17,7.09-9.38,2-2.83,4-6.18,3.19-9.55-.63-2.62-2.95-4.62-5.52-5.43Z"/>
        <path class="cls-10" d="M517.32,51.95c1.07-3.12,2.6-6.16,4.31-8.89,4.87-7.78,11.21-15.2,12.35-24.31.64-5.14-.98-11.1-5.58-13.46-2.97-1.53-6.82-1.17-9.45.89s-3.92,5.7-3.16,8.96c-2.76-2.73-4.57-6.3-7.3-9.06-2.73-2.76-7.07-4.62-10.49-2.77-3.72,2-4.29,7.1-3.69,11.29,2.11,14.74,12.55,26.6,23.01,37.36Z"/>
        <path class="cls-7" d="M580.97,78.19c-1.19-1.97-3.48-2.81-5.84-3.16,1.25-1.84,2.05-3.97,2.16-6.21.27-5.56-4.28-11.14-9.84-11.3-4.17-.12-8.02,2.6-10.31,6.09-2.28,3.49-3.24,7.66-3.94,11.77-.7,4.11-1.19,8.3-2.68,12.19-.63,1.66-1.46,3.24-2.43,4.72,8.6,1.8,17.77.95,25.85-2.54,2.36-1.02,4.7-2.31,6.25-4.36,1.55-2.05,2.12-5.02.79-7.22Z"/>
        <path class="cls-19" d="M569.68,34.5c4.31-.75,8.82-1.39,12.45-3.84,3.62-2.46,6.01-7.4,4.07-11.32-1.65-3.32-5.84-4.74-9.51-4.22-3.67.52-6.92,2.58-9.95,4.72.67-5.77-.21-12.13-4.23-16.33s-11.77-4.96-15.37-.4c-1.65,2.09-2.18,4.82-2.56,7.46-1.44,10.12-1.27,20.46.45,30.54,1.41-.7,2.93-1.21,4.44-1.69,6.62-2.07,13.37-3.71,20.2-4.9Z"/>
        <path class="cls-19" d="M528.21,206.48c-4.57-.39-9.06,1.55-12.85,4.15,4.36-3.21,7.42-8.13,8.36-13.46.23-1.29.33-2.67-.21-3.87-.48-1.07-1.43-1.88-2.48-2.43-2.82-1.5-6.34-1.28-9.26.03s-5.28,3.61-7.24,6.14c-2.49,3.23-4.4,6.9-5.61,10.79-1.29,4.16-1.79,8.54-3.15,12.67-.65,1.96-1.55,3.89-2.73,5.58,9.13-.11,18.72,2.06,27.96,1.83,4.09-.1,8.31-.74,11.75-2.95s5.93-6.28,5.28-10.32c-.73-4.53-5.26-7.78-9.84-8.16Z"/>
        <path class="cls-10" d="M570.8,135.27c-1.14-.62-2.46-.83-3.75-.98-2.98-.35-6-.45-9-.29.47-1,.87-2.02,1.21-3.07,1.32-4.12,1.26-9.33-2.16-11.98-3.91-3.02-9.78-.83-13.32,2.61-1.63,1.59-3.04,3.42-4.01,5.48-1.66,3.52-1.97,7.51-2.95,11.27-1.15,4.43-3.3,8.58-6.18,12.14,1.52.08,3.04.25,4.54.55,3.55.71,6.97,2.03,10.54,2.6,5.18.83,10.49.04,15.57-1.26,4.1-1.05,8.37-2.6,10.9-5.99,2.53-3.39,2.33-9.08-1.39-11.09Z"/>
        <path class="cls-7" d="M436.87,154.39c-2.78-.01-4.86,2.46-6.5,4.71,1.53-4.34-.61-9.66-4.72-11.74-4.11-2.08-9.65-.66-12.26,3.14-2.31,3.38-2.23,7.85-1.41,11.86.66,3.21,1.74,6.34,3.2,9.27,1.64,3.28,3.74,6.31,5.14,9.7.96,2.31,1.17,5.73,3.28,7.08,5.65-6.6,13.35-14.08,17.12-22.01,1.08-2.28,1.82-4.84,1.29-7.31-.53-2.47-2.63-4.72-5.15-4.73Z"/>
      </g>
      <g>
        <path class="cls-16" d="M490.9,497.61c-.24-.51-.63-1.23-1.06-2.2-.91-1.92-2.1-4.73-3.42-8.26-1.33-3.53-2.73-7.79-4.27-12.55-1.56-4.76-3.27-10.02-5.49-15.44-2.25-5.42-4.85-10.43-7.72-14.68-2.88-4.25-5.98-7.75-8.97-10.26-.88-.75-1.74-1.41-2.56-2.01-.36-.3-.74-.61-1.14-.92-.62-.49-1.29-.97-1.99-1.47.1.02.2.04.3.06,9.2,1.83,19.58,2.72,30.42,2.13,10.84-.66,21.05-2.68,30.01-5.49,4.49-1.37,8.65-3.01,12.5-4.62,3.82-1.69,7.31-3.39,10.4-5.11,6.2-3.44,10.92-6.7,14.02-9.15,3.1-2.45,4.67-3.98,4.54-4.15-.16-.2-1.99.97-5.3,3.06-3.3,2.09-8.15,5-14.38,8.1-3.11,1.56-6.59,3.1-10.37,4.64-3.81,1.46-7.91,2.97-12.32,4.22-8.8,2.58-18.75,4.45-29.3,5.09-10.55.57-20.66-.08-29.71-1.56-2.84-.44-5.55-.99-8.16-1.58-.17-.09-.34-.18-.51-.26-3.89-1.96-8.32-3.74-12.97-5.43-4.46-1.62-8.72-3.02-12.55-4.4-.88-.31-1.73-.63-2.56-.94-.74-.67-1.73-1.42-3.04-2.03-1.33-.63-2.99-1.11-4.92-1.17l-3.28-.09,2.88,1.8c2.69,1.69,6.03,3.46,9.83,5.14,2.47,1.1,5.14,2.16,7.91,3.2,1,.45,2.02.91,3.1,1.36,3.25,1.38,6.9,2.7,10.87,3.97.1.03.2.06.3.09,1.06.44,2.08.88,3.08,1.33,3.83,1.72,7.15,3.52,9.81,5.22.71.45,1.37.89,1.98,1.31.48.44.96.9,1.46,1.41,2.62,2.6,5.36,6.06,7.97,10.21,2.6,4.15,5.02,9.01,7.2,14.27,2.17,5.29,4.07,10.44,5.94,15.11,1.86,4.67,3.68,8.85,5.42,12.26,1.73,3.41,3.33,6.07,4.52,7.84.57.9,1.08,1.56,1.4,2.02.33.45.5.69.5.69,0,0-.13-.27-.38-.77Z"/>
        <path class="cls-8" d="M685.3,401.2c9.52-5.31,18.56-11.47,27.83-17.21-23.21-1.27-46.09-8.44-65.77-20.82-8.32-5.23-16.18-11.41-25.38-14.85-19.8-7.41-43.14-.35-58.43,14.26-14.02,13.4-21.88,32.15-25.05,51.36,47.82,16.28,102.59,11.9,146.8-12.73Z"/>
        <path class="cls-8" d="M550.47,608.09c-3.47-6.45-3.75-14.8-3.94-22.4-.63-25.38-4.09-51.31-15.92-73.77-11.22-21.3-31.08-39.09-54.6-43.46-.81,1.31-1.63,2.62-2.42,3.94-14.51,24.16-20.65,53.23-17.14,81.19,1.19,9.49,3.56,19.07,8.99,26.94,10.26,14.85,29.28,20.77,47.18,23.09,12.57,1.63,25.49,2.03,37.86,4.48Z"/>
        <g>
          <path class="cls-12" d="M524.94,549.08c-21.12-17.32-37.33-39.86-47.16-65.34-.56-1.44-2.68-.31-2.13,1.12,9.99,25.89,26.54,48.65,47.99,66.24,1.19.98,2.48-1.05,1.3-2.02h0Z"/>
          <path class="cls-12" d="M494.23,518.44c9.91,3.31,19.57,7.18,26.51,15.34,1.01,1.18,2.78-.44,1.77-1.62-7.2-8.47-17.27-12.57-27.57-16.01-1.47-.49-2.18,1.8-.71,2.3h0Z"/>
          <path class="cls-12" d="M486.14,507.24c2.44,13.51,4.01,27.08,3.89,40.82-.01,1.54,2.39,1.63,2.4.08.12-13.95-1.47-27.73-3.95-41.44-.28-1.52-2.62-.98-2.34.54h0Z"/>
          <path class="cls-12" d="M477.14,488.27c9.29,1.78,17.75,5.38,25.47,10.85,1.26.9,2.56-1.13,1.3-2.02-7.87-5.58-16.58-9.31-26.06-11.12-1.5-.29-2.23,2-.72,2.29h0Z"/>
          <path class="cls-12" d="M475.75,486.66c-1.99,12.9-2.96,25.88-2.92,38.93,0,1.54,2.41,1.63,2.4.08-.04-13.05.93-26.04,2.92-38.93.24-1.52-2.17-1.59-2.4-.08h0Z"/>
          <path class="cls-12" d="M642.37,393.8c-31.83-3.73-64.09-.71-94.68,8.85-1.47.46-.94,2.81.54,2.34,30.41-9.51,62.42-12.51,94.06-8.79,1.54.18,1.61-2.22.08-2.4h0Z"/>
          <path class="cls-12" d="M588.79,396.36c11.92.44,23.27,3.55,33.73,9.28,1.35.74,2.66-1.28,1.3-2.02-10.84-5.94-22.61-9.2-34.95-9.66-1.54-.06-1.63,2.35-.08,2.4h0Z"/>
          <path class="cls-12" d="M582.82,397.32c2.68-.5,4.48-2.33,6.49-4.1,3.17-2.79,6.18-5.76,9.38-8.53,6.1-5.29,12.78-9.64,20.98-10.52,1.53-.16.98-2.51-.54-2.34-6.34.68-11.93,3.36-17.06,7.08-3.1,2.25-5.95,4.81-8.76,7.4-2.93,2.7-6.94,7.9-11.02,8.67-1.52.28-.98,2.63.54,2.34h0Z"/>
          <path class="cls-12" d="M564.23,400.96c12.11.83,21.36,10.05,32.99,12.69,1.5.34,2.23-1.95.71-2.3-11.88-2.7-21.2-11.95-33.63-12.8-1.54-.1-1.63,2.3-.08,2.4h0Z"/>
          <path class="cls-12" d="M552.4,403.1c4.7-3.92,7.94-8.7,11.49-13.63,4.92-6.84,10.64-10.25,18.44-13.08,1.44-.52.91-2.87-.54-2.34-6.43,2.33-12.25,4.83-16.82,10.12-4.93,5.7-8.32,12.25-14.2,17.15-1.19.99.44,2.76,1.62,1.78h0Z"/>
        </g>
      </g>
      <g>
        <path class="cls-6" d="M587.56,277.32c-6.46-22.68-36.08-35.18-56.84-23.99,2.37-8.65,4.76-17.46,4.42-26.42-.33-8.96-3.82-18.25-11.12-23.46-9.08-6.48-21.52-5.21-32.28-2.25-11.87,3.27-23.46,8.36-32.67,16.53-3.49,3.1-6.62,6.68-9.19,10.6,2.98,13.84,2.26,28.35.75,42.49-.16,1.49-.38,2.97-.55,4.46,6.09-4.89,14.19-7.43,21.97-6.35,12.88,1.79,23.72,12.8,26.04,25.6,1.04,5.71.42,11.6-1.5,17.06,6.02,2.31,11.45,5.84,15.27,11,6.61,8.94,6.51,23.22-2.29,30.02,1.09-.13,2.17-.12,3.25-.01,14.2-3.09,28.17-6.78,40.97-13.55,1.62-.85,3.21-1.79,4.78-2.78,20.17-12.76,35.44-36.3,28.98-58.96Z"/>
        <path class="cls-3" d="M527.24,362.33c-2.95-5.25-8.49-9.14-14.41-9.71-1.07-.1-2.16-.11-3.25.01,8.79-6.81,8.9-21.08,2.29-30.02-3.82-5.15-9.25-8.69-15.27-11-2.38,6.79-6.78,12.92-12.58,17.19-5.26,3.88-11.41,6.3-17.25,9.22-10.19,5.1-19.3,11.85-27.49,19.74-8.69,8.36-11.33,6.97-15.51-.16,4.12,14.59,16.73,26.6,31.07,32.46,5.63,2.3,11.48,3.81,17.44,4.78,12.27,1.98,25.05,1.6,37.51.68,4.92-.36,10.19-.94,13.94-4.15,2.5-2.13,4.02-5.21,5.01-8.34,2.14-6.79,1.97-14.5-1.51-20.71Z"/>
        <path class="cls-2" d="M486.46,424.24c-3.79-10.21-8.55-20.06-14.17-29.4-5.97-.96-11.82-2.48-17.44-4.78-14.34-5.86-26.95-17.87-31.07-32.46-1.18-2.01-2.47-4.44-4.06-7.28-1.53-2.72-2.63-5.43-3.47-8.12-16.63,14.61-29.88,33.08-38.15,53.63-.59,1.46-1.14,2.94-1.67,4.44-5.01,14.11-7.27,29.65-1.95,43.51,2.25,5.87,6.05,11.45,11.66,14.3,9.43,4.8,21.45.41,28.62-7.37,7.17-7.78,10.62-18.19,13.88-28.26.61,7.6,4.1,14.86,9.42,20.32.59.61,1.21,1.19,1.84,1.75,2.41,2.12,5.11,3.91,8.06,5.22,10.69,4.75,23.92,3.18,33.19-3.94,3.51-2.69,6.58-6.35,7.24-10.72.55-3.67-.64-7.35-1.93-10.83Z"/>
        <path class="cls-13" d="M498.1,294.55c-2.32-12.8-13.16-23.81-26.04-25.6-7.78-1.08-15.87,1.46-21.97,6.35-4,3.21-7.15,7.42-8.75,12.32-4.51-12.73-20.47-20-33.04-15.04-1.91.75-3.79,1.8-4.96,3.48-1.47,2.12-1.57,4.88-1.55,7.46.05,5.74.48,11.48,1.26,17.17,1.9,2.44,3.59,5.03,5,7.76,5.79,11.15,4.64,22.37,8.19,33.76.84,2.7,1.94,5.41,3.47,8.12,1.59,2.83,2.88,5.27,4.06,7.28,4.17,7.12,6.82,8.52,15.51.16,8.2-7.89,17.3-14.64,27.49-19.74,5.84-2.92,12-5.35,17.25-9.22,5.8-4.28,10.19-10.41,12.58-17.19,1.92-5.47,2.53-11.36,1.5-17.06Z"/>
        <path class="cls-6" d="M428.64,422.45c-3.26,10.07-6.71,20.48-13.88,28.26s-19.19,12.17-28.62,7.37c-5.61-2.85-9.41-8.43-11.66-14.3-5.32-13.86-3.06-29.4,1.95-43.51-16.01,1.1-32.36-2.28-46.41-10.06-11.41-6.32-22.03-16.84-22.48-29.87-.41-11.92,8.17-22.81,18.85-28.14,5.76-2.87,12.01-4.36,18.42-5.06-13.17-5.6-27.31-8.77-41.54-9.16-9.72-.27-19.57.74-28.71,4.17-22.77,8.54-38.9,32.85-39.02,57.89s15.4,49.25,37.51,59.48c22.1,10.23,49.55,6.28,68.52-9.29-15.39,15.27-25.43,36.88-24.73,58.92.69,22.04,13.06,43.91,32.44,53.13,9.53,4.54,20.19,5.97,30.68,6.21,12.95.3,26.43-1.28,37.49-8.25,18.49-11.64,26.16-35.76,26.59-58.13.21-11.06-.99-21.97-3.12-32.75-.96-2.2-1.92-4.4-2.85-6.61-5.32-5.45-8.81-12.71-9.42-20.32Z"/>
        <path class="cls-17" d="M408.05,308.44c-1.42-2.73-3.1-5.33-5-7.76-8.06-10.31-20.12-17.64-33.2-18.93-6.9-.68-14.35.31-19.72,4.69-6.51,5.32-8.6,14.99-5.96,22.97,2.64,7.99,9.41,14.21,17.18,17.41-3.55-.19-7.13-.23-10.7-.1-1.96.07-3.91.21-5.85.42-6.41.69-12.67,2.18-18.42,5.06-10.68,5.32-19.26,16.21-18.85,28.14.45,13.03,11.07,23.56,22.48,29.87,14.05,7.78,30.4,11.16,46.41,10.06.53-1.49,1.08-2.98,1.67-4.44,8.26-20.54,21.51-39.02,38.15-53.63-3.56-11.39-2.4-22.61-8.19-33.76Z"/>
        <path class="cls-15" d="M613.41,379.14c-5.7-10.16-14.51-18.23-23.91-25.1-9.61-7.03-20.01-12.97-30.91-17.75-1.57.99-3.16,1.93-4.78,2.78-12.8,6.77-26.76,10.46-40.97,13.55,5.92.58,11.46,4.46,14.41,9.71,3.49,6.21,3.65,13.92,1.51,20.71-.99,3.13-2.51,6.21-5.01,8.34-3.75,3.2-9.02,3.79-13.94,4.15-12.47.92-25.25,1.3-37.51-.68,5.61,9.33,10.38,19.18,14.17,29.4,1.29,3.48,2.48,7.16,1.93,10.83-.66,4.37-3.73,8.03-7.24,10.72-9.28,7.12-22.51,8.69-33.19,3.94-2.94-1.31-5.65-3.09-8.06-5.22-.63-.56-1.25-1.14-1.84-1.75.93,2.21,1.89,4.41,2.85,6.61,2.05,4.7,4.15,9.38,6.35,14.02,11.03,23.32,27.13,48.29,52.59,52.47,8.94,1.46,18.09.1,27.01-1.45,9.6-1.67,19.85-3.93,26.46-11.08,5.76-6.23,7.68-15.14,7.88-23.62.45-19.14-7.43-38.92-22.76-50.4,13.84,6.2,29,10.64,44.05,8.81s29.89-11.05,34.99-25.33c3.91-10.97,1.62-23.48-4.08-33.64Z"/>
        <path class="cls-5" d="M449.89,228.34c-.39-1.81-.83-3.61-1.36-5.39-4.52-15.43-15.09-29.84-30.19-35.36-12.57-4.6-27.43-2.32-38.06,5.82-10.62,8.15-16.67,21.91-15.5,35.24-12.05-7.76-25.93-13.62-40.24-13.07s-28.95,8.74-33.94,22.17c-3.43,9.23-2.04,19.52.31,29.08,2.77,11.26,6.9,22.38,13.89,31.63,11.15,14.76,27.81,22.96,45.86,28.27,3.57-.13,7.16-.08,10.7.1-7.78-3.21-14.54-9.43-17.18-17.41s-.56-17.65,5.96-22.97c5.37-4.39,12.81-5.38,19.72-4.69,13.07,1.29,25.14,8.62,33.2,18.93-.78-5.69-1.2-11.43-1.26-17.17-.02-2.58.08-5.34,1.55-7.46,1.17-1.68,3.05-2.73,4.96-3.48,12.56-4.95,28.53,2.31,33.04,15.04,1.6-4.9,4.75-9.11,8.75-12.32.18-1.49.39-2.97.55-4.46,1.51-14.14,2.23-28.65-.75-42.49Z"/>
        <g>
          <path class="cls-14" d="M421.92,312.16c.35,12.56.42,25.11.22,37.67-.03,1.62,2.5,1.62,2.52,0,.21-12.56.13-25.12-.22-37.67-.05-1.62-2.57-1.63-2.52,0h0Z"/>
          <path class="cls-14" d="M430.68,315.85c-1.47,12.37-5.41,24.3-4.23,36.88.15,1.6,2.68,1.62,2.52,0-1.17-12.53,2.77-24.54,4.23-36.88.19-1.61-2.33-1.6-2.52,0h0Z"/>
          <path class="cls-14" d="M435.26,323.49c-2.35,9.75-5.38,19.26-9.1,28.58-.6,1.51,1.84,2.16,2.43.67,3.72-9.32,6.74-18.83,9.1-28.58.38-1.58-2.05-2.25-2.43-.67h0Z"/>
          <path class="cls-14" d="M455.15,309.33c-7.26,16.35-15.92,31.88-26.01,46.66-.92,1.34,1.27,2.61,2.18,1.27,10.08-14.77,18.74-30.31,26.01-46.66.65-1.47-1.52-2.76-2.18-1.27h0Z"/>
          <path class="cls-14" d="M450.22,333.67c-5.26,8.02-11.02,15.65-17.29,22.9-1.06,1.22.72,3.02,1.78,1.79,6.41-7.42,12.31-15.22,17.69-23.41.89-1.36-1.29-2.63-2.18-1.27h0Z"/>
          <path class="cls-14" d="M436.3,358.89c9.96-2.29,20.02-3.69,30.23-4.21,1.62-.08,1.63-2.61,0-2.52-10.44.53-20.71,1.96-30.9,4.3-1.58.36-.91,2.8.67,2.43h0Z"/>
          <path class="cls-14" d="M434.67,362.95c8.15.5,16.29-1.66,24.35.21,1.58.37,2.25-2.07.67-2.43-8.31-1.92-16.62.22-25.02-.3-1.62-.1-1.62,2.42,0,2.52h0Z"/>
          <path class="cls-14" d="M433.76,367.55c10.42,6.28,22.81,6.12,34.11,9.9,1.54.52,2.21-1.92.67-2.43-11.08-3.71-23.3-3.49-33.51-9.65-1.39-.84-2.66,1.34-1.27,2.18h0Z"/>
          <path class="cls-14" d="M433.46,368.85c.12,2.85,3.39,4.58,5.38,6.2,2.89,2.35,5.85,4.61,8.85,6.82,1.31.96,2.57-1.23,1.27-2.18-2.43-1.79-4.83-3.61-7.19-5.49-1.03-.82-2.05-1.65-3.06-2.49-.75-.63-2.69-1.73-2.74-2.85-.07-1.62-2.59-1.63-2.52,0h0Z"/>
          <path class="cls-14" d="M427.57,373c4.38,12.22,7.72,24.66,10.06,37.43.29,1.59,2.73.92,2.43-.67-2.34-12.76-5.69-25.21-10.06-37.43-.54-1.52-2.98-.86-2.43.67h0Z"/>
          <path class="cls-14" d="M424.25,373.36c1.29,6.54,1.85,13.09,1.72,19.76-.03,1.62,2.49,1.62,2.52,0,.13-6.89-.48-13.67-1.81-20.43-.31-1.59-2.75-.92-2.43.67h0Z"/>
          <path class="cls-14" d="M393.49,389.26c5.19-11.91,12.41-22.5,21.63-31.66,1.15-1.15-.63-2.93-1.78-1.79-9.36,9.31-16.75,20.06-22.02,32.17-.64,1.48,1.53,2.76,2.18,1.28h0Z"/>
          <path class="cls-14" d="M398.85,400.07c4.6-12.25,10.66-23.63,18.21-34.31.94-1.33-1.25-2.59-2.18-1.27-7.66,10.84-13.8,22.49-18.46,34.91-.57,1.52,1.87,2.18,2.43.67h0Z"/>
          <path class="cls-14" d="M409.55,389.06c3.72-9.87,9.05-18.74,16.02-26.66,1.07-1.21-.71-3.01-1.78-1.79-7.24,8.24-12.8,17.51-16.67,27.78-.57,1.52,1.87,2.18,2.43.67h0Z"/>
          <path class="cls-14" d="M414.15,410.26c1.82-14.16,5.78-27.65,11.88-40.56.69-1.46-1.49-2.74-2.18-1.27-6.29,13.31-10.35,27.23-12.23,41.83-.21,1.61,2.32,1.59,2.52,0h0Z"/>
          <path class="cls-14" d="M382.46,366.3c12.53-5.79,25.69-8.66,39.49-8.68,1.62,0,1.63-2.53,0-2.52-14.24.03-27.84,3.06-40.76,9.03-1.47.68-.19,2.86,1.27,2.18h0Z"/>
          <path class="cls-14" d="M371.27,349.9c17.28-1.02,33.88,1.97,49.67,9.05,1.47.66,2.75-1.52,1.27-2.18-16.21-7.27-33.21-10.44-50.94-9.4-1.62.09-1.63,2.62,0,2.52h0Z"/>
          <path class="cls-14" d="M377.82,335.64c7.9,2.3,15.9,4.6,23.08,8.72,7.2,4.12,12.75,10.1,18.25,16.19,1.09,1.21,2.87-.58,1.78-1.79-5.65-6.26-11.39-12.36-18.76-16.59-7.36-4.22-15.59-6.61-23.69-8.97-1.56-.46-2.23,1.98-.67,2.43h0Z"/>
          <path class="cls-14" d="M393.45,321.48c10.29,8.96,17.79,20.13,22.12,33.07.51,1.53,2.95.88,2.43-.67-4.47-13.35-12.15-24.93-22.77-34.18-1.22-1.06-3.01.72-1.78,1.79h0Z"/>
          <path class="cls-14" d="M395.71,332.88c7.65,6.27,17.23,12.94,21.86,21.9.75,1.44,2.92.17,2.18-1.27-4.77-9.22-14.4-15.97-22.26-22.41-1.25-1.02-3.04.76-1.78,1.79h0Z"/>
          <path class="cls-14" d="M408.88,329.71c3.68,7.16,6.34,14.64,8.05,22.51.34,1.59,2.78.92,2.43-.67-1.75-8.08-4.53-15.76-8.31-23.11-.74-1.44-2.92-.17-2.18,1.27h0Z"/>
          <path class="cls-14" d="M388.03,353.92c7.65.79,15.28,1.73,22.89,2.84,1.59.23,2.27-2.2.67-2.43-7.83-1.14-15.68-2.12-23.56-2.93-1.61-.17-1.6,2.36,0,2.52h0Z"/>
          <path class="cls-14" d="M435.99,356.16c7.11-3.69,14.42-6.87,21.98-9.54,1.52-.54.87-2.98-.67-2.43-7.76,2.74-15.28,5.99-22.58,9.79-1.44.75-.17,2.93,1.27,2.18h0Z"/>
          <path class="cls-14" d="M394.99,370.61c3.92-3.87,8.49-6.79,13.67-8.68,1.51-.55.86-2.99-.67-2.43-5.59,2.04-10.55,5.15-14.79,9.33-1.16,1.14.63,2.93,1.78,1.78h0Z"/>
          <path class="cls-14" d="M430.53,371.17c1.65,3.65,3.69,7.06,6.1,10.25.97,1.28,3.16.02,2.18-1.27-2.42-3.19-4.45-6.61-6.1-10.25-.67-1.48-2.85-.19-2.18,1.27h0Z"/>
          <path class="cls-14" d="M416.28,331.99c.53,4.62,1.29,9.2,2.29,13.75.35,1.59,2.78.92,2.43-.67-.95-4.33-1.69-8.68-2.2-13.08-.18-1.59-2.71-1.61-2.52,0h0Z"/>
        </g>
        <circle class="cls-15" cx="422.66" cy="359.04" r="15.25"/>
      </g>
    </g>
  </g>
</svg>